<svg width="138" height="80" viewBox="0 0 138 80" fill="none" xmlns="http://www.w3.org/2000/svg">
<g clip-path="url(#clip0_5037_5166)">
<path fill-rule="evenodd" clip-rule="evenodd" d="M37.9435 30.1265C33.8748 30.0865 33.8016 25.4121 34.9165 21.9916H35.0247C35.313 22.2708 35.6013 22.5501 35.8896 22.8295C36.6751 23.6149 37.6554 24.6143 38.1058 25.6942C38.1148 25.6761 38.1235 25.6581 38.1327 25.6402C38.381 25.2776 38.5343 24.4441 38.5651 23.9374C37.8096 23.416 37.0341 22.6485 36.7273 21.6943C36.239 20.1747 36.7755 17.7429 37.0246 16.2079C37.1642 15.3479 36.9371 14.513 36.8625 13.8025H36.9435C38.5531 14.4274 39.002 15.9375 39.3489 17.8295C39.523 18.7785 39.3977 19.8391 39.8353 20.505C39.8624 20.4871 39.8895 20.4692 39.9166 20.451C40.1214 19.9858 41.2849 18.3939 41.2949 17.9916C41.1596 17.6222 41.0244 17.2527 40.8894 16.8835C40.4655 15.7941 39.9297 14.3287 40.1868 12.7484C40.5653 10.4214 41.4712 8.5638 42.0515 6.37011C42.6601 6.56345 42.8839 7.55257 43.0785 8.18088C43.7957 10.496 43.3762 12.8304 43.1327 15.2348C44.0085 14.5647 44.4446 13.4038 45.2947 12.7216C44.8239 11.2441 44.5625 8.6265 45.1326 7.07301C45.55 5.93514 46.2014 4.99564 46.5921 3.74853L47.6435 0.000976562H47.673L47.7271 0.0190844C47.9254 0.334322 48.1236 0.649506 48.3217 0.964905C48.7584 1.70041 49.155 2.5745 49.4029 3.45146C50.1168 5.97714 49.0453 7.96181 48.4029 9.72167C48.4119 9.74853 48.4206 9.77561 48.4298 9.80248C49.8361 9.0699 50.4234 7.61376 51.673 6.72156C53.6525 5.30818 56.5354 5.12872 59.8621 5.23515C59.6984 5.93671 58.9706 6.56021 58.5648 7.07301C57.129 8.88606 53.5055 11.7555 50.1595 10.1C49.613 10.4693 48.3417 11.2981 48.0515 11.8568C48.0875 11.9107 48.1236 11.9647 48.1596 12.0187C50.765 11.6556 54.0963 11.3499 55.9701 12.6132C56.2651 12.8121 56.6246 13.0411 56.727 13.424C55.4465 13.8563 53.9988 14.0539 52.5378 14.3161C51.8803 14.361 51.2226 14.4061 50.5649 14.451C50.0514 14.4602 49.5379 14.4692 49.0243 14.4781C48.3939 14.3881 47.763 14.2981 47.1325 14.208C46.7361 14.0907 46.3396 13.9736 45.9434 13.8565C45.251 14.779 44.367 15.5775 43.7273 16.5593C44.5815 16.4451 45.3301 16.1644 46.1055 15.9647C46.8398 15.7756 47.5196 15.7472 48.3217 15.6133C48.679 15.5536 49.1838 15.4957 49.5649 15.5593C50.372 15.6944 51.7991 15.956 51.6191 16.8564C51.1055 17.0187 50.5918 17.1809 50.0785 17.343C48.6733 17.8203 47.2676 18.298 45.8622 18.7755C44.6646 19.0792 43.5356 18.8586 42.3759 18.7755C42.0336 19.2888 41.6911 19.8025 41.3488 20.3159C40.8164 21.1867 40.4259 22.1581 40.1597 23.2888C42.728 21.8425 44.9166 18.6843 49.0514 20.1808V20.2888C48.5986 20.4295 48.2258 20.751 47.8623 20.9916C46.2649 22.0488 45.1662 23.637 43.5921 24.6671C42.9462 25.0899 42.0309 25.4297 40.9705 25.3971C40.5212 25.383 40.0293 25.265 39.6461 25.3427C39.2837 26.2394 38.6458 29.8079 39.2678 30.8563C40.0127 30.3471 40.4865 29.2522 40.9705 28.478C42.1543 26.5843 43.5568 24.8243 46.6461 24.8294C46.2318 25.46 45.8172 26.0906 45.4028 26.7212C44.4932 28.0843 43.7963 29.7854 42.5111 30.7752C41.9466 31.2098 41.2718 31.5758 40.619 31.9104C40.3137 32.0669 39.7487 32.1747 39.5651 32.4508C39.297 32.8543 40.1233 35.5769 40.3488 35.8292V35.775C40.6822 35.1175 41.0155 34.4597 41.3488 33.8022C42.3175 32.1631 43.4481 30.161 45.6461 29.7751C45.3759 30.5771 45.1056 31.379 44.8353 32.1806C44.4014 33.9044 44.1542 35.7771 43.5381 37.3698C43.1508 38.2975 42.7631 39.2255 42.3759 40.1535C42.2857 40.6622 42.9908 41.4242 43.1327 41.829H43.1598C43.1613 39.148 44.6544 34.9967 46.8623 34.7482V35.3428C46.8353 35.8021 46.8082 36.2617 46.7813 36.7211C46.583 37.8957 46.578 39.0959 46.2676 40.1535C46 41.0651 45.7079 41.9203 45.3489 42.7477C45.1416 43.1802 44.9343 43.6127 44.7272 44.0452C45.2791 44.7782 45.6084 45.5325 46.3488 46.0722C46.2987 44.2298 46.4468 42.6183 46.8893 41.1805C47.2046 40.2616 47.52 39.3424 47.8352 38.4237H47.9163C47.9344 38.4327 47.9523 38.4418 47.9704 38.4508C48.283 39.3432 48.8167 40.0445 49.0785 41.1534C49.5533 43.1646 49.1811 46.6846 48.9162 48.6398C49.7505 49.3097 50.2608 50.1521 51.2947 50.6668C51.0424 50.036 50.7901 49.4052 50.5378 48.7748C50.0102 47.0567 49.9948 44.175 50.5378 42.4507H50.5649C51.1196 42.7231 51.7756 43.8606 52.1324 44.3966C53.5846 46.578 54.2822 48.5991 54.2677 52.234C55.2532 52.7121 55.907 52.7943 57.3486 52.7478C57.3305 52.7207 57.3124 52.6936 57.2946 52.6667C55.2659 51.7808 54.6226 47.4689 54.5379 44.5585C55.2873 44.7177 56.0243 45.3718 56.5918 45.7747C58.3065 46.9928 60.8855 49.683 60.2673 52.9638C62.3235 53.2363 63.6451 54.7582 64.5377 56.2341C64.8455 56.7432 65.4376 57.7498 64.9971 58.4773C64.6205 58.5971 64.2712 58.4666 64.0781 58.18C63.907 57.7836 63.7359 57.3872 63.5646 56.9909C63.0839 56.1445 62.471 55.4414 61.673 54.9099C61.4351 54.7515 60.6141 54.1259 60.1864 54.4233C59.7915 54.6041 59.1489 55.7492 58.7 56.0991C57.448 57.0747 55.3172 57.9661 52.9163 57.5584C52.1934 57.4358 51.1608 57.4854 50.781 57.0178C51.0142 56.0877 54.0537 54.3703 55.0514 54.0448C54.8134 53.8289 52.5629 52.9472 52.1594 52.883C51.8375 53.3068 51.3097 53.5525 50.8353 53.8288C49.0688 54.8569 46.6207 54.9016 44.4029 54.2342C43.72 54.0286 42.7143 53.8724 42.3219 53.3692C42.45 52.9419 43.1087 52.6269 43.4569 52.3963C44.936 51.4175 47.014 51.0562 49.4839 51.0449V51.0179C49.3577 50.8828 49.2314 50.7476 49.1054 50.6125C48.6639 50.2522 48.2226 49.8919 47.7812 49.5314C47.3577 49.7208 46.9344 49.9099 46.5109 50.0991C45.6799 50.4053 44.8796 50.5251 43.8623 50.6668C41.9447 50.9332 39.8577 48.9271 39.0787 47.9369C38.7452 47.513 38.1933 47.0008 38.1058 46.3693C40.8318 45.5424 43.3363 46.5733 45.4568 47.1532V47.1261C45.0499 46.4667 44.2164 45.3109 43.6191 44.856C42.6508 45.1315 41.303 44.8195 40.5651 44.6128C38.2042 43.951 36.6573 42.4392 35.5111 40.5588C35.2522 40.1336 34.9108 39.6287 34.8084 39.0722C37.7761 38.8976 39.4059 39.8941 41.1596 40.9642C41.0021 40.546 40.4514 39.2557 40.1328 39.0722C39.7814 38.9643 39.4299 38.8562 39.0787 38.7481C38.4376 38.4948 37.774 38.1376 37.2408 37.7481C36.0069 36.8463 34.9907 35.591 34.403 34.0453C34.1778 33.2256 33.9524 32.4056 33.7274 31.586C33.5382 31.1085 33.3489 30.6311 33.1598 30.1536C35.2619 30.1198 36.4622 31.1982 37.4841 32.2618C37.7004 32.5049 37.9164 32.7481 38.1327 32.9914C38.1472 32.0685 37.9912 31.0498 37.9435 30.1265ZM91.1887 0.000976562H91.0997C90.0633 1.88921 88.6235 3.95696 89.3749 7.07301C89.615 8.06802 90.0837 8.82331 90.402 9.72167C90.3928 9.74853 90.3838 9.77561 90.3751 9.80248C88.9735 9.05633 88.3834 7.61549 87.1319 6.72156C85.168 5.31904 82.2579 5.1011 78.9426 5.23515C79.1135 5.93957 79.8312 6.55621 80.2401 7.07301C81.467 8.62347 83.0668 9.8761 85.294 10.4241C86.0078 10.5999 87.0463 10.6324 87.7804 10.4512C88.0777 10.3341 88.3749 10.2171 88.6722 10.1C88.9156 10.1585 90.5385 11.5757 90.7534 11.8295V11.8568C90.7093 11.9164 90.708 11.9468 90.6453 11.9918C89.8255 11.8926 89.0056 11.7936 88.1858 11.6945C86.3664 11.4031 84.1417 11.7744 83.0237 12.4511C82.6258 12.6922 82.3958 13.0293 82.0779 13.3432V13.424C83.9181 14.0792 87.8893 14.8318 90.3751 14.424C91.269 14.2774 92.0499 14.0026 92.8344 13.8565C93.2947 14.2003 94.7922 15.9798 95.0235 16.5053C95.0416 16.5231 95.0595 16.5412 95.0776 16.5593C94.627 16.4601 94.1766 16.361 93.7262 16.2618C92.3003 15.861 87.4185 14.6194 87.1588 16.8295C87.9517 17.0818 88.7445 17.3339 89.5372 17.5863C91.171 18.2221 92.5928 18.728 94.6452 18.9917C95.2523 19.0697 95.8911 18.8384 96.4019 18.7755C97.281 19.5924 98.3468 21.8627 98.6452 23.2888C96.1401 21.8608 93.7912 18.6702 89.7535 20.1808V20.2888C90.2071 20.4371 90.5757 20.7495 90.9426 20.9916C92.5418 22.0469 93.6385 23.6365 95.2128 24.6671C95.8213 25.0657 96.5613 25.2549 97.429 25.3971C97.997 25.49 98.6791 25.1609 99.1045 25.3427C99.3993 25.5392 99.3982 26.2052 99.4829 26.6131C99.7494 27.897 99.8086 29.5772 99.5639 30.8563C98.9562 30.5901 98.2101 29.0785 97.8344 28.478C96.6578 26.5976 95.2425 24.8035 92.1588 24.8294C92.5731 25.46 92.9877 26.0906 93.402 26.7212C94.3093 28.0846 95.0091 29.7861 96.2938 30.7752C96.8983 31.2407 97.6368 31.6501 98.3477 31.9914C98.6345 32.1289 99.1318 32.2235 99.2666 32.5049C99.5977 33.1954 98.6395 35.1482 98.51 35.8021C98.4919 35.8113 98.474 35.8202 98.4558 35.8292C98.2915 35.292 97.9648 34.7999 97.6992 34.3428C96.6262 32.4962 95.6125 30.2081 93.1587 29.7751C93.429 30.5771 93.6991 31.379 93.9695 32.1806C94.4266 33.9843 94.6961 35.9409 95.3478 37.5858C95.9695 39.1548 97.0057 40.2709 95.6722 41.775V41.829C95.573 41.0721 95.4741 40.3153 95.3749 39.5589C94.8343 37.385 93.9949 35.4957 92.0236 34.7482H91.9426C91.9452 37.7153 92.4644 40.2604 93.3208 42.3423C93.5443 42.8854 93.7258 43.5109 94.0777 43.9371C93.9663 44.6475 92.9629 45.7003 92.4561 46.0722C92.4625 44.8327 92.5375 43.5723 92.2667 42.4775C91.9965 41.5769 91.7263 40.6757 91.4559 39.7749C91.2938 39.3247 91.1317 38.8741 90.9697 38.4237H90.8613C90.4243 39.2675 89.9744 40.0928 89.7264 41.1534C89.2939 43.0021 89.5456 46.8363 89.8884 48.6125C89.3069 49.4271 88.4474 50.2126 87.5102 50.6668C87.6452 50.3693 87.7804 50.0718 87.9156 49.7747C88.1719 49.1436 88.3618 48.4335 88.5102 47.7207C88.8829 45.9299 88.4188 44.0448 88.2939 42.4775C88.285 42.4685 88.276 42.4596 88.2668 42.4507C87.788 42.6011 87.0209 43.8739 86.7265 44.3154C85.3373 46.3977 84.4636 48.6577 84.5372 52.2071C83.9108 52.8354 82.6219 52.8078 81.4563 52.7478C82.0666 52.0439 82.8149 51.6128 83.2129 50.6668C83.6989 49.5112 83.824 48.0837 84.0778 46.6938C84.1408 46.0451 84.2039 45.3964 84.267 44.7479V44.5585C83.5153 44.7221 82.7834 45.3704 82.2129 45.7747C80.5224 46.9729 77.895 49.7108 78.5372 52.9638C76.4747 53.2635 75.0149 54.8032 74.1861 56.3693C74.028 56.6679 73.2861 58.0704 73.8078 58.4773C74.3795 58.9232 74.857 57.939 74.9969 57.6124C75.5587 56.3002 76.8193 54.3934 78.5914 54.3694C79.0959 54.9203 79.5141 55.6382 80.1049 56.0991C81.3946 57.1051 83.6751 58.0166 86.1859 57.5584C86.8098 57.4445 87.4206 57.3044 87.9427 57.1261C87.9696 57.0718 87.9966 57.0178 88.0236 56.9639C87.2034 55.4305 85.1663 55.0583 83.8074 54.0448H83.7535C84.7084 53.6575 85.6636 53.2702 86.6182 52.883C87.2675 53.3789 87.9223 53.9152 88.7264 54.2613C90.3103 54.9425 92.7857 54.7147 94.402 54.2342C94.9151 54.0816 96.3792 53.7382 96.483 53.2884C94.8009 51.7636 92.6011 51.0062 89.321 51.0449V51.0179C89.7716 50.4202 90.5293 50.105 90.9965 49.5314C91.429 49.7208 91.8613 49.9099 92.2938 50.0991C93.1238 50.4042 93.9251 50.5306 94.9424 50.6668C96.8724 50.9246 98.9383 48.9357 99.7262 47.9369C100.059 47.5145 100.613 46.9997 100.699 46.3693C98.1698 45.6204 95.312 46.4221 93.375 47.1532H93.3479C93.7079 46.2974 94.6415 45.8056 95.0235 44.991C95.3663 44.7587 96.1476 45.0049 96.7532 44.9099C97.3207 44.802 97.8883 44.6937 98.4558 44.5858C100.595 43.9317 103.566 41.3411 103.996 39.0722C100.983 38.9444 99.4581 39.9042 97.6452 40.9642C97.9343 40.2726 98.293 39.7044 98.6181 39.0722C101.11 38.5047 103.23 36.7971 104.159 34.667C104.549 33.7721 104.718 32.7614 105.023 31.7752C105.231 31.2348 105.438 30.6942 105.645 30.1536C103.539 30.1487 102.39 31.1699 101.348 32.2346C101.123 32.4868 100.897 32.7392 100.672 32.9914C100.662 32.0681 100.824 31.0506 100.861 30.1265C103.76 30.0699 104.944 27.6922 104.375 24.478C104.222 23.6582 104.068 22.8385 103.915 22.0187C103.879 22.0096 103.843 22.0006 103.807 21.9916C102.964 22.6251 102.122 23.561 101.51 24.424C101.24 24.8292 100.969 25.2348 100.699 25.6402C100.69 25.6581 100.681 25.6761 100.672 25.6942C100.508 25.1799 100.275 24.5628 100.24 23.9644C100.883 23.1714 101.698 22.8708 102.078 21.6943C102.568 20.174 102.026 17.7442 101.78 16.2079C101.642 15.3473 101.868 14.5134 101.942 13.8025C99.5336 14.0825 99.6072 18.1615 99.0506 20.424C99.0144 20.451 98.9785 20.4781 98.9423 20.505C98.5436 19.8912 97.7121 18.6946 97.51 17.9916C97.9944 16.5071 98.9745 14.857 98.6181 12.7484C98.223 10.4121 97.2833 8.58763 96.7532 6.37011C96.1445 6.55778 95.9209 7.55695 95.7262 8.18088C95.0301 10.4154 95.4335 12.8943 95.6722 15.2348C95.2143 14.8929 93.8544 13.3205 93.6181 12.8026C93.4467 12.6433 93.6585 11.9294 93.7262 11.5864C93.9154 10.6274 94.1196 9.30746 93.9154 8.18088C93.6538 6.73778 92.9987 5.90617 92.5371 4.72165C91.9547 3.22735 91.6882 1.58549 91.1887 0.000976562ZM68.5105 22.0456V42.1534C66.0693 42.1442 63.6276 42.135 61.1864 42.1261C59.6512 42.1263 57.9941 42.2209 56.9162 41.775C54.8224 40.9087 52.9874 37.766 53.9702 34.667C54.4368 33.1958 55.371 32.3507 56.4026 31.451V31.4238C55.9934 31.2789 55.654 30.9005 55.4027 30.5859C53.9025 28.7086 53.7082 25.9628 55.3756 24.0726C57.8065 21.317 63.6361 21.9952 68.5105 22.0456ZM70.2942 42.1534V22.0456C74.2851 21.9874 79.4561 21.4132 82.159 23.0455C83.8065 24.0407 85.3714 26.3852 84.348 29.0726C83.9306 30.1689 83.2434 30.7835 82.4021 31.451C82.4202 31.4598 82.4381 31.4687 82.4562 31.4779C83.1841 32.2554 84.0412 32.803 84.5103 33.8562C84.7593 34.4158 84.9264 35.0285 85.0507 35.7211C85.2571 36.8704 84.8709 38.0713 84.5643 38.8562C83.9547 40.4162 82.9777 41.4587 81.3211 41.9642C80.2948 42.2769 78.705 42.1263 77.4293 42.1261C75.0511 42.135 72.6724 42.1442 70.2942 42.1534ZM62.0782 24.5863C61.5739 24.6403 61.0691 24.6942 60.5647 24.7482C59.2124 25.067 57.4506 26.084 57.8351 27.9643C58.4395 30.922 62.7025 30.3735 65.4025 29.7211V24.9105C64.3634 24.7627 63.3143 24.5924 62.0782 24.5863ZM76.024 24.5863C75.7357 24.604 75.4471 24.6222 75.159 24.6403C74.5734 24.7301 73.9878 24.8203 73.4024 24.9105V28.451C73.4024 28.7602 73.2929 29.5341 73.4563 29.7211C73.9823 29.9936 74.6958 29.9743 75.3482 30.0996C77.7346 30.5569 80.3247 30.1221 80.8888 28.2889C81.0766 27.6779 80.9326 26.9842 80.7265 26.505C80.0631 24.9627 78.2405 24.5703 76.024 24.5863ZM61.9162 32.9643C61.5378 32.9914 61.1593 33.0183 60.781 33.0454C59.4403 33.3072 58.3713 33.6916 57.7809 34.694C57.571 35.0506 57.3913 35.7283 57.4567 36.2346C57.9451 40.0194 62.0063 39.314 65.4025 38.7752V33.2618C64.312 33.1186 63.2111 32.9701 61.9162 32.9643ZM76.024 32.9643C75.7986 32.9735 75.5733 32.9824 75.3482 32.9914C74.6995 33.0814 74.0509 33.1716 73.4024 33.2618V38.7752C76.0259 39.1798 79.7178 39.8075 80.9967 37.6668C81.2985 37.1619 81.4548 36.3061 81.294 35.5859C80.7988 33.3659 78.7424 32.9479 76.024 32.9643ZM114.375 64.0717C115.871 64.0511 116.984 64.2265 118.023 64.6395C118.575 64.8587 119.103 65.3124 119.78 65.3421C120.017 65.221 120.142 65.0061 120.32 64.8284H120.672C120.98 65.2406 121.405 68.731 121.104 69.1528H120.753C120.399 68.9754 119.891 67.6731 119.618 67.288C118.943 66.3361 117.974 65.5528 116.807 65.0988C115.62 64.6371 114.123 64.8838 113.185 65.3689C111.186 66.4036 109.316 69.6058 110.05 72.9635C110.548 75.2428 111.743 76.946 113.726 77.747C114.519 78.0676 115.852 78.2474 116.753 77.8822C118.039 77.3605 119.005 76.4126 118.672 74.423C118.574 73.8382 118.577 73.3448 118.293 72.9635C117.763 72.2486 116.771 72.7232 116.131 72.2877C116.14 72.1527 116.149 72.0175 116.158 71.8823C116.333 71.5529 117.322 71.6932 117.807 71.6932C119.482 71.6841 121.158 71.6752 122.834 71.6662C122.87 71.7204 122.906 71.7743 122.942 71.8283C122.986 71.9772 122.951 72.1308 122.915 72.2608C122.333 72.6258 121.339 72.4195 121.077 73.0985C120.761 73.919 121.253 76.2479 120.861 76.8823C120.606 77.295 119.82 77.5205 119.374 77.747C117.695 78.6015 114.984 79.349 112.564 78.6121C109.449 77.6638 106.158 74.3628 107.429 69.7473C107.633 69.006 107.899 68.3086 108.266 67.7203C109.186 66.2481 110.548 65.2063 112.266 64.5313C112.744 64.405 113.222 64.279 113.699 64.1527C113.924 64.1258 114.149 64.0988 114.375 64.0717ZM19.2953 64.0988C19.5788 64.0892 19.9117 64.079 20.079 64.18C20.4212 64.9544 20.7636 65.7295 21.106 66.5041C21.7816 68.2878 22.4574 70.0717 23.133 71.8554C23.662 73.2238 24.0956 74.6059 24.6465 75.9094C24.8742 76.4483 25.0405 77.0175 25.3763 77.45C25.8288 78.0325 26.7235 77.8613 27.187 78.3148C27.1779 78.4318 27.1689 78.5489 27.1599 78.6662C27.142 78.702 27.1239 78.7381 27.1058 78.7743C26.7323 78.8435 26.2735 78.7743 25.9167 78.7201H22.3222C21.7858 78.8004 21.058 78.8269 20.7546 78.6121C20.7456 78.5941 20.7366 78.576 20.7277 78.5579C20.722 78.3122 20.7685 78.2777 20.8627 78.1527C21.4037 78.0594 22.1981 78.0447 22.4572 77.666C22.6866 77.3312 22.523 76.7787 22.4033 76.3958C22.0429 75.3419 21.6827 74.2878 21.3223 73.2337C20.0881 73.2518 18.8535 73.2697 17.6195 73.2876C17.3197 73.3331 16.7197 73.174 16.5655 73.3689C16.1968 73.9949 15.1883 76.8281 15.7007 77.5039C16.0796 78.0037 16.9984 77.8923 17.5115 78.2608C17.5227 78.5651 17.467 78.6223 17.3493 78.7743C16.2953 78.747 15.2412 78.7201 14.1871 78.6931C13.5735 78.6931 12.9164 78.8076 12.4033 78.6931C12.3585 78.6391 12.3134 78.5851 12.2684 78.531C12.2773 78.4409 12.2862 78.3507 12.2953 78.2608C12.4482 77.9648 13.0683 77.9965 13.3493 77.8283C13.8635 77.5207 14.2372 76.966 14.4845 76.3958C15.8262 73.3025 16.8016 69.901 18.1061 66.8283C18.4979 65.9052 18.8048 64.9382 19.2953 64.0988ZM78.1589 64.0988C79.5013 64.089 80.5204 64.2138 81.4563 64.5854C81.8885 64.7925 82.321 64.9998 82.7535 65.2069C82.8887 65.0719 83.0237 64.9367 83.1589 64.8015C83.2411 64.6009 83.3761 64.4615 83.5103 64.315H83.9157C83.9608 64.3782 84.0057 64.4411 84.0509 64.5043C84.2109 64.8327 84.0957 65.3579 84.1589 65.7744C84.2912 66.6483 84.4817 68.1816 84.3211 69.0715C84.2759 69.1166 84.231 69.1617 84.1859 69.2068C84.0868 69.1977 83.9876 69.1887 83.8887 69.1796C83.5189 68.9956 83.4001 68.3852 83.2129 68.0177C82.8744 67.3529 82.3945 66.5775 81.8346 66.1258C81.3603 65.7431 80.8746 65.3449 80.2672 65.0988C77.5447 63.9958 75.6443 66.3642 74.9428 68.1528C73.5622 71.6733 74.8535 75.4233 77.0779 77.0445C77.8652 77.6181 79.1415 78.2636 80.5374 77.8822C81.7229 77.5585 82.7054 76.7846 83.3481 75.9094C83.6244 75.533 83.7885 75.0027 84.1589 74.7203C84.2849 74.7293 84.4111 74.7382 84.5372 74.7473C84.5912 74.7922 84.6453 74.8372 84.6994 74.8824C84.7103 75.9031 83.952 76.5488 83.4291 77.0714C82.1687 78.3317 80.4524 78.9545 78.7084 78.9455C77.1695 78.9376 75.6091 78.4377 74.3211 77.45C71.444 75.243 70.813 69.9955 73.2401 66.7743C74.0366 65.7173 75.2759 64.8397 76.6725 64.3963C77.1679 64.2971 77.6635 64.1979 78.1589 64.0988ZM99.8614 64.0988C100.112 64.0914 100.452 64.074 100.618 64.1527C100.996 65.0084 101.375 65.8646 101.753 66.7204C102.402 68.4407 103.05 70.1619 103.699 71.8823C104.21 73.2045 104.639 74.5349 105.158 75.8012C105.388 76.3619 105.568 76.9723 105.915 77.4228C106.383 78.0302 107.271 77.8493 107.753 78.3148C107.764 78.5899 107.721 78.6628 107.618 78.8014C106.321 78.8046 104.976 78.6931 103.564 78.6931C102.828 78.6931 102.027 78.8517 101.402 78.7201C101.366 78.6751 101.33 78.6299 101.294 78.5851C101.303 78.4859 101.312 78.3868 101.321 78.2876C101.339 78.2518 101.357 78.2155 101.375 78.1797C101.887 78.0539 102.718 78.0598 102.996 77.6931C103.238 77.3748 103.084 76.788 102.969 76.4229C102.609 75.36 102.249 74.2965 101.888 73.2337C100.303 73.2518 98.7171 73.2697 97.1315 73.2876C96.957 74.1739 95.5921 76.6035 96.2397 77.4768C96.6338 78.0081 97.6174 77.8323 98.0775 78.2876C98.0874 78.5815 98.0295 78.6271 97.9154 78.7743C96.8705 78.747 95.8253 78.7201 94.7803 78.6931C94.1453 78.6931 93.4778 78.8062 92.9425 78.6931C92.9064 78.648 92.8704 78.6029 92.8344 78.5579C92.8249 78.292 92.8691 78.2325 92.9696 78.0985C95.0475 77.6132 95.2071 75.8735 95.9153 74.0715C96.8856 71.6031 97.7402 69.0033 98.7531 66.6122C99.1133 65.7623 99.3997 64.8612 99.8614 64.0988ZM129.807 64.0988C130.057 64.0914 130.397 64.074 130.563 64.1527C130.915 64.9454 131.266 65.7385 131.618 66.5312C132.293 68.3147 132.969 70.0988 133.645 71.8823C134.156 73.2047 134.584 74.5356 135.104 75.8012C135.335 76.3645 135.512 76.9704 135.861 77.4228C136.329 78.0302 137.216 77.8493 137.698 78.3148C137.709 78.5899 137.667 78.6628 137.563 78.8014C136.265 78.8046 134.922 78.6931 133.509 78.6931C132.773 78.6931 131.973 78.8517 131.347 78.7201C131.311 78.6751 131.275 78.6299 131.239 78.5851C131.248 78.4859 131.257 78.3868 131.266 78.2876C131.284 78.2518 131.302 78.2155 131.32 78.1797C131.831 78.0541 132.664 78.059 132.942 77.6931C133.198 77.3554 133.014 76.7147 132.888 76.3419C132.536 75.3059 132.185 74.2697 131.834 73.2337C130.248 73.2518 128.662 73.2697 127.077 73.2876C126.903 74.1728 125.535 76.6029 126.185 77.4768C126.6 78.0342 127.58 77.8493 128.023 78.2876C128.033 78.5815 127.975 78.6271 127.861 78.7743C126.816 78.747 125.771 78.7201 124.726 78.6931C124.091 78.6931 123.423 78.8062 122.888 78.6931C122.852 78.648 122.816 78.6029 122.78 78.5579C122.77 78.292 122.814 78.2325 122.915 78.0985C124.992 77.6128 125.153 75.8734 125.861 74.0715C126.831 71.6029 127.686 69.0021 128.699 66.6122C129.059 65.7618 129.345 64.861 129.807 64.0988ZM6.26841 64.18C7.11137 64.1684 8.02595 64.1251 8.72777 64.2879C10.3809 64.672 12.077 65.7997 11.6467 68.1257C11.5795 68.4886 11.462 68.871 11.2953 69.1528C10.9119 69.8007 10.2607 70.3049 9.56559 70.6391C9.31344 70.7473 9.06112 70.8554 8.80896 70.9636C10.6464 71.2751 12.9712 73.1619 12.2144 75.6932C12.0121 76.3695 11.6333 76.8817 11.2413 77.3689C9.81775 79.137 7.25612 78.6931 4.34963 78.6931C3.34306 78.6931 0.766778 78.9387 0.241436 78.5579C0.24049 78.5338 0.239967 78.5098 0.239868 78.4857V78.4746C0.240841 78.2661 0.284462 78.1949 0.376622 78.0714C0.891911 78.0197 1.64065 77.896 1.89005 77.5579C2.41907 76.8407 2.15313 75.6314 2.32259 74.5311C2.33156 73.5851 2.34048 72.6391 2.34967 71.6932C2.57793 70.2067 2.5161 66.5606 2.02524 65.5313C1.80811 65.0757 0.98445 65.1092 0.592889 64.8284C0.592294 64.0416 1.38855 64.2879 2.10621 64.2879C3.08371 64.2882 4.1211 64.3732 5.05216 64.234C5.45761 64.2159 5.86301 64.1979 6.26841 64.18ZM28.7274 64.2611C29.9707 64.3061 31.214 64.3511 32.4572 64.3963H35.3759C35.4211 64.4502 35.4661 64.5043 35.5111 64.5584C35.5019 64.6665 35.4932 64.7744 35.4842 64.8826C35.4394 64.9813 35.4196 64.9991 35.3219 65.0448C34.4278 65.2657 33.7446 65.1731 33.322 65.8283C32.9475 66.4093 33.2066 67.3435 33.0787 68.2068C33.0608 69.3328 33.0426 70.459 33.0247 71.5852V74.5038C33.1685 75.447 32.8468 76.5687 33.241 77.2337C33.6691 77.9562 34.863 78.0043 35.9705 77.8283C37.832 77.5325 38.8169 76.5631 39.7003 75.3147C39.9858 74.9112 40.1481 74.2369 40.5382 73.9365C40.7806 73.9266 40.8729 73.9571 40.9976 74.0445C41.1103 74.8265 40.5801 78.2161 40.2949 78.747C37.4304 78.7293 34.5649 78.7112 31.7004 78.6931C30.6833 78.6933 29.0581 79.0777 28.3491 78.5851C28.3609 77.8733 29.0674 78.1242 29.5924 77.9635C30.0859 77.8123 30.3856 77.454 30.5653 76.9904C30.8601 76.2293 30.6388 75.2487 30.7815 74.2878C30.7905 72.4862 30.7994 70.684 30.8086 68.8826C30.8086 67.7758 30.8322 66.5545 30.4032 65.8556C29.9272 65.0801 29.1292 65.2899 28.4572 64.8015C28.4662 64.6844 28.4753 64.5673 28.4843 64.4502C28.5478 64.3202 28.6057 64.3286 28.7274 64.2611ZM85.8074 64.2611C87.1929 64.2517 88.4768 64.2834 89.8345 64.2611C90.4743 64.2504 91.2797 64.1856 91.6453 64.4502C91.6546 64.7161 91.6106 64.7755 91.5101 64.9096C90.876 65.0564 90.2372 65.1323 89.9426 65.6123C89.5624 66.2317 89.7784 67.2554 89.6451 68.1257C89.497 69.0946 89.4617 71.2692 89.6182 72.2608C89.6451 73.1075 89.6722 73.9546 89.6993 74.8014C89.8309 75.6347 89.6347 76.5555 89.9155 77.2337C90.2698 78.0889 91.1131 77.6908 91.6453 78.2066C91.6363 78.3148 91.6272 78.4228 91.6182 78.531C91.5738 78.6297 91.5535 78.6475 91.4559 78.6931H87.3481C86.7587 78.6933 86.1662 78.7913 85.8074 78.531C85.8165 78.4139 85.8255 78.2966 85.8344 78.1797C85.879 78.0807 85.8991 78.063 85.9967 78.0174C86.4769 77.8342 86.9748 77.9942 87.2129 77.5852C87.5941 76.9303 87.2932 75.8011 87.429 74.9094V70.666C87.42 70.0625 87.4112 69.4588 87.4021 68.8553C87.2211 67.7003 87.519 66.4733 87.1048 65.5852C86.8615 65.0637 86.085 65.0949 85.6453 64.7744C85.6545 64.6575 85.6634 64.54 85.6722 64.4232C85.7174 64.3692 85.7623 64.315 85.8074 64.2611ZM45.8082 70.8554C46.9731 70.8651 48.3352 70.9605 48.8892 70.2879C49.2957 69.7942 49.4336 69.0695 49.8083 68.5312C50.0577 68.5207 50.1662 68.5494 50.2947 68.6393C50.4242 69.3465 50.3184 70.3476 50.2137 71.0714C50.2227 72.0893 50.2316 73.1077 50.2405 74.1255C50.1866 74.1797 50.1324 74.2336 50.0785 74.2878C49.9883 74.2788 49.8981 74.2697 49.8083 74.2607C49.4492 74.0732 49.4423 73.2049 49.2406 72.8554C48.7957 72.0842 48.1931 71.9258 47.1325 71.7473C46.8782 71.7046 46.0523 71.5305 45.8353 71.7204C45.8264 72.5579 45.8172 73.3959 45.8082 74.2336C45.9529 75.1951 45.6862 76.2286 45.9974 76.9904C46.5448 78.3298 49.281 78.289 50.8353 77.8283C51.8711 77.5213 52.7897 76.9931 53.3485 76.2067C53.63 75.811 53.7778 75.1526 54.1594 74.8553C54.2677 74.8642 54.3756 74.8734 54.4837 74.8824C54.52 74.9002 54.5558 74.9184 54.5919 74.9366C54.7143 75.5437 54.0497 78.4362 53.8081 78.8553C51.538 78.8283 49.2675 78.8014 46.9975 78.7743C46.2318 78.747 45.4658 78.7201 44.7002 78.6931C43.7909 78.5538 41.9882 78.9337 41.3759 78.531V78.4768V78.1797C41.4388 78.1256 41.5019 78.0714 41.565 78.0174C42.242 77.8474 42.8911 77.9772 43.2406 77.5039C43.6778 76.9117 43.6462 75.6542 43.646 74.6661V71.45C43.7789 70.5927 43.7526 69.3324 43.6191 68.5042C43.4813 67.6492 43.7844 66.4797 43.43 65.8014C43.1369 65.2408 42.2313 65.2341 41.7003 64.9096C41.64 64.6978 41.653 64.561 41.7542 64.3963C42.4611 64.2247 43.569 64.341 44.2948 64.4502C46.2045 64.4682 48.1148 64.486 50.0245 64.5043C50.7015 64.5043 52.7904 64.356 53.2407 64.5584C53.3791 65.1725 54.0669 67.6953 53.754 68.2339C53.736 68.2428 53.7181 68.2518 53.7 68.2608C53.619 68.2518 53.5377 68.2428 53.4569 68.2339C53.2029 68.1073 53.1276 67.8094 52.9702 67.5851C52.6055 67.0653 52.173 66.4851 51.673 66.0987C50.274 65.0179 48.1903 65.1472 45.9705 65.3689C45.7466 67.0367 45.8107 68.9861 45.8082 70.8554ZM55.2945 64.4232C56.4837 64.4322 57.673 64.4411 58.8621 64.4502C59.6007 65.3508 60.3396 66.2521 61.0782 67.1529C63.2311 69.639 65.3846 72.126 67.5374 74.6121V74.5582C67.5645 73.7834 67.5916 73.0084 67.6185 72.2337C67.6185 70.3531 67.9588 67.0629 67.1051 65.9635C66.842 65.6249 66.3504 65.3673 65.8618 65.261C65.5674 65.1968 64.9723 65.3131 64.8619 65.0719C64.5516 64.393 65.7737 64.508 66.1862 64.5043C67.2762 64.486 68.3663 64.4682 69.4563 64.4502C69.9252 64.4502 70.5062 64.4102 70.8888 64.5043C70.925 64.5492 70.9608 64.5944 70.9969 64.6395C70.9879 64.7384 70.9789 64.8375 70.97 64.9367C70.9254 65.0353 70.9053 65.0532 70.8077 65.0988C69.9104 65.5011 69.2646 65.1558 68.7807 66.0987C68.3461 66.9462 68.4832 68.6287 68.4834 69.8284C68.4565 71.8281 68.4292 73.8284 68.4024 75.8284C68.2578 76.7257 68.5033 77.7173 68.3214 78.531C68.2674 78.5851 68.213 78.6391 68.159 78.6931C67.4402 78.6797 65.9423 76.5595 65.5106 76.0175C63.7769 73.8416 61.7695 71.8298 60.0242 69.6663C59.6144 69.1581 59.1348 68.4354 58.6729 67.9905V70.369C58.6729 72.1202 58.6548 73.9035 58.9161 75.4499C59.019 76.0591 58.9717 76.7385 59.2675 77.1527C59.5148 77.4989 60.0001 77.8354 60.4837 77.9362C60.968 78.0376 61.2854 77.936 61.5647 78.2066C61.5727 78.4888 61.5131 78.5239 61.4026 78.6662C59.9704 78.6751 58.5375 78.6841 57.1053 78.6931C56.5063 78.6931 55.706 78.7779 55.3485 78.531C55.3567 77.7373 56.0134 78.0588 56.6189 77.9093C57.1128 77.7873 57.4714 77.5416 57.6459 77.0985C57.98 76.249 57.98 73.6226 57.808 72.477C57.79 71.5222 57.7719 70.5671 57.754 69.6121C57.6179 68.7059 57.7777 67.838 57.4838 67.1529C57.1774 66.4384 56.6059 65.6277 55.9162 65.2879C55.6313 65.1476 55.2385 65.1289 54.9973 64.9636C54.9801 64.5778 55.0585 64.5483 55.2945 64.4232ZM5.9982 64.9096C5.55669 65.0086 5.11513 65.1077 4.67379 65.2069C4.64682 66.5039 4.61979 67.8016 4.59282 69.0988C4.59282 69.6291 4.54849 70.2767 4.64682 70.7204C5.15832 70.9117 6.06209 70.7534 6.56576 70.6391C8.29448 70.2469 9.09371 69.7237 9.37641 67.8556C9.46506 67.2709 9.25873 66.5642 9.02517 66.1797C8.48977 65.2988 7.44136 64.8911 5.9982 64.9096ZM18.9439 67.0176C18.6915 67.6031 18.4394 68.1888 18.1871 68.7745C17.7547 69.9544 17.3223 71.1348 16.8899 72.3149H20.9979C20.8015 71.2325 20.0359 69.7565 19.6194 68.7474C19.3944 68.1707 19.169 67.5941 18.9439 67.0176ZM99.5099 67.0447C98.7556 68.6833 97.9448 70.4838 97.4559 72.3149H101.564V72.2877C100.879 70.5402 100.195 68.7922 99.5099 67.0447ZM129.455 67.0447C128.701 68.6842 127.891 70.4807 127.401 72.3149H131.509V72.2877C130.825 70.5402 130.14 68.7922 129.455 67.0447ZM5.34962 71.5312C5.15708 71.5991 4.78427 71.5133 4.64682 71.6392C4.42487 72.0705 4.51239 72.9608 4.51163 73.558C4.51028 74.8608 4.27455 76.4815 4.56579 77.666C5.08681 77.9467 5.60523 77.9043 6.37657 78.0174C8.92912 78.391 10.5009 76.0288 9.75478 73.5851C9.23674 71.8886 7.60039 71.512 5.34962 71.5312Z" fill="#231F20"/>
</g>
<defs>
<clipPath id="clip0_5037_5166">
<rect width="137.949" height="79.348" fill="white"/>
</clipPath>
</defs>
</svg>
