<svg width="109" height="43" viewBox="0 0 109 43" fill="none" xmlns="http://www.w3.org/2000/svg">
<path d="M90.9237 26.1968C90.8941 25.9858 90.8941 25.8064 91.9132 25.5068C92.9323 25.2072 95.365 24.3675 96.8652 23.5256C98.3654 22.6837 98.6059 22.5656 98.9667 22.8061C99.3275 23.0466 99.2072 23.5868 99.2072 24.0067V28.0577C99.7474 27.1568 101.547 24.186 102.959 23.3167C104.068 22.6268 104.459 22.5656 105.149 22.5656C105.989 22.536 107.94 23.0762 108.029 25.146C108.088 26.7664 106.889 27.4268 106.138 27.3066C105.539 27.2159 105.088 26.6462 104.729 26.106C104.368 25.5364 103.798 25.2051 103.199 25.3865C102.63 25.5975 99.3887 27.6969 99.1777 30.6972C99.0574 32.8873 99.1777 39.7593 99.1777 39.7593C99.1777 40.8101 99.568 41.2004 100.047 41.4705C100.496 41.7405 102.208 41.7701 102.689 41.8313C103.17 41.8904 103.17 42.0106 103.17 42.1604C103.17 42.3102 103.17 42.3714 102.75 42.3714H91.3478C90.987 42.3714 90.8372 42.3123 90.8372 42.0718C90.8372 41.7722 91.3182 41.8313 91.6769 41.7722C92.0377 41.7131 93.9577 41.8925 94.5274 40.9029C94.9473 40.272 94.8882 39.2529 94.8882 39.2529L94.8291 27.1905C94.8291 26.2305 94.5295 26.0807 94.2594 25.9309C93.9894 25.7811 93.54 25.6904 92.6095 26.0216C91.7043 26.317 91.0735 26.5871 90.9237 26.1968Z" fill="#231F20"/>
<path d="M51.0148 26.2259C50.865 25.9263 51.1351 25.7449 52.0044 25.5064C52.9349 25.2659 55.0047 24.6371 56.6546 23.7067C58.3046 22.7762 58.5747 22.6855 58.9355 22.8057C59.2963 22.926 59.2646 23.5252 59.2646 24.0358V39.6703C59.2646 40.5396 59.3849 40.9004 59.7752 41.2908C60.1656 41.6516 61.1551 41.8604 62.4464 41.8604C63.0161 41.8604 63.1975 41.9195 63.1975 42.1896C63.1975 42.4301 63.0182 42.4301 62.7776 42.4301H51.4642C51.1034 42.4301 51.0444 42.2803 51.0444 42.1305C51.0444 41.9512 51.1942 41.8309 51.7343 41.8309C52.1837 41.8309 54.224 41.9807 54.7051 40.93C54.8844 40.5101 54.9751 39.9699 54.9751 39.4298V27.0361C54.9751 26.1056 54.2557 25.6858 53.4138 25.8968C52.3652 26.0466 51.1942 26.5867 51.0148 26.2259Z" fill="#231F20"/>
<path d="M56.7746 15.4266C58.3043 15.4266 59.566 14.167 59.566 12.6352C59.566 11.1055 58.3064 9.84375 56.7746 9.84375C55.2428 9.84375 53.9832 11.0738 53.9832 12.6352C53.9853 14.1649 55.2449 15.4266 56.7746 15.4266Z" fill="#231F20"/>
<path d="M70.3983 33.1281C70.9679 38.2004 73.9683 42.1312 77.7197 41.4708C81.4711 40.8104 83.3321 37.2404 82.8806 31.5077C82.4312 25.6864 79.549 22.7748 75.6499 23.1355C71.6579 23.4963 69.8286 28.058 70.3983 33.1281ZM74.0885 22.2367C78.9202 21.3358 85.7923 22.3865 87.3515 29.9485C88.9128 37.5104 83.7203 41.5319 79.1903 42.492C74.7785 43.452 67.3072 42.762 65.9273 34.6304C64.7268 27.3681 70.0079 22.9857 74.0885 22.2367Z" fill="#231F20"/>
<path d="M16.9556 41.1709H19.747C30.1594 41.1709 32.9509 40.2109 36.6116 35.3496C40.2702 30.4884 40.7217 23.4961 40.7217 21.1266C40.7217 18.7572 40.0908 12.8452 36.4301 7.83414C32.7694 2.82307 26.6485 1.5318 21.2767 1.5318H16.926C15.9048 1.5318 15.8457 1.98121 15.8457 2.70281V40.2721C15.8457 41.0506 16.1454 41.1709 16.9556 41.1709ZM0.000244141 42.0402C0.000244141 41.6498 0.481306 41.5908 0.960258 41.5908C6.27093 41.4409 7.26259 41.2616 7.86181 40.6307C8.19096 40.2699 8.67202 39.9999 8.67202 37.5397V3.7219C8.67202 0.692054 4.98177 1.17101 2.36968 0.900937C1.46875 0.81021 1.38013 0.689945 1.38013 0.419875C1.38013 0.149806 1.55948 0.0295389 2.04054 0H23.4056C46.9017 0 48.1022 17.1642 48.1022 21.7554C48.1022 31.5982 41.591 42.401 27.9968 42.401H0.690188C0.361041 42.4305 0.000244141 42.3714 0.000244141 42.0402Z" fill="#231F20"/>
</svg>
