<svg width="90" height="43" viewBox="0 0 90 43" fill="none" xmlns="http://www.w3.org/2000/svg">
<path fill-rule="evenodd" clip-rule="evenodd" d="M44.3562 42.6909C40.4485 42.6909 37.5061 39.6636 37.5061 35.6494C37.5061 31.5532 40.3845 28.5738 44.3541 28.5683H44.3562C48.2604 28.5683 51.3225 31.6791 51.3225 35.6494C51.3225 39.585 48.2855 42.6673 44.4014 42.6923H44.3597L44.3562 42.6909ZM20.21 29.5001C19.9963 28.9329 19.5906 28.6887 18.846 28.6768C18.7792 28.6748 15.3384 28.6803 15.3384 28.6803L10.2442 42.5489H12.7238C12.9368 42.565 13.1358 42.5309 13.3154 42.4515C13.7969 42.2309 14.0336 41.6721 14.1018 41.4807C14.1018 41.4876 14.7949 39.5529 14.8429 39.4277L19.9671 39.4263L21.011 42.5489H24.3654L22.2359 35.7984L20.2107 29.505L20.21 29.5001ZM32.265 31.6436C33.1071 31.5879 33.8142 31.6436 34.4823 31.8267C34.8407 31.945 35.1643 31.9658 35.4385 31.8893L35.7155 31.764C36.1038 31.5239 36.3815 30.3053 36.5123 29.6031L36.5429 29.4389L36.3968 29.3373C36.362 29.3095 36.2506 29.2329 34.991 28.894C33.8462 28.5857 32.8266 28.5481 32.3256 28.553H32.2699C29.3984 28.553 25.0725 30.4487 24.9486 35.6689V35.6968C25.0816 40.9267 29.4054 42.8231 32.2796 42.8231L32.3332 42.8245C32.8343 42.8266 33.8504 42.7863 34.9986 42.478C36.2513 42.1418 36.3627 42.0639 36.3975 42.0374L36.5367 41.94L36.5054 41.773C36.3745 41.0701 36.0968 39.8522 35.7085 39.6156V39.6135L35.4329 39.4931C35.1559 39.4165 34.8344 39.4423 34.4683 39.5627C33.803 39.7422 33.0973 39.7993 32.2455 39.7436C30.07 39.5314 28.7638 38.0504 28.6649 35.6849C28.7624 33.3417 30.0707 31.8615 32.256 31.6506L32.265 31.6436ZM44.4557 39.5982C42.4306 39.5982 40.8438 37.8486 40.8438 35.6132C40.8438 33.3974 42.3958 31.7299 44.4488 31.7299C46.4879 31.7299 47.9653 33.3612 47.9653 35.6132C47.9653 37.8855 46.4531 39.5975 44.4488 39.5975L44.4557 39.5982ZM19.173 36.5736H15.7212C16.0942 35.5541 17.0226 32.9743 17.4172 31.9303C17.7582 32.9833 19.1654 36.5388 19.1744 36.5722L19.173 36.5736ZM60.2987 34.4058L60.1679 34.3675C60.1707 34.3696 58.8769 33.9757 58.8734 33.9722L58.68 33.9026C57.6222 33.5213 56.8719 33.2011 56.8719 32.5859V32.5407C56.9763 31.519 58.8734 31.5079 58.8922 31.5079C59.9382 31.5079 60.742 31.668 61.7609 32.0786L61.7818 32.0855L61.8256 32.0995C62.0608 32.1482 62.2668 32.1551 62.4332 32.1203L62.7171 32.0159C63.1207 31.7932 63.5244 30.6143 63.6775 30.1174L63.7283 29.9574L63.603 29.8432C63.5543 29.7959 63.2571 29.5509 62.1784 29.1487C61.083 28.7381 59.5269 28.6734 59.5269 28.6734L58.7614 28.6699C54.7577 28.6699 53.2287 31.1405 53.18 32.7989C53.1452 34.4517 54.0889 35.3022 55.5114 36.0767C56.1064 36.4052 57.1935 36.708 57.982 36.9286C57.9778 36.9244 58.7962 37.1673 58.7962 37.1673C60.289 37.6377 60.859 38.1555 60.7518 38.9628C60.7058 39.2321 60.202 39.6726 59.0565 39.6726C58.1866 39.6726 57.3981 39.5404 56.5789 39.2551C56.185 39.0971 55.7786 38.8953 55.3471 38.6399L55.3263 38.626L55.2824 38.6079C55.0458 38.5195 54.8301 38.4826 54.6491 38.4965L54.3332 38.5661C53.8738 38.7373 53.2336 39.9044 52.9775 40.3978L52.8752 40.5927L53.0491 40.7319C53.0805 40.7527 53.7917 41.3192 54.3958 41.6714C55.1084 42.0681 55.906 42.3534 56.8504 42.5413C57.231 42.6109 57.8351 42.7014 58.7816 42.7014C61.8855 42.7014 64.1403 41.1299 64.3978 38.7902C64.5091 36.6676 63.2077 35.2827 60.2987 34.4128V34.4058ZM87.6295 42.5413C88.1654 42.5302 89.075 42.2142 89.075 41.1494L89.0653 39.4096L82.9549 39.4131C82.9549 39.4131 82.9619 37.4199 82.9619 37.0886H88.0053L87.9963 33.8825L82.9689 33.888V31.8969L87.6017 31.8921C87.727 31.8921 88.4194 31.8942 88.7938 31.5211C89.0555 31.2588 89.0673 30.7814 89.0673 30.5329V28.7026H79.4565V42.5559L87.6268 42.5448L87.6295 42.5413ZM66.9352 28.697C66.8057 28.6949 66.1279 28.7082 65.7396 29.068C65.5607 29.2322 65.4667 29.4521 65.4667 29.7013L65.4647 31.8949L69.6973 31.8914V42.5531L73.1631 42.551V31.89H75.8842C76.013 31.89 76.6887 31.8747 77.0791 31.5163C77.2559 31.3478 77.3526 31.1335 77.3526 30.8816V28.6956H66.9352V28.697ZM7.45 39.4145H3.55972L3.54719 29.9622C3.54719 29.569 3.43027 29.258 3.19365 29.0401C2.81089 28.6852 2.25414 28.688 2.04536 28.6922L0 28.6887L0.00556749 42.5483H8.6839L8.69086 40.3456C8.69086 40.0638 8.57046 39.4151 7.45209 39.4151L7.45 39.4145ZM29.6225 16.6156L28.603 16.0713C28.603 16.0713 29.5522 15.5543 29.7569 15.706C29.9587 15.8577 29.7708 16.7394 29.6246 16.6142L29.6225 16.6156ZM31.8913 16.4089L30.8697 15.8605C30.8697 15.8605 31.821 15.349 32.0249 15.4972C32.2295 15.6482 32.036 16.5383 31.8927 16.4089H31.8913ZM34.1433 16.0887L33.1203 15.5445C33.1203 15.5445 34.0737 15.0295 34.2804 15.1792C34.4823 15.3344 34.2874 16.2203 34.1482 16.0894L34.1433 16.0887ZM27.8034 15.8139L26.7803 15.271C26.7803 15.271 27.7338 14.7546 27.9356 14.9043C28.1374 15.0532 27.9425 15.9454 27.8034 15.8139ZM36.3843 15.3698L35.3612 14.8298C35.3612 14.8298 36.3147 14.3148 36.5165 14.4637C36.7253 14.6141 36.5304 15.4993 36.3898 15.3698H36.3843ZM44.7633 15.2794L43.7403 14.7282C43.7403 14.7282 44.6937 14.2181 44.8956 14.3698C45.1009 14.5173 44.9095 15.4053 44.7633 15.2787V15.2794ZM42.759 15.0219L41.736 14.4749C41.736 14.4749 42.6874 13.9599 42.8913 14.1144C43.0931 14.2633 42.9052 15.1492 42.759 15.0219ZM40.6267 15.0219L39.6037 14.4777C39.6037 14.4777 40.5571 13.9599 40.7589 14.1144C40.9607 14.2633 40.77 15.1492 40.6267 15.0219ZM38.5925 14.9906L37.5694 14.4449C37.5694 14.4449 38.5201 13.9299 38.7247 14.0803C38.9293 14.2264 38.7365 15.1103 38.5925 14.985V14.9906ZM30.1208 14.9057L29.0978 14.3614C29.0978 14.3614 30.0512 13.8492 30.2531 13.9995C30.4549 14.1492 30.267 15.0365 30.1208 14.9057ZM32.3409 14.7066L31.3171 14.1575C31.3171 14.1575 32.2706 13.6404 32.4724 13.7935C32.6721 13.9397 32.4794 14.8284 32.3402 14.7017L32.3409 14.7066ZM26.3419 14.6231L25.3189 14.0733C25.3189 14.0733 26.2723 13.5583 26.4741 13.7079C26.6759 13.8611 26.4832 14.7449 26.3419 14.6196V14.6231ZM34.4927 14.2612L33.4697 13.7135C33.4697 13.7135 34.4231 13.1985 34.6249 13.3488C34.8267 13.502 34.6354 14.3844 34.4927 14.2612ZM47.1121 13.9794L46.0891 13.4407C46.0891 13.4407 47.0425 12.9243 47.2478 13.0719C47.4496 13.225 47.2562 14.1088 47.1128 13.9801L47.1121 13.9794ZM28.2662 13.9515L27.2431 13.4038C27.2431 13.4038 28.1966 12.8916 28.3984 13.0385C28.603 13.1888 28.4109 14.0754 28.2662 13.9501V13.9515ZM45.1266 13.6244L44.1036 13.0816C44.1036 13.0816 45.057 12.5666 45.2588 12.7176C45.4634 12.8707 45.2658 13.7546 45.1266 13.6244ZM36.6689 13.5688L35.6424 13.0259C35.6424 13.0259 36.5958 12.5109 36.7976 12.6613C37.0064 12.8144 36.8116 13.7031 36.6689 13.5702V13.5688ZM43.0854 13.3168L42.0624 12.7691C42.0624 12.7691 43.0137 12.259 43.2163 12.4045C43.4181 12.5576 43.2274 13.4456 43.084 13.3161L43.0854 13.3168ZM38.8681 13.3099L37.8436 12.7643C37.8436 12.7643 38.7971 12.2451 38.9989 12.4003C39.2007 12.5464 39.0093 13.4372 38.8667 13.3078L38.8681 13.3099ZM30.4542 13.282L29.4312 12.7357C29.4312 12.7357 30.3846 12.2228 30.5892 12.3738C30.791 12.5269 30.5989 13.408 30.457 13.2806L30.4542 13.282ZM40.9614 13.2159L39.9342 12.6731C39.9342 12.6731 40.8904 12.1539 41.0937 12.3077C41.2941 12.4608 41.102 13.344 40.9614 13.2159ZM24.5095 12.6146L25.5339 13.1616C25.6745 13.289 25.868 12.4031 25.6661 12.2514C25.4643 12.1003 24.5144 12.6098 24.5109 12.6132L24.5095 12.6146ZM32.7076 12.8944L31.6846 12.3481C31.6846 12.3481 32.638 11.8373 32.8419 11.9862C33.0438 12.1372 32.8545 13.0218 32.7097 12.8937L32.7076 12.8944ZM27.5062 12.4323L26.4832 11.886C26.4832 11.886 27.4366 11.3731 27.6384 11.5241C27.8423 11.6751 27.6509 12.561 27.5062 12.433V12.4323ZM34.8448 12.3905L33.8218 11.8477C33.8218 11.8477 34.7752 11.3341 34.9771 11.483C35.1789 11.6382 34.9861 12.5214 34.8448 12.3926V12.3905ZM55.02 11.3118C55.0131 11.316 54.6999 11.5972 54.9296 12.0182C54.9296 12.0182 56.1161 11.8721 56.405 11.7607C56.4258 11.7538 56.4432 11.7468 56.4565 11.7398C56.4565 11.7398 56.4662 11.5422 56.0667 11.2875C55.7188 11.0648 55.4578 11.0752 55.2838 11.1385C55.1098 11.1984 55.0193 11.3104 55.0193 11.3125L55.02 11.3118ZM45.5094 11.941L44.4829 11.3981C44.4829 11.3981 45.4363 10.8831 45.6416 11.0314C45.8434 11.1803 45.6486 12.0655 45.5094 11.941ZM29.4541 11.941L28.4311 11.3967C28.4311 11.3967 29.3817 10.8817 29.5863 11.0335C29.7882 11.1824 29.5982 12.0676 29.4541 11.9431V11.941ZM37.0155 11.8108L35.9924 11.268C35.9924 11.268 36.9459 10.7502 37.1477 10.8991C37.3495 11.0523 37.1581 11.941 37.0169 11.8108H37.0155ZM67.3931 18.6053C67.2156 18.3707 66.9268 18.2782 66.7285 18.1877C66.5336 18.0972 66.5615 17.9065 66.3986 17.8516C66.2316 17.7959 65.9421 18.1369 65.7152 18.0673C65.4883 17.9907 65.5064 17.5683 65.3157 17.5064C65.123 17.4437 64.7868 17.7618 64.6107 17.7061C64.4347 17.656 64.3999 17.212 64.228 17.1563C64.061 17.1041 63.7012 17.4208 63.5251 17.3651C63.3511 17.3059 63.3393 16.8731 63.1423 16.8083C62.9495 16.7499 62.6064 17.0728 62.4394 17.0143C62.2654 16.9621 62.2467 16.5307 62.0608 16.468C61.8729 16.4075 61.5264 16.7255 61.3524 16.6671C61.1735 16.6086 61.1248 16.166 60.9626 16.1124C60.7956 16.0595 60.4685 16.3212 60.2041 16.3073C58.3696 16.1354 57.6674 14.9808 57.5421 15.3218C57.4168 15.6559 57.9249 16.4701 58.5582 16.7457C59.0662 16.9684 64.5314 18.4814 64.6755 18.5482C64.8147 18.6178 65.1598 18.7709 65.0374 18.9706C64.8467 19.2267 64.3136 18.9741 64.1772 18.8621C64.038 18.7507 64.07 18.7089 63.9406 18.6741C63.6483 18.6046 63.4854 19.1404 63.175 19.0687C62.8932 19.0061 62.9134 18.4389 62.6252 18.3728C62.3107 18.2963 62.168 18.8335 61.8667 18.7625C61.6161 18.7069 61.5813 18.1292 61.3155 18.0652C61.0093 17.9907 60.8701 18.5294 60.55 18.4549C60.2737 18.3895 60.289 17.8272 60.0002 17.7576C59.7127 17.6908 59.513 18.2127 59.2402 18.1515C58.9688 18.0889 58.9298 17.5112 58.6876 17.4556C58.4392 17.3999 58.2436 17.6922 57.911 17.7353C57.911 17.7353 56.9541 17.9956 55.4425 16.4158C53.9253 14.8395 53.306 14.5333 52.443 15.1757C51.0344 16.2251 50.1603 15.5306 49.9056 15.2202C49.5994 14.8625 49.9195 14.534 49.9195 14.534C49.9195 14.534 50.3649 15.2244 50.9286 15.2369C51.8334 15.2648 52.5175 14.026 54.0722 14.0051C56.0417 13.9341 56.5546 14.6335 57.0925 14.6892C57.5915 14.7379 57.7579 14.6579 58.103 14.4575H58.0989C58.3772 14.36 58.6208 14.8973 58.9131 14.7887C59.2235 14.6718 58.9966 14.1276 59.3307 14.0023C59.6418 13.891 59.8457 14.438 60.1435 14.3266C60.4567 14.2111 60.2577 13.6516 60.5583 13.543C60.8687 13.4317 61.0496 13.9815 61.3705 13.8645C61.6934 13.7483 61.4846 13.1964 61.779 13.0851C62.0817 12.9737 62.3009 13.5166 62.6002 13.4122C62.8813 13.3099 62.7199 12.7315 63.0136 12.6258C63.3198 12.5165 63.5146 13.0614 63.8417 12.9417C64.109 12.8471 63.96 12.2681 64.2384 12.1623C64.5147 12.06 64.7722 12.5965 65.0596 12.4894C65.331 12.3891 65.171 11.8143 65.4591 11.7064C65.7639 11.5951 65.9984 12.131 66.2873 12.0293C66.5712 11.927 66.3555 11.4636 66.7257 11.2777C66.7257 11.2777 67.2407 11.1093 67.208 10.7321C67.2024 10.6695 67.0966 9.8622 66.2497 9.69239C65.4354 9.52954 59.005 11.307 58.9215 11.2054C58.3299 10.0362 57.5713 10.3605 57.4551 10.3869C57.3368 10.4169 56.6179 10.721 55.8232 10.4169C54.2601 9.70979 53.0137 11.5074 52.1584 11.2708C51.3719 11.0481 50.7686 11.1761 50.4394 11.2882C50.136 11.3926 49.646 11.7858 48.607 11.4288C40.5808 8.68676 34.3055 11.0857 34.3055 11.0857C30.768 12.266 30.315 11.0857 30.315 11.0857C30.315 11.0857 29.1493 9.5024 37.3474 7.61572C49.1401 4.91688 49.495 0.436436 49.3558 0.155278C49.161 -0.255325 49.0879 0.229047 48.6995 0.673751C48.3738 1.04399 47.9953 0.861654 47.9953 0.861654C47.625 0.683494 47.3877 1.10662 47.3877 1.10662C47.3877 1.10662 46.911 1.8471 46.49 1.42675C46.0835 1.02033 45.5456 1.93479 45.3444 1.97167C45.1036 2.01343 44.9867 1.89651 44.6624 1.74897C44.1794 1.53323 43.6603 2.41568 43.3937 2.47831C42.9866 2.57157 42.7006 1.99812 42.3498 2.2403C41.3031 2.96408 41.1389 3.0636 40.8563 2.78313C40.6476 2.56948 40.6176 2.33913 39.9182 3.00862C39.3197 3.57929 39.0344 3.68646 38.7978 3.32318C38.5472 2.95781 38.6099 2.46022 37.5868 3.44149C37.0997 3.90986 36.8491 3.9189 36.568 3.70803C36.3592 3.55006 36.3592 2.79497 35.6257 3.47837C34.9604 4.09358 34.4774 4.36221 34.2895 3.8166C34.0807 3.20418 33.2971 3.93491 33.1161 4.10193C32.9282 4.27592 32.5246 4.72828 32.2448 4.262C31.9637 3.79433 31.2879 4.49583 30.8857 4.94123C30.5767 5.28711 30.3261 5.01987 29.999 4.80065C29.6267 4.54664 28.5139 6.09997 28.4123 6.19253C28.3107 6.28161 28.2334 6.19253 27.9787 5.97679C27.5862 5.64483 26.5298 7.49045 26.3586 7.61224C26.3586 7.61224 26.2841 7.77022 25.9967 7.49532C25.5861 7.1056 23.4078 9.97146 22.5866 13.2138C21.5371 17.3714 23.213 20.5587 23.213 20.5587C23.213 20.5587 23.7154 20.5748 23.9298 20.2344L24.2569 19.5009C24.5213 18.8885 24.9528 19.0806 24.9528 19.0806L23.9319 22.1357C23.7676 22.5394 23.8651 23.108 24.2242 23.6459C24.5624 24.1874 24.7948 24.5527 25.0662 24.8047C25.8993 25.5911 25.8144 24.6627 25.8359 24.5472C25.9334 24.0503 26.4832 24.4323 26.916 24.6696C27.699 25.1109 27.612 24.1393 27.786 23.8227C27.9043 23.5958 28.2891 23.5861 28.7067 23.9361C29.0338 24.2075 29.3574 23.2854 29.3574 23.2854C29.761 21.3215 28.8076 21.0932 28.2926 21.0654L27.2445 21.0167C27.2445 21.0167 27.3113 20.7174 27.4206 20.439L27.4672 20.24C28.6086 17.3971 26.7017 16.8508 26.131 16.8939C25.5047 16.9496 25.5464 16.5495 25.5464 16.5495C25.5464 16.5495 28.9913 15.8716 28.3497 19.5239C28.3497 19.5239 28.223 20.16 28.1478 20.4912L29.0943 20.6026C29.9086 20.7035 30.0519 21.6674 30.0519 21.6674C30.0519 21.6674 33.0472 22.4587 34.746 22.1427C34.746 22.1427 35.5046 21.9618 35.7162 21.4885C35.7162 21.4885 36.8157 18.8955 40.0282 18.7855C40.0282 18.7855 40.1395 19.1209 39.628 19.2956C39.0142 19.5044 36.9626 19.6659 36.5381 22.0216V22.0307C36.4914 22.4176 36.5937 23.2416 37.433 23.6216C38.1498 23.9417 38.4004 25.2431 38.5465 25.5938C38.9641 26.589 39.5883 25.6377 39.5883 25.6377C39.5883 25.6377 39.9829 24.8339 40.3212 25.28C40.8918 26.0316 41.1584 25.6537 41.2885 25.1742C41.4305 24.6571 41.6379 24.4323 42.2371 25.0608C42.4925 25.3336 42.9957 25.1234 43.0444 24.655C43.1508 23.625 43.8447 24.4435 43.9456 24.4831C44.0639 24.5298 44.7912 24.3648 44.384 23.2054C44.384 23.2054 43.8343 22.1009 41.3539 21.6235C40.7694 21.5122 40.8619 21.0911 40.8619 21.0911L41.4075 21.1677C41.5725 21.1955 43.0151 21.3556 43.1682 21.3793C49.2187 21.9764 53.8091 19.9247 53.9469 19.7772C58.6466 20.6778 65.0374 20.3708 66.2372 19.9387C67.4411 19.5141 67.5316 18.8085 67.3924 18.6206L67.3931 18.6053ZM43.4668 11.5833L42.4452 11.0383C42.4452 11.0383 43.3986 10.5268 43.6004 10.6751C43.8009 10.8261 43.6095 11.712 43.4661 11.5846L43.4668 11.5833ZM39.2007 11.5276L38.1742 10.982C38.1742 10.982 39.1276 10.4621 39.3329 10.6173C39.5348 10.769 39.3469 11.6528 39.2007 11.5262V11.5276ZM41.34 11.4301L40.3135 10.8873C40.3135 10.8873 41.2669 10.3688 41.4702 10.5226C41.6734 10.673 41.4799 11.5596 41.3379 11.4308L41.34 11.4301ZM25.8506 10.5046C26.0524 10.6542 25.8631 11.545 25.7169 11.4141L24.6939 10.8713C24.6939 10.8713 25.6473 10.3633 25.8513 10.5094L25.8506 10.5046ZM57.6883 11.1107C57.7878 10.9527 57.8803 10.863 57.9652 10.8198C58.3292 10.611 58.5624 11.2582 58.5178 11.2819L58.5039 11.2875V11.2896C58.4454 11.3174 57.7419 11.5178 57.673 11.4705C57.5338 11.3731 57.6883 11.1065 57.6883 11.1065V11.1107ZM26.7163 10.2199C26.7163 10.2199 27.6725 9.70214 27.8716 9.85524C28.0762 10.0063 27.8841 10.8922 27.7414 10.7641L26.7163 10.2213V10.2199ZM29.6462 10.1921L28.6211 9.64785C28.6211 9.64785 29.5745 9.13077 29.7763 9.28318C29.9816 9.43629 29.7861 10.3271 29.6462 10.1949V10.1921ZM26.772 8.71669C26.9738 8.86492 26.7845 9.75224 26.6398 9.62419L25.6202 9.08136C25.6202 9.08136 26.5695 8.56637 26.7741 8.71947L26.772 8.71669ZM28.5445 8.10218C28.7464 8.2532 28.5557 9.13704 28.4137 9.01177L27.3907 8.46894C27.3907 8.46894 28.342 7.95186 28.5438 8.10496L28.5445 8.10218ZM30.6226 7.86695C30.8244 8.01797 30.6344 8.90738 30.4904 8.77863L29.4653 8.22884C29.4653 8.22884 30.4187 7.71663 30.6275 7.86695H30.6226ZM31.1988 6.13407C31.4007 6.28509 31.2128 7.1731 31.0694 7.04087L30.0464 6.49387C30.0464 6.49387 30.997 5.97888 31.1995 6.13198L31.1988 6.13407ZM29.4346 6.75206C29.6378 6.90308 29.4465 7.78692 29.3024 7.66165L28.2773 7.11882C28.2773 7.11882 29.2307 6.60383 29.4339 6.75693L29.4346 6.75206ZM32.8677 5.56897C33.0626 5.72207 32.8746 6.6087 32.7285 6.47786L31.7138 5.93851C31.7138 5.93851 32.6673 5.42352 32.8726 5.57245L32.8677 5.56897Z" fill="#231F20"/>
</svg>
