<svg width="115" height="25" viewBox="0 0 115 25" fill="none" xmlns="http://www.w3.org/2000/svg">
<path fill-rule="evenodd" clip-rule="evenodd" d="M0 24.6467V22.249H1.33212C1.99788 22.249 3.33061 22.1157 3.33061 20.517V6.12963C3.33061 5.26365 3.26367 3.19883 1.59867 3.19883H0.0669439L1.79889 0.134766H104.272V3.19883H9.99184C9.12587 3.19883 7.99335 3.39844 7.99335 5.13038V9.65984C8.19357 10.1923 8.9926 10.3919 9.39242 10.3919C9.79224 10.3919 11.1907 10.3256 11.1907 8.1275H13.1892V15.5214H11.1907C11.1907 14.8551 10.4549 13.7391 9.45936 13.6562C8.65972 13.5899 7.99335 13.8558 7.99335 14.922V20.517C7.99335 21.1171 8.72605 22.249 10.458 22.249H11.6575V24.6467H0Z" fill="#231F20"/>
<path fill-rule="evenodd" clip-rule="evenodd" d="M59.1367 6.66307C59.1367 7.19616 59.8024 7.72865 60.2016 7.86192C60.6684 7.52904 63.133 6.13059 65.0646 6.13059C66.9961 6.13059 67.9948 7.12922 67.9948 8.66156V15.9885H63.332V10.3272C63.332 9.59448 63.133 9.06138 62.466 8.99505C61.8003 8.92872 60.0683 10.3272 59.6028 10.9935V21.118C59.6028 22.051 60.5351 22.7167 61.3348 22.7167V24.6489H53.2087V22.6504C54.0078 22.6504 54.8737 22.3838 54.9407 21.185V9.92674C54.9407 9.59386 54.4076 8.66094 53.2087 8.66094V6.66307H59.1367ZM114.902 6.66307H106.777V8.66156C107.975 8.66156 108.507 9.59386 108.507 9.92735V21.1844C108.442 22.3832 107.575 22.6498 106.777 22.6498V24.6483H114.902V22.7161C114.103 22.7161 113.17 22.0503 113.17 21.1174V10.06C113.17 9.26098 114.036 8.66156 114.902 8.66156V6.66307ZM41.1521 6.66307C41.1521 7.19616 41.8178 7.72865 42.2177 7.86192C42.6838 7.52904 45.1484 6.13059 47.08 6.13059C49.0115 6.13059 50.0108 7.12922 50.0108 8.66156V15.9885H45.3487V10.3272C45.3487 9.59448 45.1484 9.06138 44.4827 8.99505C43.8163 8.92872 42.0844 10.3272 41.6182 10.9935V21.118C41.6182 22.051 42.5511 22.7167 43.3502 22.7167V24.6489H35.2242V22.6504C36.0232 22.6504 36.8892 22.3838 36.9561 21.185V9.92674C36.9561 9.59386 36.423 8.66094 35.2242 8.66094V6.66307H41.1521ZM95.185 6.66307C95.185 7.19616 95.852 7.72865 96.2512 7.86192C96.718 7.52904 99.1814 6.13059 101.114 6.13059C103.046 6.13059 104.044 7.12922 104.044 8.66156V15.9885H99.3816V10.3272C99.3816 9.59448 99.1814 9.06138 98.5156 8.99505C97.8499 8.92872 96.118 10.3272 95.6512 10.9935V21.118C95.6512 22.051 96.5835 22.7167 97.3831 22.7167V24.6489H89.2565V22.6504C90.0568 22.6504 90.9227 22.3838 90.9884 21.185V9.92674C90.9884 9.59386 90.456 8.66094 89.2565 8.66094V6.66307H95.185ZM31.7068 19.0526H27.0441V20.8515C27.0441 21.5836 26.9108 23.1165 24.7127 23.1165C22.5147 23.1165 21.8489 21.6505 21.8489 20.5849V16.7882C21.8489 16.4553 22.1154 15.9885 22.5816 15.9885H31.7068V11.1262C31.7068 8.92811 31.2407 8.26174 30.3078 7.32944C29.3755 6.39652 26.1112 6.13059 24.6458 6.13059C20.916 6.13059 19.7165 6.66307 18.6509 7.52904C17.5854 8.39501 17.1855 10.1933 17.1855 11.5254V19.052C17.1855 21.0499 17.5854 22.4489 18.8505 23.7147C20.1157 24.9805 23.9794 24.9805 24.7791 24.9805C25.5781 24.9805 28.2423 25.0468 30.1745 23.6484C32.1067 22.2499 31.7068 19.0526 31.7068 19.0526ZM21.8489 10.7933C21.8489 9.72775 22.1818 8.12908 24.5131 8.12908C26.8445 8.12908 27.0441 9.86102 27.0441 10.7933V13.191C27.0441 13.5902 26.7112 13.99 26.2451 13.99H22.6479C22.2487 13.99 21.8489 13.6572 21.8489 13.258V10.7933ZM85.1281 21.1174V11.1262C85.1281 9.59386 85.0611 7.99581 83.4619 6.86329C81.8638 5.73077 79.2659 5.79771 78.2666 5.79771C77.2674 5.79771 73.9374 5.79771 72.4045 7.52966C70.8727 9.2616 71.1387 10.9266 71.1387 11.5924H75.5023C75.5023 11.5924 75.8008 9.32793 76.4008 8.7285C77.0039 8.12539 78.5995 7.46271 79.8315 8.52829C80.2848 8.92135 80.4635 9.42742 80.4635 9.99368V12.8575C80.4635 13.1247 80.197 13.5239 79.8647 13.5239C79.8647 13.5239 73.8023 13.6572 72.7373 14.4568C71.6724 15.2558 70.7388 15.7889 70.7388 18.7197C70.7388 21.6499 71.4715 22.7824 72.3381 23.3825C73.2041 23.9819 73.6039 24.6483 77.5333 24.6483H86.8588V22.7161C86.0604 22.7161 85.1281 22.0503 85.1281 21.1174ZM80.4647 22.2499C80.4647 22.4164 80.1982 22.6492 79.9992 22.6492H77.701C76.0686 22.6492 75.603 21.2507 75.603 20.3841V17.8194C75.603 15.3222 78.2003 15.3885 79.2327 15.3885C80.2651 15.3885 80.4647 16.2539 80.4647 16.8201V22.2499ZM110.534 3.16663C112.866 3.16663 114.755 2.45789 114.755 1.58332C114.755 0.709362 112.866 0 110.534 0C108.202 0 106.311 0.708747 106.311 1.58332C106.311 2.45727 108.202 3.16663 110.534 3.16663Z" fill="#231F20"/>
</svg>
