<svg width="214" height="15" viewBox="0 0 214 15" fill="none" xmlns="http://www.w3.org/2000/svg">
<path fill-rule="evenodd" clip-rule="evenodd" d="M31.2258 11.139V3.76279C31.2258 1.4088 32.8862 0.000976562 35.1762 0.000976562H55.0765C57.3665 0.000976562 59.0269 1.4088 59.0269 3.76279V11.139C59.0269 13.4941 57.3665 14.8997 55.0765 14.8997H35.1762C32.8862 14.8997 31.2258 13.4941 31.2258 11.139ZM0 0.00211865H24.3969C26.7292 0.00211865 27.7382 2.22927 27.7382 4.28844V6.01165C27.7382 8.61703 26.183 10.5094 23.4725 10.5094H3.40529V14.8997H0V0.00211865ZM62.7041 0.00211865H87.2051C88.9489 0.00211865 90.5464 1.1574 90.5464 2.98574V6.85268C90.5464 8.47077 89.2848 9.33124 87.8564 9.71062C89.9156 10.6774 90.3361 12.8199 90.5464 14.8997H87.2051C87.0577 12.652 86.0909 10.5094 83.5073 10.5094H66.1083V14.8997H62.7041V0.00211865ZM121.371 0.00211865V2.98574H98.7202C97.8163 2.98574 97.4381 3.63709 97.4381 4.4987C97.4381 5.31802 97.8586 5.94881 98.7202 5.94881H117.191C120.217 5.94881 121.856 7.39891 121.856 10.4877C121.856 13.0725 120.469 14.8997 117.781 14.8997H94.5607V11.9161H117.192C117.969 11.9161 118.306 11.2441 118.306 10.5505C118.306 9.75403 118.139 8.91186 117.192 8.91186H98.006C95.5263 8.91186 94.0979 7.0001 94.0979 4.62554C94.0979 1.66248 95.6943 0.00326074 98.7214 0.00326074L121.371 0.00211865ZM151.883 0.00211865V2.98574H129.524C129 2.98574 128.81 3.48968 128.81 3.93191V11.1824C128.81 11.6247 129.084 11.9172 129.524 11.9172H151.883V14.9008H129.524C127.087 14.9008 125.429 13.2199 125.429 10.7608V4.37414C125.429 1.55849 126.625 0.00326074 129.524 0.00326074L151.883 0.00211865ZM155.538 0.00211865H158.964V5.80139H178.739V0.00211865H182.247V14.8997H178.739V8.78502H158.964V14.8997H155.538V0.00211865ZM185.841 0.00211865H213.788V2.98574H189.244V5.86538H213.788V8.8273H189.244V11.9161H213.788V14.8997H185.841V0.00211865Z" fill="#231F20"/>
<path fill-rule="evenodd" clip-rule="evenodd" d="M36.6058 11.9168H53.8791C54.9292 11.9168 55.7908 11.4551 55.7908 10.2564V4.64685C55.7908 3.44929 54.9509 2.98649 53.8791 2.98649H36.6058C35.5339 2.98649 34.6723 3.44929 34.6723 4.64685V10.2564C34.6723 11.4551 35.5545 11.9168 36.6058 11.9168ZM3.4054 2.98649V7.52535H22.8213C23.6623 7.52535 24.3971 7.18939 24.3971 6.24323V4.56344C24.3971 3.57613 23.8086 2.98764 22.8213 2.98764L3.4054 2.98649ZM66.1084 2.98649V7.52535H86.3653C87.0372 7.52535 87.2052 6.95742 87.2052 6.39063V4.3726C87.2052 3.40587 86.8487 2.98535 85.8602 2.98535L66.1084 2.98649Z" fill="#FDF8F6"/>
</svg>
