<svg width="156" height="44" viewBox="0 0 156 44" fill="none" xmlns="http://www.w3.org/2000/svg">
<g clip-path="url(#clip0_5037_5227)">
<path d="M16.8676 4.22157C17.1497 4.50282 17.0625 4.7535 17.0625 4.7535C16.3556 8.28446 14.3394 13.8461 14.3394 13.8461C14.1698 14.3536 14.3646 14.4529 14.3646 14.4529C14.7544 14.7418 15.414 14.0402 15.414 14.0402C27.7517 2.90013 36.4331 0.118164 36.4331 0.118164C38.0916 1.08421 41.018 4.03508 41.018 4.03508C26.6557 7.10365 18.1929 13.2912 18.1929 13.2912C17.5586 13.7498 17.9499 14.378 17.9499 14.378C21.9004 22.3051 23.6804 24.2135 23.6804 24.2135C25.3137 26.3879 25.9709 26.436 26.9729 26.4613C27.9718 26.4857 28.9707 26.4139 28.9707 26.4139L23.4106 30.3017C22.777 30.81 22.0472 30.0862 22.0472 30.0862C19.1192 26.9435 14.1942 17.1096 14.1942 17.1096C13.8526 16.4576 13.6699 16.5769 13.6699 16.5769C13.3512 16.5165 13.0967 17.0377 13.0967 17.0377C7.78193 26.9917 3.85507 30.8574 3.85507 30.8574L6.10352e-05 26.8464C8.82899 20.5641 11.7302 5.29079 11.7302 5.29079C11.7302 4.85592 11.2242 4.89184 11.2242 4.89184C10.0732 4.92852 7.51137 5.31066 7.51137 5.31066C11.6087 1.81104 13.5667 0.650865 13.5667 0.650865C14.7177 1.71474 16.8676 4.22157 16.8676 4.22157ZM48.151 14.7166C48.151 14.7166 48.2596 10.1852 43.3949 11.3095C43.3949 11.3095 41.553 11.7199 39.0791 13.4128C35.3731 15.944 31.0694 21.9895 32.9702 27.5114C32.9702 27.5114 36.1167 36.1744 44.4565 24.5024C44.4565 24.5024 43.3582 30.1573 47.4563 30.5562L52.0649 27.3073C52.0649 27.3073 48.0654 27.9585 49.2493 24.2869C49.2493 24.2869 50.6387 18.5227 54.8812 11.8192L50.1985 11.8536C50.1985 11.8521 49.7231 11.9622 48.151 14.7166ZM39.0928 27.1598C36.0686 26.2182 38.7749 19.8617 38.7749 19.8617C42.7506 11.5021 46.7738 12.8075 46.7738 12.8075C48.456 13.558 47.4563 16.0449 47.4563 16.0449C46.3343 18.8238 44.7722 23.197 44.7722 23.197C41.9932 28.3192 39.0928 27.1598 39.0928 27.1598ZM67.3183 11.2002C67.3183 11.2002 60.6974 14.0998 59.8552 14.5003C59.8552 14.5003 61.6122 14.4629 62.0861 14.4629C62.0861 14.4629 62.6539 14.4445 62.5981 14.9711C62.5981 14.9711 62.2076 21.3139 57.2345 26.968L60.2931 30.411C60.2931 30.411 63.6949 25.833 66.2201 18.8842C66.2201 18.8842 67.9397 14.7158 70.9372 14.1724C70.9372 14.1724 74.0111 13.4365 73.4631 17.7592C73.4631 17.7592 73.0359 23.5348 70.2073 30.5547L79.5215 26.4123L77.0109 26.4223C77.0109 26.4223 76.4751 26.4597 76.7182 25.8422C76.7182 25.8422 79.7898 14.3887 77.5229 11.995C77.5229 11.995 75.986 9.63952 71.7794 12.2136C71.7794 12.2136 68.5236 14.4247 66.5861 16.9621C66.5877 16.9636 67.5744 12.1043 67.3183 11.2002ZM89.96 21.4216C89.96 21.4216 100.641 21.0227 102.873 15.6949C102.873 15.6949 104.847 10.8754 98.0805 10.802C98.0805 10.802 88.4605 10.4382 85.2055 19.7563C85.2055 19.7563 82.279 29.0239 90.7656 30.2651C90.7656 30.2651 95.3016 30.9292 99.2521 26.8228C99.2521 26.8228 95.3375 29.3219 92.3744 28.1641C92.3744 28.1641 88.7532 27.3287 89.96 21.4216ZM90.0349 21.0968C90.0349 21.0968 92.0824 11.8659 97.0945 11.2743C97.0945 11.2743 100.13 10.9113 98.6674 15.0078C98.6674 15.007 96.4212 20.6612 90.0349 21.0968ZM119.625 0.506417C119.625 0.506417 112.53 3.22571 112.016 3.44277C112.016 3.44277 113.273 3.455 113.882 3.44277C113.882 3.44277 114.515 3.455 114.443 4.15584C114.443 4.15584 112.859 19.3191 104.555 26.715L107.737 30.1924C107.737 30.1924 110.554 26.8228 111.468 25.1918C111.468 25.1918 111.396 31.3144 118.345 29.9754C118.345 29.9754 125.659 28.3926 127.903 19.1632C129.777 11.4532 124.599 10.7645 124.599 10.7645C124.599 10.7645 120.611 9.85811 116.405 14.6432C116.406 14.6432 119.15 6.37912 119.625 0.506417ZM112.102 24.3098C112.102 24.3098 114.712 19.7906 115.955 16.3827C115.955 16.3827 117.978 12.0684 121.856 12.6149C121.856 12.6149 125.808 13.0253 121.759 22.4954C121.759 22.4954 118.09 30.1573 113.773 28.4522C113.773 28.4522 111.494 27.6665 112.102 24.3098ZM146.438 10.6568C146.438 10.6568 137.586 9.4966 134.22 19.5361C134.22 19.5361 131.586 28.8519 140.074 30.0495C140.074 30.0495 149 31.3152 152.216 22.0017C152.216 22.0009 155.691 11.8521 146.438 10.6568ZM147.571 20.6971C144.901 31.173 140.402 29.578 140.402 29.578C136.194 28.6349 139.67 18.885 139.67 18.885C142.597 10.1141 146.326 11.1643 146.326 11.1643C150.387 11.6717 147.571 20.6971 147.571 20.6971ZM18.4573 42.9689H19.1956V39.4845H21.879V38.8502H19.1956V36.2104H22.0074V35.576H18.4573V42.9689ZM25.4375 42.9689H29.2214V42.3338H26.1742V39.4838H28.9432V38.8494H26.1742V36.2096H29.0915V35.5753H25.4375V42.9689ZM32.9198 42.9689H36.7052V42.3338H33.6558V39.4838H36.4247V38.8494H33.6558V36.2096H36.5753V35.5753H32.9198V42.9689ZM40.3386 42.9689H44.0698V42.3338H41.0769V35.576H40.3386V42.9689ZM51.8417 42.9689H52.5785V39.8338L55.3459 35.576H54.5457L52.204 39.1872L49.928 35.576H49.0712L51.8417 39.8338V42.9689ZM58.9273 39.2721C58.9273 40.8411 59.7184 42.4599 61.4708 42.4599C63.2249 42.4599 64.0166 40.8411 64.0166 39.2721C64.0166 37.7045 63.2249 36.0843 61.4708 36.0843C59.7184 36.085 58.9273 37.7045 58.9273 39.2721ZM61.4708 35.4484C63.7163 35.4484 64.7748 37.2704 64.7542 39.2721C64.732 41.5389 63.6215 43.0957 61.4708 43.0957C59.3232 43.0957 58.2112 41.5389 58.1898 39.2721C58.1692 37.2712 59.2277 35.4484 61.4708 35.4484ZM73.7428 35.576H73.0045V40.3841C73.0045 41.5916 72.332 42.4591 71.0388 42.4591C69.7441 42.4591 69.0731 41.5909 69.0731 40.3841V35.576H68.3348V40.3841C68.3348 42.5653 69.9474 43.0957 71.0388 43.0957C72.1287 43.0957 73.7428 42.5653 73.7428 40.3841V35.576ZM78.4149 38.8494H79.1944C80.0611 38.8494 81.0539 38.52 81.0539 37.4921C81.0539 36.2845 80.1895 36.2104 79.1715 36.2104H78.4149V38.8494ZM77.6766 35.576H79.6018C80.927 35.576 81.7914 36.1362 81.7914 37.4921C81.7914 38.4459 81.0539 39.0833 80.1352 39.1979V39.2201C80.7337 39.295 80.8613 39.6114 81.0967 40.1105L82.3692 42.9696H81.5576L80.4776 40.4697C80.0504 39.5159 79.7294 39.4845 79.0225 39.4845H78.4149V42.9689H77.6766V35.576ZM91.5199 42.3338H92.2895C93.2823 42.3338 94.4051 42.0693 94.4051 40.8931C94.4051 39.5778 93.2609 39.4417 92.1703 39.4417H91.5199V42.3338ZM90.7816 35.576H92.5578C93.7745 35.576 94.9202 35.9796 94.9202 37.3965C94.9202 38.3396 94.4807 38.9006 93.5605 39.0833V39.1039C94.5006 39.2721 95.1433 39.8865 95.1433 40.861C95.1433 42.4706 93.8173 42.9689 92.2674 42.9689H90.7809L90.7816 35.576ZM91.5413 38.8066H92.3652C93.1448 38.8066 94.1811 38.6033 94.1811 37.4317C94.1811 36.3609 93.1868 36.2111 92.5578 36.2111H91.5413V38.8066ZM99.288 42.9689H103.073V42.3338H100.027V39.4838H102.795V38.8494H100.027V36.2096H102.946V35.5753H99.288V42.9689ZM109.413 36.2738L107.786 40.3535H111.027L109.413 36.2738ZM109.048 35.576H109.882L112.843 42.9681H112.074L111.272 40.9871H107.509L106.707 42.9681H105.991L109.048 35.576ZM121.394 35.576H120.656V40.3841C120.656 41.5916 119.983 42.4591 118.689 42.4591C117.395 42.4591 116.722 41.5909 116.722 40.3841V35.576H115.984V40.3841C115.984 42.5653 117.598 43.0957 118.688 43.0957C119.778 43.0957 121.393 42.5653 121.393 40.3841V35.576H121.394ZM126.697 42.9689H127.434V36.2104H129.636V35.576H124.495V36.2104H126.697V42.9689ZM134.125 42.9689H134.862V39.8338L137.63 35.576H136.829L134.488 39.1872L132.212 35.576H131.356L134.125 39.8338V42.9689Z" fill="#231F20"/>
</g>
<defs>
<clipPath id="clip0_5037_5227">
<rect width="155.691" height="43.2198" fill="white"/>
</clipPath>
</defs>
</svg>
