<svg width="124" height="124" viewBox="0 0 124 124" fill="none" xmlns="http://www.w3.org/2000/svg">
<path d="M73.3699 51.9688C77.3384 51.9688 80.5474 55.0828 80.5474 59.1462V68.6023H75.6485V59.0513C75.6485 57.874 74.718 56.8487 73.4458 56.8487C72.1736 56.8487 71.2432 57.7791 71.2432 59.0513V68.5074H66.3443V59.0513C66.1924 55.1018 69.4014 51.9688 73.3699 51.9688Z" fill="#3D3D3D"/>
<path d="M82.7313 51.9688C86.6998 51.9688 89.9088 55.1777 89.9088 59.1462V68.6023H85.0099V59.0513C85.0099 57.874 84.0035 56.8487 82.8072 56.8487C82.7313 56.8487 82.6363 56.8487 82.4655 56.8487C82.0477 55.1587 81.1933 53.6397 80.016 52.4624C80.8705 52.1396 81.8009 51.9688 82.7313 51.9688Z" fill="#3D3D3D"/>
<path d="M99.2889 53.3164H94.39V68.5828H99.2889V53.3164Z" fill="#3D3D3D"/>
<path d="M109.903 64.7989V69.9447C106.447 69.432 103.751 66.4888 103.751 62.8621V53.3301H108.65V62.8431C108.726 63.6976 109.239 64.3622 109.903 64.7989Z" fill="#3D3D3D"/>
<path d="M111.859 69.855V64.7852C112.618 64.4434 113.036 63.6839 113.036 62.8484V53.3164H118.011V62.8484C118.011 66.3992 115.39 69.4373 111.859 69.855Z" fill="#3D3D3D"/>
<path d="M11.2603 51.9688C15.2288 51.9688 18.3428 55.0828 18.3428 59.1462V68.6023H13.3679V59.0513C13.3679 57.874 12.3616 56.8487 11.1653 56.8487C9.98806 56.9246 9.05764 57.8551 9.05764 59.0513V68.5074H4.08276V59.0513C4.08276 55.1018 7.29175 51.9688 11.2603 51.9688Z" fill="#3D3D3D"/>
<path d="M20.621 51.9688C24.5895 51.9688 27.7985 55.1777 27.7985 59.1462V68.6023H22.8236V59.0513C22.8236 57.874 21.8172 56.8487 20.621 56.8487C20.545 56.8487 20.4501 56.8487 20.3741 56.8487C19.9564 55.1587 19.1019 53.6397 17.9247 52.4624C18.7602 52.1396 19.6906 51.9688 20.621 51.9688Z" fill="#3D3D3D"/>
<path d="M37.0841 53.3164H32.1852V68.5828H37.0841V53.3164Z" fill="#3D3D3D"/>
<path d="M47.7929 64.7989V69.9447C44.3371 69.432 41.6407 66.4888 41.6407 62.8621V53.3301H46.5397V62.8431C46.5397 63.6976 47.0334 64.3622 47.7929 64.7989Z" fill="#3D3D3D"/>
<path d="M49.7302 69.855V64.7852C50.4138 64.4434 50.9075 63.6839 50.9075 62.8484V53.3164H55.8064V62.8484C55.8064 66.3992 53.205 69.4373 49.7302 69.855Z" fill="#3D3D3D"/>
</svg>
