<svg width="169" height="32" viewBox="0 0 169 32" fill="none" xmlns="http://www.w3.org/2000/svg">
<g clip-path="url(#clip0_5037_5018)">
<path d="M9.35193 -0.00292969C9.43263 0.0155714 9.51441 0.0289951 9.59678 0.0372624C10.7067 0.0673528 11.8053 0.268615 12.8538 0.633937C13.613 0.890964 14.3099 1.30448 14.8992 1.84775C15.5756 2.47325 15.9966 3.32696 16.0809 4.24436C16.1399 4.82737 16.0138 5.41416 15.7206 5.9215C15.2779 6.67921 14.6741 7.33045 13.9521 7.82923C13.8991 7.86797 13.8458 7.90609 13.7932 7.94533C13.7827 7.95795 13.7735 7.9717 13.766 7.98633C13.8412 8.03288 13.9149 8.08225 13.9921 8.12564C14.6366 8.47711 15.2345 8.90819 15.7716 9.40876C16.5617 10.1425 17.129 11.0842 17.4085 12.1256C17.7098 13.273 17.538 14.3779 17.0437 15.4451C16.5709 16.4657 15.7647 17.1444 14.7979 17.6596C13.8591 18.1383 12.8483 18.4598 11.8056 18.6116C10.7561 18.7751 9.69478 18.8508 8.6327 18.8379C5.87756 18.8334 3.12241 18.8329 0.367269 18.8364H-0.000610352C0.136084 18.7677 0.218312 18.7265 0.300313 18.685C0.697062 18.4889 1.05847 18.2282 1.36976 17.9136C1.57431 17.7119 1.73588 17.4709 1.84474 17.2051C1.95359 16.9393 2.00746 16.6542 2.00311 16.367C1.99995 11.7406 2.00017 7.11417 2.00379 2.4878C2.01576 2.13379 1.93981 1.78234 1.78272 1.46487C1.62563 1.14741 1.3923 0.873825 1.10361 0.6686C0.797477 0.441497 0.452957 0.266134 0.100839 0.0522334H1.06767C1.10528 0.0522334 1.1429 0.0521769 1.18051 0.0520641C3.12685 0.0473872 5.07317 0.0421211 7.01947 0.0362656C7.12062 0.0297466 7.22124 0.0166539 7.32069 -0.00292969L9.35193 -0.00292969ZM5.97428 18.0398C6.064 18.0448 6.11954 18.0505 6.17509 18.0505C6.81424 18.0512 7.45372 18.0637 8.09249 18.0478C8.98559 18.0435 9.87364 17.9134 10.7305 17.6615C11.3144 17.49 11.8525 17.1901 12.3054 16.7835C12.7582 16.377 13.1143 15.8743 13.3476 15.3122C13.6144 14.686 13.7001 13.9975 13.595 13.325C13.4915 12.4056 13.1378 11.5321 12.5725 10.7997C11.8924 9.97792 11.0239 9.3324 10.041 8.91802C9.51283 8.67819 8.95807 8.49639 8.41291 8.295C8.28502 8.24774 8.16192 8.21037 8.13937 8.05802C8.17699 7.88635 8.31171 7.90615 8.4315 7.89577C9.61419 7.81251 10.7309 7.31979 11.5897 6.50232C12.0369 6.10673 12.3494 5.58137 12.4836 4.99959C12.5594 4.56318 12.55 4.11621 12.4558 3.68338C12.3913 3.24465 12.2322 2.8252 11.9894 2.45411C11.7467 2.08301 11.4261 1.76916 11.0499 1.5343C10.3287 1.10226 9.50768 0.864853 8.66718 0.845299C7.84221 0.802361 7.01445 0.81389 6.18788 0.803922C6.1162 0.807592 6.04484 0.816069 5.97428 0.829293V18.0398Z" fill="#3D3D3D"/>
<path d="M95.1088 18.9389H87.3882C87.526 18.8604 87.6209 18.8049 87.7171 18.7517C88.1324 18.5295 88.506 18.2369 88.8213 17.887C89.1727 17.4999 89.3649 16.9943 89.3593 16.4716C89.3582 14.2994 89.3578 12.1273 89.3582 9.95513C89.3582 9.89017 89.3497 9.82521 89.3453 9.76329C89.1309 9.7019 81.6665 9.68994 81.3422 9.75408V10.0784C81.3422 12.166 81.3593 14.2537 81.3336 16.3409C81.318 16.7033 81.3905 17.0641 81.5448 17.3923C81.6992 17.7206 81.9309 18.0065 82.22 18.2256C82.5069 18.4364 82.8048 18.6319 83.1123 18.8114C83.174 18.8509 83.2424 18.88 83.3493 18.9354H75.4803C75.7032 18.8028 75.9133 18.6864 76.1143 18.5562C76.4494 18.3455 76.7463 18.0795 76.9923 17.7694C77.271 17.4225 77.4215 16.9902 77.4186 16.5452C77.4137 11.8812 77.4136 7.21722 77.4183 2.55322C77.4201 2.23267 77.3489 1.91592 77.21 1.62702C77.0712 1.33811 76.8683 1.08464 76.6168 0.885837C76.2803 0.610965 75.9016 0.392082 75.4954 0.237591H83.2191C83.0669 0.312371 82.9306 0.366274 82.8081 0.44237C82.5643 0.58299 82.3301 0.73943 82.1068 0.910682C81.8494 1.1107 81.642 1.36775 81.5008 1.66159C81.3597 1.95542 81.2887 2.27802 81.2934 2.60396C81.293 4.39999 81.2932 6.196 81.2937 7.99202C81.2937 8.04776 81.3001 8.10353 81.3052 8.18835C81.3852 8.20158 81.4658 8.21037 81.5468 8.21468C84.0668 8.21607 86.5869 8.21615 89.107 8.21491C89.18 8.21491 89.253 8.20135 89.3457 8.19217C89.3505 8.08839 89.3582 7.99704 89.3583 7.90571C89.359 6.17551 89.3524 4.44527 89.3617 2.71513C89.3764 2.35645 89.3021 1.99971 89.1455 1.67666C88.989 1.35361 88.755 1.07426 88.4645 0.863456C88.1523 0.628359 87.8064 0.437724 87.4874 0.234375H95.147C94.9902 0.311825 94.8663 0.370769 94.7446 0.433511C94.3104 0.641415 93.9304 0.947223 93.6345 1.32688C93.3744 1.66444 93.2339 2.07887 93.2351 2.50499C93.2374 7.22538 93.2374 11.9458 93.2351 16.6662C93.2347 17.3423 93.5594 17.8459 94.0455 18.2706C94.3704 18.5372 94.7276 18.7618 95.1088 18.9389Z" fill="#3D3D3D"/>
<path d="M38.158 0.231502H46.0298C45.8951 0.29637 45.8125 0.336129 45.73 0.375945C45.3446 0.552692 44.997 0.802418 44.7065 1.11133C44.3394 1.49717 44.1387 2.01182 44.1475 2.54433C44.1526 3.08964 44.1486 3.63504 44.1486 4.18041C44.1486 6.15503 44.1526 8.12965 44.1469 10.1043C44.1441 11.0721 44.1058 12.0402 44.1157 13.0078C44.0957 13.9203 44.2078 14.831 44.4483 15.7115C44.5441 16.0253 44.6698 16.3293 44.8235 16.6191C44.9964 16.9496 45.2338 17.2419 45.5218 17.4788C45.8097 17.7157 46.1424 17.8924 46.4999 17.9983C47.5021 18.3115 48.5727 18.333 49.5866 18.0601C50.6511 17.7865 51.3463 17.0978 51.7288 16.0785C51.9451 15.4667 52.0767 14.8282 52.12 14.1808C52.2398 12.8104 52.1608 11.4376 52.1602 10.0658C52.1601 9.7748 52.1396 9.48379 52.1394 9.19276C52.1375 7.00187 52.1278 4.81092 52.1441 2.62016C52.1567 2.27131 52.0823 1.92481 51.9276 1.61188C51.7729 1.29894 51.5429 1.02939 51.2581 0.8275C50.9545 0.598534 50.6102 0.423491 50.2963 0.231445H58.1861C57.9807 0.332311 57.8111 0.408859 57.6477 0.497067C57.2178 0.715262 56.8513 1.04038 56.5834 1.44116C56.3849 1.74064 56.2789 2.09186 56.2785 2.45113C56.2806 5.29081 56.2802 8.1305 56.2776 10.9702C56.276 11.806 56.2755 12.6434 56.2271 13.4773C56.2003 14.4387 55.9629 15.3826 55.5316 16.2424C55.0648 17.1002 54.3284 17.7804 53.4362 18.1777C52.6304 18.5411 51.7748 18.7818 50.8978 18.8919C49.621 19.0656 48.3306 19.117 47.0441 19.0453C45.9062 19.0192 44.7775 18.8355 43.6901 18.4994C42.7923 18.2359 41.983 17.7332 41.3489 17.045C40.8015 16.3949 40.4336 15.6129 40.2815 14.7767C40.1258 14.012 40.0499 13.2332 40.0552 12.4528C40.0531 9.22769 40.0438 6.00245 40.0734 2.7776C40.0828 1.7572 39.6386 1.05917 38.7988 0.5609C38.6064 0.44685 38.4005 0.355351 38.158 0.231502Z" fill="#3D3D3D"/>
<path d="M124.328 9.624C124.35 9.67343 124.376 9.72124 124.405 9.76711C125.337 11.0528 126.25 12.3528 127.208 13.6187C128.284 15.0131 129.562 16.2386 131.001 17.2543C131.9 17.9029 132.825 18.5144 133.738 19.1428C133.824 19.1953 133.897 19.2653 133.953 19.3482C133.805 19.3277 133.657 19.3106 133.509 19.2862C132.454 19.1106 131.394 18.9563 130.344 18.7518C128.598 18.4119 127.088 17.5784 125.715 16.472C124.471 15.45 123.365 14.2719 122.423 12.9668C121.849 12.1884 121.304 11.3878 120.746 10.5975C120.475 10.2138 120.203 9.8303 119.932 9.44697C119.879 9.37232 119.83 9.29534 119.764 9.19803C120.106 9.19803 120.416 9.21525 120.723 9.19511C122.266 9.09391 123.534 8.48329 124.381 7.14597C124.864 6.37439 125.076 5.46465 124.986 4.55919C124.963 4.10871 124.878 3.6636 124.732 3.23652C124.362 2.22704 123.622 1.61389 122.622 1.27918C122.04 1.09103 121.433 0.98912 120.822 0.976699C120.052 0.952249 119.28 0.962518 118.51 0.958794C118.471 0.963175 118.433 0.970506 118.396 0.980724C118.39 1.07407 118.378 1.1735 118.378 1.27296C118.377 2.07212 118.376 2.87128 118.377 3.67044C118.377 7.92948 118.385 12.1886 118.371 16.4476C118.357 16.8386 118.443 17.2267 118.618 17.5764C118.794 17.926 119.054 18.2261 119.376 18.4492C119.644 18.649 119.941 18.8107 120.22 18.9864C120.024 19.0377 112.921 19.0451 112.623 18.9857L112.911 18.8327C113.357 18.6084 113.754 18.2966 114.077 17.9157C114.375 17.5708 114.54 17.1308 114.542 16.6752C114.541 16.6281 114.542 16.5811 114.542 16.5341C114.542 11.9366 114.544 7.33907 114.547 2.74156C114.559 2.35001 114.467 1.96228 114.281 1.61773C114.094 1.27318 113.82 0.984078 113.486 0.779763C113.278 0.652039 113.064 0.534935 112.845 0.428905C112.772 0.390349 112.697 0.358094 112.562 0.294505H112.903C115.789 0.294505 118.676 0.289653 121.562 0.297195C122.54 0.292788 123.515 0.401562 124.468 0.621346C125.541 0.876172 126.546 1.27634 127.383 2.02139C127.801 2.38229 128.136 2.8282 128.368 3.32929C128.599 3.83038 128.721 4.37511 128.725 4.92702C128.725 5.58023 128.524 6.21769 128.15 6.75325C127.761 7.34294 127.274 7.86187 126.71 8.28771C126.065 8.79172 125.35 9.19856 124.587 9.49528C124.517 9.52248 124.448 9.55114 124.379 9.58125C124.36 9.59341 124.343 9.60776 124.328 9.624Z" fill="#3D3D3D"/>
<path d="M37.2409 9.49789C37.2783 10.8629 37.0857 12.2245 36.6712 13.5256C35.7812 16.1912 33.9603 17.8827 31.2781 18.6594C29.9173 19.0381 28.498 19.1616 27.0922 19.0235C25.9474 18.94 24.8259 18.6572 23.7783 18.1881C22.8787 17.7867 22.0682 17.2098 21.3943 16.4911C20.7205 15.7725 20.1969 14.9266 19.8541 14.003C19.4737 13.001 19.2418 11.9487 19.1659 10.8796C19.0865 9.95236 19.0906 9.01986 19.1782 8.09336C19.3211 6.6105 19.683 5.19173 20.4595 3.90112C21.3799 2.37148 22.8221 1.22606 24.5205 0.675953C25.6165 0.304827 26.7651 0.112213 27.9222 0.105477C29.0599 0.0722754 30.1962 0.208253 31.2939 0.508959C33.4465 1.12493 35.1111 2.35917 36.1555 4.37035C36.5933 5.23443 36.8956 6.1607 37.0518 7.11668C37.1909 7.90253 37.2542 8.69992 37.2409 9.49789ZM22.856 9.54573C22.8846 10.0614 22.9052 10.5776 22.9434 11.0926C23.0187 12.1995 23.2469 13.2907 23.6217 14.335C23.9614 15.3454 24.5269 16.265 25.2751 17.0242C25.9866 17.7517 26.9456 18.185 27.9618 18.2381C28.9779 18.2913 29.9769 17.9603 30.7604 17.3111C31.487 16.708 32.0605 15.9415 32.4342 15.0743C33.2762 13.2418 33.5118 11.2931 33.4877 9.304C33.472 8.62824 33.4204 7.95379 33.3333 7.28348C33.2101 6.1804 32.9126 5.10387 32.4519 4.09405C32.059 3.17306 31.4427 2.36452 30.6588 1.74152C30.2258 1.39971 29.7263 1.15197 29.1922 1.01411C28.658 0.876253 28.101 0.851318 27.5567 0.940897C26.5444 1.1063 25.6266 1.63367 24.974 2.42496C24.3026 3.21487 23.8029 4.13583 23.5067 5.12928C23.0671 6.55991 22.8476 8.0491 22.856 9.54573Z" fill="#3D3D3D"/>
<path d="M140.593 0.104121C142.006 0.067377 143.412 0.31741 144.726 0.839127C146.963 1.75277 148.418 3.39133 149.164 5.67459C149.453 6.59828 149.628 7.55421 149.683 8.52067C149.763 9.6082 149.72 10.7012 149.556 11.7792C149.281 13.5617 148.646 15.1856 147.386 16.5183C146.518 17.4248 145.441 18.1045 144.248 18.4979C142.963 18.928 141.609 19.1191 140.254 19.0618C139.002 19.0411 137.764 18.7955 136.599 18.3368C134.422 17.4538 132.974 15.8798 132.201 13.6754C131.874 12.7041 131.677 11.694 131.615 10.6712C131.542 9.68705 131.566 8.69801 131.686 7.71843C131.827 6.30211 132.288 4.93629 133.033 3.72378C134.014 2.18493 135.414 1.19476 137.128 0.623082C138.246 0.261554 139.417 0.0862334 140.593 0.104121ZM135.338 9.56115C135.331 10.3883 135.391 11.2146 135.515 12.0323C135.655 13.0565 135.936 14.0564 136.35 15.0037C136.728 15.9091 137.311 16.7145 138.053 17.3565C138.75 17.9571 139.635 18.2961 140.555 18.3149C141.817 18.3395 142.85 17.8286 143.702 16.9252C144.391 16.1631 144.912 15.2645 145.231 14.2879C145.65 13.0499 145.888 11.7577 145.937 10.4515C145.986 9.50354 145.956 8.55309 145.848 7.61002C145.733 6.48792 145.462 5.38746 145.041 4.34096C144.67 3.36091 144.063 2.48729 143.274 1.79708C142.191 0.894102 140.958 0.590056 139.587 0.954493C138.633 1.20793 137.898 1.79407 137.29 2.55213C136.728 3.27264 136.299 4.0869 136.022 4.95715C135.547 6.44481 135.316 7.9996 135.338 9.56115Z" fill="#3D3D3D"/>
<path d="M153.44 4.19175C153.44 4.32957 153.441 4.46739 153.44 4.6052C153.432 7.40666 153.424 10.2081 153.416 13.0096C153.413 14.1565 153.419 15.3037 153.398 16.4503C153.386 16.7803 153.452 17.1085 153.592 17.4078C153.732 17.7071 153.94 17.9688 154.201 18.1714C154.47 18.3746 154.751 18.5626 155.041 18.7344C155.117 18.7839 155.201 18.8211 155.338 18.8945H150.188L150.178 18.8597C150.276 18.8104 150.376 18.7632 150.473 18.7115C150.93 18.487 151.332 18.1638 151.649 17.7653C151.916 17.4211 152.059 16.9973 152.055 16.5619C152.051 11.8889 152.052 7.21576 152.056 2.54267C152.067 2.20293 151.992 1.866 151.837 1.56331C151.682 1.26062 151.454 1.00202 151.172 0.811642C150.888 0.630601 150.591 0.46949 150.285 0.329468C150.216 0.298943 150.146 0.272897 150.074 0.251491H155.03C158.396 4.12667 161.732 7.98214 165.076 11.8302L165.135 11.806C165.135 11.7067 165.135 11.6073 165.135 11.508C165.135 8.53681 165.136 5.56558 165.138 2.59435C165.147 2.24063 165.069 1.89012 164.913 1.57288C164.756 1.25563 164.525 0.981112 164.239 0.77286C163.899 0.51907 163.523 0.319914 163.122 0.182617H168.381C168.254 0.239793 168.156 0.283483 168.059 0.32802C167.687 0.489214 167.35 0.721287 167.066 1.01129C166.878 1.20216 166.729 1.42852 166.629 1.67724C166.529 1.92596 166.479 2.1921 166.482 2.46025C166.487 7.83855 166.488 13.2168 166.485 18.5952V18.9217L166.434 18.9429L153.505 4.16854L153.44 4.19175Z" fill="#3D3D3D"/>
<path d="M97.4351 0.182617H110.142L110.963 3.01824C110.783 2.82441 110.628 2.64208 110.457 2.4762C109.864 1.93383 109.134 1.56464 108.346 1.40888C107.622 1.24004 106.884 1.14279 106.142 1.11853C105.326 1.08815 104.508 1.07151 103.691 1.04986C103.589 1.04713 103.486 1.04948 103.39 1.04948C103.326 1.26216 103.302 7.84105 103.36 8.31237C103.401 8.32668 103.443 8.33632 103.486 8.34111C104.173 8.34611 104.859 8.35785 105.545 8.34974C106.599 8.36207 107.621 7.99326 108.425 7.31123C108.453 7.29272 108.482 7.27667 108.513 7.26327V10.7022C108.456 10.6713 108.402 10.6366 108.35 10.5983C107.749 10.0942 107.012 9.77889 106.232 9.69195C105.445 9.58244 104.655 9.64104 103.867 9.64076C103.7 9.64076 103.533 9.64076 103.352 9.64076V17.9705C103.387 17.9834 103.422 17.9923 103.459 17.9968C105.002 18.0008 106.54 17.938 108.054 17.6029C108.848 17.446 109.605 17.1372 110.283 16.6934C110.617 16.4648 110.917 16.1904 111.175 15.8783C111.226 15.8168 111.28 15.7577 111.354 15.6739C111.035 16.7673 110.726 17.8257 110.415 18.896H97.4752C97.6894 18.7769 97.8546 18.6919 98.0129 18.5958C98.4231 18.3628 98.7782 18.0442 99.0543 17.6617C99.2883 17.329 99.4131 16.9319 99.4114 16.5252C99.409 11.8616 99.4092 7.19794 99.4118 2.53432C99.4105 2.22318 99.3404 1.91617 99.2066 1.63526C99.0728 1.35434 98.8786 1.10646 98.6379 0.909329C98.2785 0.604196 97.8724 0.358829 97.4351 0.182617Z" fill="#3D3D3D"/>
<path d="M73.1969 0.774179C73.4533 1.70127 73.7154 2.64859 73.9775 3.59592L73.9285 3.62389C73.8804 3.56683 73.8295 3.51196 73.7848 3.45236C72.8541 2.17877 71.4828 1.29713 69.9378 0.979145C68.18 0.596051 66.7135 1.11174 65.5036 2.41271C64.5783 3.40781 64.0375 4.60919 63.6924 5.90361C63.3013 7.41628 63.1589 8.98252 63.271 10.5409C63.3306 11.6956 63.5448 12.8372 63.9079 13.9349C64.2421 14.9866 64.8016 15.9527 65.5475 16.7659C66.2508 17.551 67.2088 18.0623 68.2525 18.2096C68.9461 18.2873 69.6482 18.2243 70.3168 18.0243C71.6995 17.6511 72.9153 16.8211 73.7667 15.6694C73.8161 15.5992 73.8759 15.537 73.9442 15.4849C73.7359 16.4551 73.4413 17.3987 73.1873 18.3563C72.6683 18.5342 72.138 18.6772 71.5999 18.7844C70.4445 19.0008 69.2676 19.0797 68.0936 19.0197C67.0223 19.0018 65.9561 18.8652 64.9149 18.6123C63.8507 18.3626 62.8476 17.9014 61.9652 17.2563C60.7166 16.3198 59.9299 15.0649 59.467 13.5934C59.1208 12.4498 58.9413 11.2623 58.9341 10.0675C58.8993 9.04311 58.9612 8.01772 59.1192 7.00497C59.2926 5.85032 59.6847 4.73934 60.2743 3.73154C61.0866 2.40484 62.3223 1.39059 63.782 0.852551C64.7316 0.494167 65.7245 0.262928 66.7348 0.164846C67.6789 0.0659651 68.6288 0.0324325 69.5775 0.0644879C70.7532 0.0905435 71.9179 0.298044 73.0303 0.679651C73.0656 0.691774 73.1001 0.706025 73.1337 0.722326C73.1563 0.737692 73.1774 0.755045 73.1969 0.774179Z" fill="#3D3D3D"/>
<path d="M51.0783 27.7529C51.2109 27.7527 51.3427 27.7729 51.4691 27.8129C51.5923 27.8512 51.7065 27.914 51.8048 27.9975C51.9042 28.0832 51.9836 28.1896 52.0375 28.3093C52.0979 28.4483 52.1274 28.5989 52.1238 28.7505C52.1283 28.9177 52.0989 29.0841 52.0375 29.2397C51.9862 29.365 51.9076 29.4773 51.8072 29.5682C51.7108 29.6532 51.5971 29.7162 51.4739 29.7529C51.3456 29.7915 51.2123 29.8109 51.0783 29.8104H49.5196V31.3499H49.0016V27.7529H51.0783ZM49.5196 28.2709V29.2925H51.0783C51.1769 29.297 51.2754 29.2789 51.366 29.2397C51.4294 29.2103 51.484 29.1649 51.5243 29.1078C51.5591 29.0559 51.582 28.9969 51.5914 28.9351C51.6008 28.8756 51.6056 28.8155 51.6058 28.7553C51.6076 28.6919 51.5969 28.6287 51.5742 28.5695C51.5516 28.5102 51.5175 28.456 51.4739 28.41C51.4212 28.3606 51.3588 28.3228 51.2907 28.2988C51.2226 28.2749 51.1502 28.2654 51.0783 28.2709H49.5196Z" fill="#3D3D3D"/>
<path d="M56.8467 31.3499H56.2615L55.7484 30.1653H54.1417L53.6094 31.3499H53.0435L54.6693 27.7529H55.2448L56.8467 31.3499ZM54.9474 28.3956L54.3815 29.6474H55.5134L54.9474 28.3956Z" fill="#3D3D3D"/>
<path d="M60.332 27.7529C60.4739 27.7527 60.6151 27.772 60.7517 27.8105C60.8822 27.8462 61.0044 27.9073 61.1114 27.9903C61.2185 28.076 61.3047 28.1851 61.3631 28.3093C61.4305 28.4566 61.4633 28.6174 61.4591 28.7793C61.4642 28.9466 61.4348 29.1131 61.3727 29.2685C61.3232 29.3877 61.2507 29.4961 61.1593 29.5874C61.0824 29.6638 60.9911 29.7241 60.8907 29.7648C60.8088 29.7986 60.7223 29.8204 60.6342 29.8296L61.3776 31.3499H60.7876L60.0682 29.8488H58.7301V31.35H58.2122V27.753L60.332 27.7529ZM58.7302 28.2709V29.3308H60.332C60.4951 29.3415 60.6561 29.2901 60.7829 29.1869C60.8371 29.1344 60.8793 29.0708 60.9066 29.0005C60.934 28.9301 60.9457 28.8546 60.9411 28.7793C60.9445 28.6923 60.9263 28.6058 60.8883 28.5275C60.8556 28.4648 60.8078 28.4112 60.7492 28.3716C60.6895 28.3324 60.6227 28.3055 60.5525 28.2925C60.4799 28.2782 60.406 28.2709 60.3319 28.2709H58.7302Z" fill="#3D3D3D"/>
<path d="M63.5241 27.7529V31.3499H63.0061V27.7529H63.5241Z" fill="#3D3D3D"/>
<path d="M65.3491 30.3492C65.4098 30.3907 65.4785 30.4435 65.5553 30.5074C65.6436 30.5789 65.7392 30.6408 65.8406 30.6921C65.9693 30.7571 66.1043 30.8085 66.2435 30.8455C66.426 30.892 66.6139 30.9138 66.8022 30.9103C66.9308 30.9097 67.0592 30.8985 67.1859 30.8767C67.3138 30.8563 67.4387 30.82 67.5576 30.7688C67.6628 30.7249 67.7582 30.6605 67.8382 30.5794C67.8744 30.5419 67.9028 30.4976 67.9218 30.449C67.9407 30.4004 67.9498 30.3485 67.9485 30.2964C67.9565 30.1726 67.9161 30.0505 67.8358 29.9559C67.758 29.8743 67.6605 29.8141 67.5528 29.7808C67.4339 29.7431 67.3106 29.7214 67.1859 29.7161C67.0548 29.7097 66.9333 29.7065 66.8214 29.7065H66.2843C66.1586 29.7059 66.0335 29.6882 65.9126 29.6538C65.7895 29.6202 65.6734 29.565 65.5697 29.4907C65.4657 29.4154 65.3797 29.3179 65.3179 29.2054C65.2459 29.0616 65.2125 28.9016 65.2209 28.741C65.2293 28.5805 65.2792 28.4248 65.3659 28.2894C65.4637 28.1499 65.5895 28.0324 65.7352 27.944C65.8874 27.8515 66.0533 27.7835 66.2267 27.7426C66.3962 27.7006 66.5701 27.6789 66.7447 27.6778C66.9304 27.676 67.1156 27.697 67.2963 27.7402C67.4454 27.7762 67.5914 27.8243 67.7327 27.8841C67.8403 27.9294 67.9438 27.9839 68.042 28.0471C68.1235 28.1016 68.1819 28.1415 68.2171 28.167L67.9245 28.5843C67.8478 28.5396 67.7718 28.494 67.6967 28.4476C67.6186 28.3998 67.5368 28.3581 67.4522 28.3229C67.3553 28.2835 67.255 28.2529 67.1525 28.2318C67.023 28.2061 66.8912 28.1941 66.7592 28.1958C66.6417 28.1964 66.5245 28.2076 66.4091 28.2294C66.2948 28.2496 66.1836 28.2842 66.0782 28.3325C65.9845 28.3749 65.901 28.4371 65.8337 28.5148C65.7695 28.5903 65.7354 28.6867 65.7378 28.7857C65.7378 29.0608 65.9424 29.1982 66.3516 29.1982H66.8264C67.0312 29.1977 67.2357 29.2138 67.4379 29.2461C67.6211 29.2737 67.7985 29.3313 67.9631 29.4164C68.1126 29.4943 68.2391 29.6101 68.33 29.7521C68.4273 29.9182 68.4748 30.1089 68.4667 30.3013C68.4706 30.4761 68.4221 30.6482 68.3275 30.7953C68.231 30.9395 68.1031 31.06 67.9534 31.1478C67.7852 31.2467 67.6022 31.3179 67.4115 31.3588C67.2005 31.4059 66.9849 31.4292 66.7688 31.4284C66.5311 31.4326 66.2939 31.4044 66.0638 31.3445C65.8868 31.2969 65.7155 31.2302 65.553 31.1454C65.427 31.08 65.3095 30.9995 65.2029 30.9056C65.1118 30.8226 65.0391 30.7538 64.9847 30.6995L65.3491 30.3492Z" fill="#3D3D3D"/>
<path d="M73.9969 27.7537C74.2752 27.7457 74.5516 27.8015 74.805 27.9167C75.015 28.0161 75.2015 28.1592 75.3518 28.3364C75.4926 28.5049 75.5986 28.6997 75.6635 28.9095C75.7276 29.1112 75.7607 29.3214 75.7618 29.533C75.7636 29.7759 75.7189 30.0168 75.6299 30.2428C75.5459 30.4572 75.4213 30.6534 75.263 30.8207C75.1048 30.9865 74.9148 31.1186 74.7043 31.2092C74.4809 31.305 74.24 31.3532 73.9969 31.3507H72.3423V27.7537H73.9969ZM72.8603 28.2716V30.8327H73.9969C74.194 30.8381 74.3892 30.7944 74.5652 30.7056C74.7155 30.6275 74.8478 30.5189 74.9537 30.3867C75.0528 30.2618 75.1277 30.1195 75.1743 29.967C75.2186 29.8282 75.2421 29.6835 75.2439 29.5378C75.2465 29.3599 75.2147 29.1833 75.1504 29.0174C75.092 28.8685 75.0039 28.7331 74.8914 28.6194C74.7792 28.5079 74.6454 28.4205 74.4981 28.3628C74.3385 28.3006 74.1683 28.2696 73.997 28.2716H72.8603Z" fill="#3D3D3D"/>
<path d="M80.2972 27.7529V28.2709H77.8704V29.2157H79.0934V29.7337H77.8704V30.832H80.3883V31.3499H77.3524V27.7529L80.2972 27.7529Z" fill="#3D3D3D"/>
<path d="M84.0718 27.7529C84.2044 27.7527 84.3362 27.7729 84.4626 27.8129C84.5858 27.8512 84.7 27.914 84.7984 27.9975C84.8977 28.0832 84.9771 28.1896 85.031 28.3093C85.0914 28.4483 85.1209 28.5989 85.1173 28.7505C85.1218 28.9177 85.0924 29.0841 85.031 29.2397C84.9798 29.365 84.9011 29.4773 84.8008 29.5682C84.7043 29.6532 84.5906 29.7162 84.4674 29.7529C84.3391 29.7915 84.2058 29.8109 84.0718 29.8104H82.5131V31.3499H81.9951V27.7529H84.0718ZM82.5131 28.2709V29.2925H84.0718C84.1705 29.297 84.2689 29.2789 84.3595 29.2397C84.4229 29.2103 84.4775 29.1649 84.5178 29.1078C84.5526 29.0559 84.5755 28.9969 84.5849 28.9351C84.5943 28.8756 84.5991 28.8155 84.5993 28.7553C84.6011 28.6919 84.5904 28.6287 84.5677 28.5695C84.5451 28.5102 84.511 28.456 84.4674 28.41C84.4147 28.3606 84.3523 28.3228 84.2842 28.2988C84.2161 28.2749 84.1438 28.2654 84.0718 28.2709H82.5131Z" fill="#3D3D3D"/>
<path d="M89.8829 29.9927C89.8826 30.1647 89.8625 30.336 89.823 30.5034C89.7832 30.674 89.7035 30.8326 89.5903 30.9662C89.4593 31.115 89.2938 31.2294 89.1084 31.2996C88.5862 31.469 88.0239 31.469 87.5017 31.2996C87.3163 31.2294 87.1508 31.115 87.0197 30.9662C86.9065 30.8326 86.8268 30.674 86.7871 30.5034C86.7476 30.336 86.7274 30.1647 86.7272 29.9927V27.7529H87.2451V29.9927C87.244 30.1158 87.2602 30.2385 87.2931 30.3572C87.3236 30.4665 87.3813 30.5664 87.4609 30.6473C87.5523 30.7358 87.6632 30.8015 87.7847 30.8392C88.1254 30.9319 88.4847 30.9319 88.8254 30.8392C88.9469 30.8015 89.0578 30.7358 89.1492 30.6473C89.2287 30.5663 89.2864 30.4665 89.317 30.3572C89.3498 30.2385 89.366 30.1158 89.3649 29.9927V27.7529H89.8829V29.9927Z" fill="#3D3D3D"/>
<path d="M92.37 27.7529V31.3499H91.8521V27.7529H92.37Z" fill="#3D3D3D"/>
<path d="M94.1966 30.3492C94.2572 30.3907 94.326 30.4435 94.4028 30.5074C94.4911 30.5789 94.5867 30.6408 94.6881 30.6921C94.8167 30.7571 94.9517 30.8085 95.091 30.8455C95.2735 30.892 95.4614 30.9138 95.6497 30.9103C95.7783 30.9097 95.9066 30.8985 96.0334 30.8767C96.1613 30.8563 96.2861 30.82 96.4051 30.7688C96.5102 30.7249 96.6056 30.6605 96.6857 30.5794C96.7219 30.5419 96.7503 30.4976 96.7692 30.449C96.7882 30.4004 96.7973 30.3485 96.796 30.2964C96.8039 30.1726 96.7635 30.0505 96.6831 29.9559C96.6053 29.8743 96.5079 29.8141 96.4002 29.7808C96.2813 29.7432 96.1579 29.7214 96.0333 29.7161C95.9021 29.7097 95.7806 29.7065 95.6688 29.7065H95.1317C95.006 29.7059 94.8809 29.6882 94.76 29.6538C94.6369 29.6202 94.5208 29.565 94.4171 29.4907C94.3131 29.4154 94.2271 29.3179 94.1653 29.2054C94.0933 29.0616 94.0598 28.9016 94.0682 28.741C94.0766 28.5805 94.1266 28.4248 94.2133 28.2894C94.3111 28.1499 94.4369 28.0323 94.5825 27.944C94.7348 27.8514 94.9007 27.7835 95.0741 27.7426C95.2436 27.7006 95.4175 27.6789 95.5921 27.6778C95.7778 27.676 95.963 27.697 96.1436 27.7402C96.2928 27.7761 96.4388 27.8243 96.5801 27.8841C96.6877 27.9294 96.7912 27.9839 96.8894 28.0471C96.9709 28.1016 97.0292 28.1415 97.0645 28.167L96.7719 28.5843C96.6952 28.5396 96.6192 28.494 96.5441 28.4476C96.4659 28.3998 96.3841 28.3581 96.2995 28.3229C96.2026 28.2835 96.1022 28.2529 95.9997 28.2318C95.8703 28.2061 95.7385 28.1941 95.6065 28.1958C95.489 28.1964 95.3718 28.2076 95.2564 28.2294C95.1421 28.2495 95.0309 28.2842 94.9254 28.3325C94.8316 28.3749 94.7482 28.4371 94.6809 28.5148C94.6167 28.5903 94.5826 28.6867 94.5849 28.7857C94.5849 29.0608 94.7896 29.1982 95.1988 29.1982H95.6736C95.8784 29.1977 96.0829 29.2138 96.2851 29.2461C96.4683 29.2737 96.6457 29.3313 96.8103 29.4164C96.9598 29.4944 97.0863 29.6101 97.1771 29.7521C97.2745 29.9182 97.322 30.1089 97.3139 30.3013C97.3178 30.4761 97.2693 30.6482 97.1747 30.7953C97.0782 30.9395 96.9503 31.06 96.8006 31.1478C96.6324 31.2467 96.4494 31.3179 96.2586 31.3588C96.0477 31.4059 95.8321 31.4292 95.616 31.4284C95.3783 31.4326 95.1411 31.4044 94.911 31.3445C94.734 31.2969 94.5627 31.2302 94.4002 31.1454C94.2742 31.08 94.1566 30.9995 94.0501 30.9056C93.959 30.8226 93.8862 30.7538 93.8319 30.6995L94.1966 30.3492Z" fill="#3D3D3D"/>
<path d="M102.622 31.3487H102.126V27.6699H102.622V31.3487Z" fill="#3D3D3D"/>
<path d="M109.054 30.41C109.055 30.5676 109.009 30.7219 108.921 30.8529C108.822 30.9967 108.689 31.1147 108.535 31.1971C108.34 31.3023 108.131 31.3774 107.914 31.42C107.639 31.4756 107.359 31.5021 107.079 31.499C106.798 31.5014 106.518 31.4778 106.241 31.4285C106.019 31.3909 105.804 31.3186 105.604 31.2141C105.443 31.1306 105.304 31.0096 105.2 30.8614C105.104 30.716 105.055 30.5447 105.059 30.3705C105.057 30.2532 105.08 30.1368 105.127 30.0292C105.17 29.932 105.23 29.8432 105.305 29.7668C105.377 29.6922 105.459 29.6269 105.547 29.5722C105.631 29.5202 105.718 29.4758 105.81 29.4396C105.776 29.4133 105.732 29.3776 105.677 29.3323C105.619 29.2835 105.566 29.2286 105.519 29.1687C105.465 29.0992 105.421 29.0222 105.389 28.9402C105.352 28.8421 105.334 28.7377 105.336 28.6327C105.329 28.4591 105.38 28.2882 105.482 28.1475C105.585 28.0156 105.719 27.911 105.872 27.8428C106.049 27.7631 106.237 27.7098 106.43 27.6848C106.645 27.6544 106.862 27.6393 107.079 27.6397C107.181 27.6397 107.293 27.6434 107.415 27.6509C107.541 27.659 107.666 27.676 107.79 27.7017C107.916 27.7275 108.04 27.7634 108.16 27.8089C108.275 27.8521 108.382 27.913 108.478 27.9895C108.572 28.0646 108.649 28.1589 108.704 28.266C108.763 28.387 108.792 28.5206 108.789 28.6553C108.791 28.7575 108.773 28.8591 108.735 28.9543C108.703 29.0346 108.659 29.1097 108.605 29.1772C108.559 29.2349 108.507 29.2878 108.45 29.3352C108.398 29.3785 108.352 29.4133 108.315 29.4396C108.386 29.4772 108.465 29.5224 108.552 29.575C108.639 29.6286 108.72 29.6931 108.792 29.7668C108.868 29.8464 108.931 29.9379 108.978 30.0376C109.031 30.1544 109.057 30.2817 109.054 30.41ZM107.096 31.0024C107.324 31.0052 107.551 30.9901 107.776 30.9573C107.932 30.936 108.084 30.8933 108.227 30.8303C108.326 30.7882 108.413 30.7212 108.478 30.6357C108.53 30.5651 108.557 30.4802 108.557 30.3931C108.56 30.2801 108.522 30.17 108.45 30.0827C108.368 29.9888 108.265 29.9161 108.148 29.8712C107.998 29.8114 107.841 29.7715 107.68 29.7527C107.481 29.7272 107.28 29.7149 107.079 29.716C106.894 29.7158 106.709 29.728 106.526 29.7527C106.36 29.7737 106.196 29.8135 106.038 29.8712C105.909 29.9164 105.79 29.9874 105.688 30.0799C105.646 30.1181 105.613 30.1647 105.59 30.2167C105.567 30.2687 105.555 30.325 105.556 30.3818C105.556 30.5623 105.685 30.7109 105.942 30.8275C106.311 30.9628 106.704 31.0223 107.096 31.0024ZM107.079 29.2195C107.279 29.2236 107.479 29.2046 107.674 29.163C107.805 29.1353 107.931 29.0877 108.047 29.022C108.126 28.9786 108.192 28.9154 108.239 28.8386C108.271 28.7829 108.29 28.7199 108.292 28.6552C108.293 28.5703 108.26 28.4884 108.202 28.4267C108.132 28.3541 108.046 28.2982 107.951 28.2631C107.826 28.2153 107.695 28.1831 107.562 28.1672C107.396 28.1457 107.229 28.1353 107.062 28.1361C106.867 28.1332 106.671 28.1474 106.478 28.1785C106.348 28.1989 106.221 28.2359 106.1 28.2885C106.019 28.3222 105.948 28.3767 105.894 28.4465C105.856 28.4989 105.834 28.5619 105.832 28.627C105.831 28.7211 105.864 28.8124 105.925 28.8837C105.997 28.9639 106.085 29.0266 106.185 29.0671C106.311 29.1206 106.444 29.1585 106.58 29.18C106.745 29.2073 106.912 29.2205 107.079 29.2195Z" fill="#3D3D3D"/>
<path d="M111.187 29.2858C111.409 29.2106 111.634 29.1438 111.861 29.0855C112.087 29.0275 112.319 28.9981 112.553 28.9981C112.817 28.9935 113.081 29.0296 113.334 29.1053C113.535 29.1653 113.724 29.2598 113.893 29.3846C114.033 29.4895 114.147 29.6257 114.226 29.7824C114.297 29.9261 114.335 30.0844 114.336 30.245C114.335 30.4099 114.29 30.5715 114.206 30.7133C114.11 30.8735 113.98 31.0103 113.825 31.1139C113.636 31.2405 113.427 31.3349 113.207 31.3932C112.933 31.4666 112.65 31.5017 112.366 31.4976C112.038 31.4974 111.711 31.446 111.399 31.3453C111.085 31.2455 110.783 31.1111 110.499 30.9447L110.792 30.5384C110.867 30.5798 110.957 30.6268 111.06 30.6795C111.174 30.7367 111.291 30.7876 111.41 30.8318C111.551 30.884 111.697 30.9246 111.844 30.9531C112.018 30.9864 112.195 31.0025 112.372 31.0011C112.53 30.9997 112.688 30.9846 112.843 30.9559C113.007 30.928 113.167 30.8807 113.32 30.8149C113.456 30.7576 113.582 30.6764 113.69 30.5751C113.737 30.531 113.775 30.4773 113.801 30.4175C113.827 30.3577 113.84 30.2932 113.839 30.2281C113.84 30.1145 113.802 30.004 113.732 29.9149C113.655 29.8181 113.558 29.7392 113.447 29.6836C113.317 29.6175 113.178 29.5701 113.035 29.5425C112.874 29.5101 112.711 29.4941 112.547 29.4945C112.399 29.4933 112.251 29.5037 112.104 29.5256C111.98 29.545 111.857 29.5733 111.737 29.6102C111.621 29.6464 111.508 29.6907 111.399 29.7428C111.288 29.7956 111.165 29.8539 111.029 29.9177L110.691 29.6243V27.7285H114.059V28.225H111.187L111.187 29.2858Z" fill="#3D3D3D"/>
<path d="M119.933 30.41C119.934 30.5676 119.888 30.7219 119.8 30.8529C119.701 30.9967 119.568 31.1147 119.414 31.1971C119.219 31.3023 119.01 31.3774 118.793 31.42C118.518 31.4756 118.238 31.5021 117.958 31.499C117.677 31.5014 117.397 31.4778 117.12 31.4285C116.898 31.3909 116.683 31.3186 116.483 31.2141C116.322 31.1306 116.183 31.0097 116.079 30.8614C115.983 30.716 115.934 30.5447 115.938 30.3705C115.936 30.2532 115.959 30.1368 116.006 30.0292C116.049 29.932 116.109 29.8432 116.184 29.7668C116.256 29.6922 116.338 29.6269 116.426 29.5722C116.509 29.5202 116.597 29.4758 116.688 29.4396C116.655 29.4133 116.61 29.3776 116.556 29.3323C116.498 29.2835 116.445 29.2286 116.398 29.1687C116.344 29.0992 116.3 29.0222 116.268 28.9402C116.231 28.8421 116.212 28.7377 116.215 28.6327C116.208 28.4591 116.259 28.2882 116.361 28.1475C116.464 28.0156 116.598 27.911 116.751 27.8428C116.928 27.7631 117.116 27.7098 117.309 27.6848C117.524 27.6544 117.741 27.6393 117.958 27.6397C118.06 27.6397 118.172 27.6434 118.294 27.6509C118.42 27.659 118.545 27.676 118.669 27.7017C118.795 27.7275 118.918 27.7633 119.039 27.8089C119.154 27.8521 119.261 27.913 119.357 27.9895C119.451 28.0646 119.528 28.1589 119.583 28.266C119.642 28.387 119.671 28.5206 119.668 28.6553C119.67 28.7575 119.651 28.8591 119.614 28.9543C119.582 29.0346 119.538 29.1097 119.484 29.1772C119.438 29.2348 119.386 29.2878 119.329 29.3352C119.277 29.3785 119.231 29.4133 119.194 29.4396C119.265 29.4772 119.344 29.5224 119.431 29.575C119.518 29.6286 119.599 29.6931 119.671 29.7668C119.747 29.8464 119.81 29.9379 119.857 30.0376C119.91 30.1544 119.936 30.2817 119.933 30.41ZM117.975 31.0024C118.202 31.0052 118.43 30.9901 118.655 30.9573C118.811 30.936 118.962 30.8933 119.106 30.8303C119.205 30.7882 119.292 30.7212 119.357 30.6357C119.409 30.5651 119.436 30.4802 119.436 30.3931C119.439 30.2801 119.401 30.17 119.329 30.0827C119.247 29.9888 119.144 29.9161 119.027 29.8712C118.877 29.8114 118.72 29.7715 118.559 29.7527C118.36 29.7272 118.159 29.7149 117.958 29.716C117.773 29.7158 117.588 29.728 117.405 29.7527C117.238 29.7737 117.075 29.8135 116.917 29.8712C116.788 29.9164 116.669 29.9874 116.567 30.0799C116.525 30.1181 116.492 30.1647 116.469 30.2167C116.446 30.2687 116.434 30.325 116.435 30.3818C116.435 30.5623 116.563 30.7109 116.821 30.8275C117.19 30.9628 117.583 31.0223 117.975 31.0024ZM117.958 29.2195C118.158 29.2236 118.358 29.2046 118.553 29.163C118.684 29.1353 118.809 29.0877 118.926 29.022C119.005 28.9786 119.071 28.9154 119.118 28.8386C119.15 28.7829 119.169 28.7199 119.171 28.6552C119.172 28.5703 119.139 28.4884 119.081 28.4267C119.01 28.3541 118.925 28.2982 118.83 28.2631C118.704 28.2153 118.574 28.1831 118.44 28.1672C118.275 28.1457 118.108 28.1353 117.941 28.1361C117.746 28.1332 117.55 28.1474 117.357 28.1785C117.227 28.1989 117.1 28.2359 116.979 28.2885C116.898 28.3222 116.827 28.3767 116.773 28.4465C116.734 28.4989 116.713 28.5619 116.711 28.627C116.71 28.7211 116.743 28.8124 116.804 28.8837C116.876 28.9639 116.964 29.0266 117.064 29.0671C117.19 29.1206 117.323 29.1585 117.459 29.18C117.624 29.2073 117.791 29.2205 117.958 29.2195Z" fill="#3D3D3D"/>
</g>
<defs>
<clipPath id="clip0_5037_5018">
<rect width="168.381" height="31.5013" fill="white"/>
</clipPath>
</defs>
</svg>
