<svg width="116" height="39" viewBox="0 0 116 39" fill="none" xmlns="http://www.w3.org/2000/svg">
<g clip-path="url(#clip0_5037_5136)">
<mask id="mask0_5037_5136" style="mask-type:luminance" maskUnits="userSpaceOnUse" x="-1" y="-1" width="117" height="40">
<path d="M115.701 -0.00292969H-0.000610352V38.0633H115.701V-0.00292969Z" fill="white"/>
</mask>
<g mask="url(#mask0_5037_5136)">
<path d="M58.1801 38.0558H66.3648V36.7408H59.9209V26.8312H58.1801V38.0558ZM49.5909 30.1576C49.8587 29.4479 50.0622 29.0059 50.2738 28.2828C50.464 28.8988 50.6756 29.4077 51.0344 30.3504L52.4887 34.1H48.1178L49.5909 30.1576ZM45.0673 38.0558H46.6742L47.5741 35.4713L53.011 35.4338L54.018 38.0558H55.7321L51.0987 26.8392H49.4409L45.0673 38.0558ZM76.5101 34.0759H80.8837L79.4294 30.3263C79.0705 29.3836 78.859 28.8747 78.6688 28.2587C78.4572 28.9926 78.2483 29.4345 77.9858 30.1335L76.5101 34.0759ZM73.4596 38.0558L77.8251 26.8392H79.483L84.1164 38.0558H82.4023L81.3953 35.4338L75.9584 35.4713L75.0585 38.0558H73.4596ZM39.3974 38.0558V28.1462H35.0854V26.8312H45.4663V28.1462H41.1382V38.0558H39.3974ZM69.1984 38.0558H70.8536V26.791H69.1984V38.0558ZM31.7723 26.791H33.4248V38.0558H31.7723V26.791Z" fill="#231F20"/>
<path d="M24.7982 9.98544L32.8812 10.0122C33.1062 6.27871 32.8411 3.02997 28.8478 3.00587C24.8545 2.98176 24.5732 6.28943 24.7982 9.98544ZM36.454 7.00452C36.4583 7.05532 36.4583 7.10638 36.454 7.15718V18.9416C36.4533 19.1452 36.3721 19.3403 36.2281 19.4843C36.0841 19.6283 35.889 19.7095 35.6854 19.7102H33.7517C33.548 19.7095 33.3529 19.6283 33.2089 19.4843C33.0649 19.3403 32.9837 19.1452 32.983 18.9416V13.2235L32.8598 13.0547L24.7902 13.0762V18.9067C24.7902 19.1198 24.7055 19.3242 24.5548 19.4749C24.4042 19.6256 24.1998 19.7102 23.9867 19.7102H21.9619C21.7488 19.7102 21.5445 19.6256 21.3938 19.4749C21.2431 19.3242 21.1585 19.1198 21.1585 18.9067V8.1294L21.1236 7.96602C21.1022 5.35203 21.6646 3.45582 23.0172 2.13811C26.3195 -1.07581 36.0389 -1.57665 36.454 7.00452Z" fill="#231F20"/>
<path d="M39.0087 0.573464H53.3616C53.546 0.57417 53.7227 0.647762 53.8532 0.7782C53.9836 0.908638 54.0572 1.08535 54.0579 1.26981V2.60895C54.0572 2.79341 53.9836 2.97012 53.8532 3.10056C53.7227 3.231 53.546 3.30459 53.3616 3.3053H47.8202V18.9839C47.8195 19.1683 47.7459 19.3451 47.6155 19.4755C47.4851 19.6059 47.3083 19.6795 47.1239 19.6802H45.217C45.0325 19.6795 44.8558 19.6059 44.7253 19.4755C44.5949 19.3451 44.5213 19.1683 44.5206 18.9839V3.29726H39.0087C38.8243 3.29656 38.6476 3.22297 38.5171 3.09253C38.3867 2.96209 38.3131 2.78538 38.3124 2.60091V1.26178C38.3131 1.07731 38.3867 0.900603 38.5171 0.770165C38.6476 0.639727 38.8243 0.566135 39.0087 0.56543" fill="#231F20"/>
<path d="M0.685026 0.759005H2.62409C2.75339 0.740069 2.88539 0.754765 3.00736 0.801676C3.12933 0.848587 3.23716 0.926131 3.32044 1.02683L13.3586 13.9655V1.44464C13.3586 1.3546 13.3763 1.26544 13.4108 1.18226C13.4452 1.09907 13.4957 1.02349 13.5594 0.959823C13.6231 0.896156 13.6987 0.845652 13.7818 0.811196C13.865 0.776739 13.9542 0.759005 14.0442 0.759005H15.919C16.1006 0.75971 16.2746 0.832173 16.4031 0.960602C16.5315 1.08903 16.6039 1.26302 16.6047 1.44464V18.9953C16.6039 19.177 16.5315 19.3509 16.4031 19.4794C16.2746 19.6078 16.1006 19.6803 15.919 19.681H14.0442C13.5621 19.681 13.2622 19.6087 13.0372 19.2846L3.24277 6.64852V18.9953C3.24277 19.1772 3.17054 19.3516 3.04195 19.4801C2.91337 19.6087 2.73898 19.681 2.55714 19.681H0.682348C0.50097 19.6803 0.327263 19.6077 0.19926 19.4792C0.071257 19.3507 -0.000611735 19.1767 -0.000610352 18.9953L-0.000610352 1.44464C-0.000610352 1.2628 0.0716262 1.0884 0.200208 0.959823C0.32879 0.831241 0.503184 0.759005 0.685026 0.759005Z" fill="#231F20"/>
<path d="M75.8668 19.0049V17.2961C75.8702 17.0943 75.9305 16.8974 76.0409 16.7284L86.9093 3.73875H77.0131C76.8469 3.73875 76.6875 3.67273 76.57 3.55519C76.4524 3.43766 76.3864 3.27825 76.3864 3.11204V1.39259C76.3871 1.22684 76.4535 1.06812 76.5709 0.951167C76.6884 0.834214 76.8474 0.768553 77.0131 0.768555H90.2572C90.4224 0.76926 90.5808 0.835232 90.6976 0.952109C90.8145 1.06899 90.8805 1.2273 90.8812 1.39259V2.99955C90.8808 3.18762 90.8145 3.36959 90.6937 3.51378L79.9539 16.6775H90.1072C90.2729 16.6782 90.4316 16.7445 90.5486 16.862C90.6655 16.9794 90.7312 17.1384 90.7312 17.3042V19.0049C90.7305 19.1704 90.6646 19.329 90.5478 19.4463C90.431 19.5636 90.2727 19.6302 90.1072 19.6316H76.4909C76.3253 19.6302 76.167 19.5636 76.0502 19.4463C75.9334 19.329 75.8675 19.1704 75.8668 19.0049Z" fill="#231F20"/>
<path d="M93.6589 19.0049V17.2961C93.6623 17.0943 93.7226 16.8974 93.833 16.7284L104.701 3.73875H94.8106C94.6444 3.73875 94.485 3.67273 94.3674 3.55519C94.2499 3.43766 94.1839 3.27825 94.1839 3.11204V1.39259C94.1846 1.22684 94.2509 1.06812 94.3684 0.951167C94.4858 0.834214 94.6448 0.768553 94.8106 0.768555H108.041C108.207 0.768553 108.366 0.834214 108.483 0.951167C108.601 1.06812 108.667 1.22684 108.668 1.39259V2.99955C108.668 3.18762 108.601 3.36959 108.48 3.51378L97.7406 16.6775H107.894C108.06 16.6782 108.218 16.7445 108.335 16.862C108.452 16.9794 108.518 17.1384 108.518 17.3042V19.0049C108.517 19.1704 108.451 19.329 108.335 19.4463C108.218 19.5636 108.059 19.6302 107.894 19.6316H94.2749C94.1108 19.6281 93.9545 19.5606 93.8395 19.4435C93.7244 19.3265 93.6596 19.169 93.6589 19.0049Z" fill="#231F20"/>
<path d="M114.975 19.6451H112.998C112.807 19.6443 112.623 19.5679 112.488 19.4325C112.352 19.297 112.276 19.1135 112.275 18.9219V1.33641C112.276 1.14484 112.352 0.961322 112.488 0.825861C112.623 0.6904 112.807 0.613987 112.998 0.613281H114.975C115.167 0.61328 115.351 0.689381 115.487 0.824918C115.623 0.960456 115.7 1.14438 115.701 1.33641V18.9219C115.7 19.114 115.623 19.2979 115.487 19.4334C115.351 19.569 115.167 19.6451 114.975 19.6451Z" fill="#231F20"/>
<path d="M68.9732 14.2873V1.43158C68.9739 1.23977 69.0502 1.05596 69.1856 0.920077C69.321 0.784189 69.5045 0.707183 69.6963 0.705774H71.6729C71.8652 0.70648 72.0494 0.783175 72.1853 0.919139C72.3213 1.0551 72.398 1.23931 72.3987 1.43158V12.8196L72.3478 14.1025C72.3478 16.2772 70.9337 20.1152 65.5691 20.1125H63.6033C57.4299 20.1125 57.2209 13.8989 57.2209 13.5534V1.41819C57.2217 1.22591 57.2984 1.04171 57.4343 0.905747C57.5703 0.769784 57.7545 0.693088 57.9468 0.692383H59.9233C60.1151 0.693792 60.2987 0.770798 60.434 0.906686C60.5694 1.04257 60.6458 1.22637 60.6465 1.41819V13.8346C60.7161 18.3074 68.6813 18.0235 68.9759 14.2873" fill="#231F20"/>
</g>
</g>
<defs>
<clipPath id="clip0_5037_5136">
<rect width="115.701" height="38.0662" fill="white"/>
</clipPath>
</defs>
</svg>
