<svg width="99" height="39" viewBox="0 0 99 39" fill="none" xmlns="http://www.w3.org/2000/svg">
<path fill-rule="evenodd" clip-rule="evenodd" d="M38.0408 1.5918C45.1326 1.5918 50.2483 6.88279 50.2483 13.4328C50.2483 19.9668 45.1326 25.2578 38.0408 25.2578C30.9489 25.2578 25.8492 19.9668 25.8492 13.4328C25.8333 6.86685 30.9489 1.5918 38.0408 1.5918ZM13.9285 1.5918C17.339 1.5918 20.351 2.88267 22.4228 4.8907L19.4904 7.96649C18.1199 6.59593 16.1437 5.63972 13.8967 5.63972C9.5778 5.63972 6.21516 9.11393 6.21516 13.4328C6.21516 17.8313 9.72124 21.2258 14.0879 21.2258C16.4465 21.2258 18.343 20.3174 19.6817 19.0584L22.5662 22.1024C20.4785 24.0148 17.4824 25.2578 13.9923 25.2578C6.83669 25.2578 1.59351 20.0306 1.59351 13.4328C1.59351 6.81904 6.757 1.5918 13.9285 1.5918ZM52.5432 2.14958H71.5398V5.95846H64.3364V24.6841H59.7625V5.95846H52.5432V2.14958ZM74.0737 2.14958H79.6038L85.7075 11.5044L91.7316 2.14958H97.1979L87.9068 15.8552V24.7H83.3489V15.903L74.0737 2.14958ZM38.0408 5.62379C33.7697 5.62379 30.4708 9.1458 30.4708 13.4168C30.4708 17.6879 33.7857 21.2099 38.0408 21.2099C42.3118 21.2099 45.6267 17.6879 45.6267 13.4168C45.6267 9.1458 42.3118 5.62379 38.0408 5.62379ZM27.905 30.8676C28.4628 30.8676 28.9728 31.011 29.4828 31.3935L28.925 32.1266C28.7019 31.9353 28.3513 31.76 27.9847 31.76C27.5863 31.76 27.1401 31.9353 27.1401 32.3656C27.1401 33.2421 29.6581 33.0031 29.6581 34.8517C29.6581 35.8239 28.7975 36.4932 27.8094 36.4932C27.0763 36.4932 26.391 36.1904 25.8333 35.6804L26.5185 34.9952C26.8213 35.3458 27.2994 35.5848 27.8094 35.5848C28.2875 35.5848 28.6063 35.298 28.6063 34.8995C28.6063 33.7999 26.0882 34.1346 26.0882 32.3975C26.0882 31.4253 26.9966 30.8676 27.905 30.8676ZM43.2521 30.8676C44.0649 30.8676 44.7661 31.1225 45.2442 31.6166L44.5749 32.3178C44.2561 31.9991 43.7939 31.76 43.2521 31.76C42.2162 31.76 41.4513 32.6365 41.4513 33.6724C41.4513 34.7402 42.2481 35.6008 43.2999 35.6008C43.8736 35.6008 44.3199 35.3777 44.6386 35.0749L45.3079 35.7442C44.8139 36.1904 44.1127 36.4932 43.284 36.4932C41.5787 36.4932 40.3676 35.2502 40.3676 33.6884C40.3676 32.1106 41.5628 30.8676 43.2521 30.8676ZM64.3523 30.9154C65.7229 30.9154 66.2488 32.1584 66.2488 33.6884C66.2488 35.2183 65.7229 36.4613 64.3523 36.4613C62.9818 36.4613 62.4559 35.2183 62.4559 33.6884C62.4559 32.1584 62.9818 30.9154 64.3523 30.9154ZM59.2366 30.9313C60.2407 30.9313 61.1968 31.6325 61.1968 32.764C61.1968 33.2899 60.9578 33.768 60.6709 34.2302L59.4119 36.3657H58.2804L59.2844 34.6605H59.2207C58.2007 34.6605 57.3402 33.8955 57.3402 32.8118C57.3242 31.76 58.2007 30.9313 59.2366 30.9313ZM69.9461 30.9951H70.6633V34.294H71.5557V35.1386H70.6633V36.3657H69.6274V35.1386H67.1413V34.533L69.9461 30.9951ZM31.3474 30.9951H32.3992V36.3498H31.3474V30.9951ZM34.4869 30.9951H35.2041L37.9292 34.4374V30.9951H38.9173V36.3498H38.2002L35.475 32.9075V36.3498H34.4869V30.9951ZM46.6466 30.9951H49.8818V31.8716H47.6825V33.1306H49.5471V33.9912H47.6825V35.4573H49.9455V36.3339H46.6466V30.9951ZM54.9497 30.9951H55.6827V36.3498H54.6469V32.1744L53.6428 32.7322V31.76L54.9497 30.9951ZM64.3523 31.8238C63.7308 31.8238 63.5077 32.6684 63.5077 33.6724C63.5077 34.6924 63.7308 35.5211 64.3523 35.5211C64.9739 35.5211 65.181 34.6764 65.181 33.6724C65.197 32.6684 64.9739 31.8238 64.3523 31.8238ZM59.2526 31.8397C58.7267 31.8397 58.3442 32.27 58.3442 32.78C58.3442 33.2899 58.7267 33.7362 59.3004 33.7362C59.4916 33.7362 59.6669 33.7043 59.8741 33.6087C60.0175 33.4174 60.1928 33.1146 60.1928 32.764C60.1928 32.2541 59.7625 31.8397 59.2526 31.8397ZM69.6274 32.8596L68.4959 34.294H69.6274V32.8596Z" fill="#231F20"/>
</svg>
