<svg width="142" height="40" viewBox="0 0 142 40" fill="none" xmlns="http://www.w3.org/2000/svg">
<g clip-path="url(#clip0_5037_5090)">
<path fill-rule="evenodd" clip-rule="evenodd" d="M45.0173 19.4114L44.7931 19.959L49.9258 19.9587L49.5983 19.1592L45.0173 19.4114Z" fill="#3D3D3D"/>
<mask id="mask0_5037_5090" style="mask-type:luminance" maskUnits="userSpaceOnUse" x="0" y="0" width="24" height="24">
<path d="M0.000244141 0.00683594H23.7081V23.599H0.000244141V0.00683594Z" fill="white"/>
</mask>
<g mask="url(#mask0_5037_5090)">
<path fill-rule="evenodd" clip-rule="evenodd" d="M22.4955 17.5923C22.6458 17.3 22.7788 17.0043 22.9004 16.7061C23.4497 15.3611 23.7106 13.9663 23.7082 12.5946H20.7711H20.6957C20.4985 13.5272 20.1854 14.4434 19.7477 15.2947C19.1465 16.4643 18.0119 17.9699 16.5218 19.2452C13.5695 21.7715 9.21926 23.3919 4.84004 19.6926C0.491567 15.4747 2.48856 11.0437 3.83256 8.31044C5.92664 4.0518 11.6519 1.31992 15.7979 2.53989C18.1194 3.20567 19.0494 4.33338 19.6458 5.19955C20.2787 6.14484 20.6937 7.37931 20.8637 8.7316H23.0151C23.0137 8.7278 23.013 8.72538 23.0116 8.72193C22.275 6.86383 21.0799 4.84714 19.3369 3.40986C16.2758 0.884939 13.6493 0.387073 13.6261 0.382236C8.8164 -0.946904 3.49915 1.31785 1.08479 6.01321C-0.476871 9.05119 -0.141736 13.0631 0.77315 15.2847C1.74055 17.6327 2.92665 19.7016 5.71001 21.4788C7.85971 22.8505 11.077 23.4665 11.077 23.4665L11.0774 23.4662C12.9189 23.7616 14.7949 23.5546 16.5218 22.9103C19.0063 21.9829 21.1812 20.1483 22.4955 17.5923Z" fill="#3D3D3D"/>
</g>
<path fill-rule="evenodd" clip-rule="evenodd" d="M96.8908 12.5049H95.5247V16.4232H101.809C100.331 15.7878 98.7195 14.315 96.8908 12.5049Z" fill="#3D3D3D"/>
<path fill-rule="evenodd" clip-rule="evenodd" d="M73.7908 0.171273C73.7901 0.171273 73.7894 0.171618 73.7884 0.171964C70.5006 0.168854 67.266 1.04988 63.5152 4.0122C60.6179 6.53332 59.267 8.74176 59.267 8.74176H63.3446C65.0106 4.29828 68.4431 1.85317 73.2069 1.06957C74.5778 0.913062 76.3216 0.923082 77.5896 1.26513C82.0686 2.47369 84.8392 5.26153 88.9137 9.24308C89.8047 10.1134 90.5921 10.9416 91.3035 11.7241V8.72138H93.068C90.2915 6.08244 87.0601 3.41829 83.1912 1.81689C78.5031 -0.123439 73.7908 0.171273 73.7908 0.171273Z" fill="#3D3D3D"/>
<mask id="mask1_5037_5090" style="mask-type:luminance" maskUnits="userSpaceOnUse" x="70" y="33" width="7" height="7">
<path d="M70.9968 33.9756H76.1925V39.1711H70.9968V33.9756Z" fill="white"/>
</mask>
<g mask="url(#mask1_5037_5090)">
<path fill-rule="evenodd" clip-rule="evenodd" d="M76.1926 36.5738C76.1926 38.0076 75.0296 39.1712 73.5951 39.1712C72.1599 39.1712 70.9969 38.0076 70.9969 36.5738C70.9969 35.1396 72.1599 33.9756 73.5951 33.9756C75.0296 33.9756 76.1926 35.1396 76.1926 36.5738Z" fill="#3D3D3D"/>
</g>
<path fill-rule="evenodd" clip-rule="evenodd" d="M54.332 20.2387L54.2693 20.0918L54.332 20.2387Z" fill="#3D3D3D"/>
<path fill-rule="evenodd" clip-rule="evenodd" d="M45.0257 0.134846C41.0431 -0.397571 33.5792 1.58733 32.9408 10.173C32.9408 10.173 32.3586 17.3335 40.5622 20.0934L41.0175 19.0237C38.722 18.3213 36.4286 16.1398 36.0679 12.4405C35.3378 4.95631 41.619 0.642731 45.8594 1.29469C50.4331 1.99813 53.7565 7.02862 53.5588 12.812C53.5157 14.081 53.4065 15.616 53.08 17.3052L54.2699 20.101L54.3324 20.2475L55.3575 22.6553C55.5237 22.2061 55.6878 21.7297 55.8309 21.2594L56.1107 20.2478L56.2009 19.9224C56.2921 19.5502 56.3743 19.1702 56.4514 18.7857C56.5771 18.1586 56.686 17.5173 56.7713 16.8564C58.0324 7.09012 51.0768 0.943662 45.0257 0.134846Z" fill="#3D3D3D"/>
<path fill-rule="evenodd" clip-rule="evenodd" d="M50.8211 23.6816C49.5945 25.9875 47.8142 28.4178 45.2222 30.8653C41.0807 34.7753 36.8901 36.5222 32.8191 36.4151C23.9805 36.0088 20.9411 30.8953 20.9411 30.8953H16.7906C25.8531 40.1624 44.6625 39.7187 52.9511 27.3768L51.4447 23.6816H50.8211Z" fill="#3D3D3D"/>
<path fill-rule="evenodd" clip-rule="evenodd" d="M91.303 16.8574L68.8434 18.0957C68.8406 18.1734 68.833 18.2494 68.833 18.3279V18.3832C68.833 18.5169 68.8382 18.6492 68.8454 18.7812C68.8741 19.2873 68.9608 19.7755 69.0921 20.2426L91.303 20.2457V16.8574Z" fill="#3D3D3D"/>
<path fill-rule="evenodd" clip-rule="evenodd" d="M64.3907 18.4392V18.3839C64.3907 18.3698 64.3917 18.356 64.3917 18.3418L56.4514 18.7795C56.3744 19.1641 56.2925 19.5441 56.2009 19.9162L56.1111 20.2417L64.5482 20.2431C64.4888 19.8983 64.4449 19.5476 64.4197 19.1907C64.4024 18.9426 64.3907 18.6925 64.3907 18.4392Z" fill="#3D3D3D"/>
<path fill-rule="evenodd" clip-rule="evenodd" d="M136.455 6.26729C133.921 3.49776 128.568 -0.747755 121.205 0.291165C116.643 1.09929 112.004 4.44996 112.004 10.3832C112.004 13.7242 114.092 16.6952 117.257 18.5174C115.996 17.6353 115.277 16.3753 115.277 14.3261V14.2708C115.277 13.5066 115.411 12.7986 115.661 12.1591C115.662 12.1577 115.663 12.1563 115.663 12.155C115.628 11.8406 115.6 11.522 115.578 11.199C115.293 7.0457 118.579 3.45941 122.584 2.19867C124.569 1.57401 129.764 0.909265 134.003 5.60565C138.011 10.0464 137.406 15.8473 137.274 18.0223C136.803 22.9522 135.438 27.4765 130.185 32.2773C125.653 36.4184 120.29 36.4613 117.4 36.3549C108.246 35.3042 106.089 30.9436 106.089 30.9436L101.743 30.9295C103.055 32.9368 107.204 36.0619 113.472 37.0479C113.363 37.07 113.299 37.0828 113.299 37.0828C113.531 37.0967 113.805 37.117 114.117 37.1398C115.404 37.3078 116.774 37.3872 118.223 37.3475C118.394 37.3426 118.536 37.3354 118.656 37.3261C124.672 37.287 133.597 35.8929 138.64 27.5519C144.646 17.6184 138.981 9.0268 136.455 6.26729Z" fill="#3D3D3D"/>
<path fill-rule="evenodd" clip-rule="evenodd" d="M22.493 17.5952C21.1787 20.1509 19.0038 21.9858 16.5193 22.9131V28.05H20.7689V20.572H29.9852V16.709H22.8979C22.7763 17.0068 22.6433 17.3029 22.493 17.5952Z" fill="#3D3D3D"/>
<path fill-rule="evenodd" clip-rule="evenodd" d="M44.7924 19.9576L47.3588 13.694L49.9248 19.9576H44.7924ZM53.0844 17.3114L49.373 8.58887H45.4547L40.5897 20.0218L40.351 20.5826L37.1765 28.043H41.5087L43.2746 23.7104H50.8189H51.4426L52.949 27.4055L53.2088 28.043H57.6512L55.3616 22.6621L53.0844 17.3114Z" fill="#3D3D3D"/>
<path fill-rule="evenodd" clip-rule="evenodd" d="M74.4347 24.4593C72.0321 24.4593 70.1677 23.0058 69.3251 20.9432C69.0535 20.2784 68.8884 19.5501 68.8459 18.7865C68.8383 18.6546 68.8334 18.5222 68.8334 18.3885V18.3332C68.8334 15.0223 71.1787 12.3177 74.4347 12.3177C76.3664 12.3177 77.8842 13.1456 79.3743 14.4978L82.0785 11.3797C80.2847 9.6135 78.1049 8.39941 74.4623 8.39941C68.5297 8.39941 64.3906 12.8971 64.3906 18.3885V18.4438C64.3906 18.6971 64.4024 18.9469 64.4197 19.1953C64.4653 19.8441 64.5679 20.4743 64.7254 21.0803C65.8265 25.3179 69.551 28.3776 74.2968 28.3776C78.022 28.3776 80.2294 27.053 82.2164 24.9282L79.5122 22.1966C77.9944 23.5762 76.6424 24.4593 74.4347 24.4593Z" fill="#3D3D3D"/>
<path fill-rule="evenodd" clip-rule="evenodd" d="M95.5244 20.2087H104.63V16.4283H101.809H95.5244V12.51H96.8905H105.872V8.72949H93.0669H91.3027V11.7322V16.9887V20.0781V28.0457H106.01V24.2649H95.5244V20.2087Z" fill="#3D3D3D"/>
<path fill-rule="evenodd" clip-rule="evenodd" d="M123.665 16.481C120.327 15.6255 119.498 15.2116 119.498 13.9422V13.8869C119.498 12.9489 120.354 12.204 121.982 12.204C123.61 12.204 125.294 12.9213 127.004 14.1077L129.212 10.9066C127.253 9.33393 124.852 8.45117 122.037 8.45117C118.952 8.45117 116.559 9.86807 115.661 12.1618C115.411 12.8014 115.277 13.509 115.277 14.2732V14.3285C115.277 16.4032 116.013 17.6698 117.303 18.5533C118.398 19.303 119.892 19.7777 121.679 20.2338C124.907 21.0613 125.57 21.6134 125.57 22.6896V22.7445C125.57 23.876 124.521 24.566 122.782 24.566C120.575 24.566 118.754 23.6553 117.015 22.2204L114.504 25.2283C116.822 27.2979 119.775 28.3185 122.7 28.3185C126.866 28.3185 129.791 26.1664 129.791 22.3306V22.2757C129.791 18.9091 127.584 17.5019 123.665 16.481Z" fill="#3D3D3D"/>
<path fill-rule="evenodd" clip-rule="evenodd" d="M20.862 8.72949H16.5201V12.5929V19.2434C18.0103 17.9682 19.1446 16.4625 19.7461 15.293C20.1838 14.4413 20.4965 13.5254 20.6941 12.5929H20.7695H23.7066H31.2274V8.72949H23.0135H20.862Z" fill="#3D3D3D"/>
</g>
<defs>
<clipPath id="clip0_5037_5090">
<rect width="141.31" height="39.3871" fill="white"/>
</clipPath>
</defs>
</svg>
