<svg width="94" height="57" viewBox="0 0 94 57" fill="none" xmlns="http://www.w3.org/2000/svg">
<path fill-rule="evenodd" clip-rule="evenodd" d="M4.85973 45.9141V56.4719H0V31.3731H16.6244V35.8271H4.85973V41.4611H15.164V45.9141H4.85973ZM37.0763 31.3731V35.8271H24.6652V41.0936H36.0678V45.5471H24.6652V52.0179H37.6317V56.4719H19.8845V31.3731H37.0763ZM55.8514 48.8469V31.3731H60.3919V56.4719H55.5252L45.9499 38.5665H45.8903V56.4719H41.3493V31.3731H46.4815L55.7912 48.8469H55.8514ZM74.5385 35.7416C75.4475 35.7416 76.2893 35.9166 77.0655 36.2642C77.8408 36.6128 78.5066 37.3801 79.0645 38.564C79.621 39.748 79.8999 41.4641 79.8999 43.7142C79.8999 45.1756 79.7249 46.5451 79.3753 47.8206C79.0257 49.0945 78.4519 50.1283 77.6533 50.918C76.8552 51.7086 75.8373 52.104 74.5986 52.104H69.8592V35.7421L74.5385 35.7416ZM75.1884 56.4719C77.0133 56.4719 78.5633 56.0651 79.8368 55.2521C81.0956 54.4547 82.133 53.3528 82.8532 52.0483C83.5875 50.7296 84.1154 49.3061 84.4185 47.8275C84.7244 46.3377 84.879 44.838 84.879 43.3308C84.879 41.9817 84.7393 40.6262 84.4603 39.2592C84.1872 37.9087 83.6961 36.6116 83.0063 35.4189C82.3146 34.2244 81.338 33.2513 80.075 32.4994C78.8134 31.7496 77.2485 31.3726 75.3838 31.3726H65.0781V56.4719H75.1884ZM93.0316 31.3731V56.4719H88.1714V31.3731H93.0316ZM38.0097 0.00390625L37.9604 21.8108H41.22V10.4578H46.5034V7.59112H41.22V3.03869H50.6063L50.6441 0.0218073L38.0097 0.00390625Z" fill="#231F20"/>
<path fill-rule="evenodd" clip-rule="evenodd" d="M55.022 21.8108L55.0707 0.00390625H51.8112V11.3564H46.5283V14.2231H51.8112V18.7755H42.4254L42.3876 21.7929L55.022 21.8108Z" fill="#231F20"/>
</svg>
