<svg width="95" height="95" viewBox="0 0 95 95" fill="none" xmlns="http://www.w3.org/2000/svg">
<g clip-path="url(#clip0_5037_5045)">
<path d="M15.0162 80.4445H18.9117V79.3519H15.0162V77.0254H19.1495V75.9092H13.7855V84.1739H19.3184V83.0472H15.0162V80.4445Z" fill="#231F20"/>
<path d="M0 84.1874H1.21261V80.4489H4.96481V79.3588H1.21261V77.0223H5.21303V75.916H0V84.1874Z" fill="#231F20"/>
<path d="M12.3263 78.2464C12.3263 77.6944 12.2053 75.9023 9.38665 75.9023H6.53381V84.1851H7.76636V80.7613H9.24142L11.2903 84.1851H12.8304L10.5551 80.618C11.4754 80.3688 12.3263 79.6261 12.3263 78.2464ZM7.76636 76.992H9.24711C10.0758 76.992 11.0658 77.227 11.0658 78.3546C11.0658 79.1985 10.4232 79.6826 9.30502 79.6826H7.76588V76.992H7.76636Z" fill="#231F20"/>
<path d="M41.3751 78.2228C41.3751 77.6718 41.2536 75.8721 38.4345 75.8721H35.5337V84.1852H36.7662V80.751H38.2731L40.339 84.1852H41.8791L39.6029 80.6058C40.5241 80.3537 41.3751 79.6091 41.3751 78.2228ZM36.7662 76.9651H38.2797C39.1084 76.9651 40.1141 77.2019 40.1141 78.3324C40.1141 79.181 39.4724 79.667 38.3543 79.667H36.7662V76.9651Z" fill="#231F20"/>
<path d="M23.3561 75.9092H20.573V84.1739H23.3561C25.5131 84.1739 27.6973 82.7563 27.6973 80.0425C27.6973 77.1878 25.5174 75.9092 23.3561 75.9092ZM21.7989 77.0136H23.1316C25.1444 77.0136 26.3949 78.1726 26.3949 80.042C26.3949 81.9115 25.1135 83.0591 23.1316 83.0591H21.7989V77.0136Z" fill="#231F20"/>
<path d="M29.9578 80.4445H33.8533V79.3519H29.9578V77.0254H34.0901V75.9092H28.7262V84.1739H34.2591V83.0472H29.9578V80.4445Z" fill="#231F20"/>
<path d="M44.2323 75.9336H42.9789V84.1983H44.2323V75.9336Z" fill="#231F20"/>
<path d="M52.0827 82.199C51.629 82.871 50.8616 83.2559 49.9783 83.2559C48.237 83.2559 46.9727 81.9299 46.9727 80.0324C46.9727 78.135 48.2788 76.8194 50.0125 76.8194C50.788 76.8194 51.5706 77.1929 51.9593 77.7491L51.9925 77.7999L52.9674 77.0391L52.936 76.994C52.3793 76.211 51.2308 75.7031 50.0125 75.7031C47.5052 75.7031 45.6855 77.5246 45.6855 80.032C45.6855 82.5393 47.4843 84.3841 49.9669 84.3841C51.2721 84.3841 52.3751 83.8501 53.0708 82.8853L53.105 82.8383L52.1159 82.152L52.0827 82.199Z" fill="#231F20"/>
<path d="M61.7857 82.1018L59.3737 75.9092H57.5043V84.1739H58.7226V77.5428L61.3424 84.1739H62.1464L64.779 77.5428V84.1739H66.0324V75.9092H64.1639L61.7857 82.1018Z" fill="#231F20"/>
<path d="M70.746 75.9092L67.1627 84.1739H68.5547L69.371 82.1716H73.1636L73.9922 84.1739H75.4051L71.8551 75.9092H70.7455H70.746ZM72.7023 81.0558H69.8195L71.2671 77.445L72.7023 81.0558Z" fill="#231F20"/>
<path d="M84.2917 75.8789H82.9647V84.2068H88.0572V82.9462H84.2917V75.8789Z" fill="#231F20"/>
<path d="M77.7657 75.8789H76.4377V84.2068H81.5312V82.9462H77.7657V75.8789Z" fill="#231F20"/>
<path d="M90.6816 83.0482V80.4454H94.4461V79.3524H90.6816V77.0264H94.6829V75.9092H89.4509V84.1749H94.8519V83.0482H90.6816Z" fill="#231F20"/>
<path d="M0 74.2023H3.93635V73.2255H1.07972V71.3841H3.85045V70.404H1.07972V68.6798H3.93635V67.7012H0V74.2023Z" fill="#231F20"/>
<path d="M48.8821 74.2023H52.8184V73.2255H49.9628V71.3841H52.7335V70.404H49.9628V68.6798H52.8184V67.7012H48.8821V74.2023Z" fill="#231F20"/>
<path d="M7.23762 67.7012H4.96997V74.2032H7.39614C9.17874 74.2032 10.4246 72.8587 10.4246 70.9361C10.4246 68.8806 9.2618 67.7012 7.23762 67.7012ZM6.03166 68.6537H7.14507C9.10993 68.6537 9.32302 70.2436 9.32302 70.9261C9.32302 72.0841 8.69275 73.2521 7.28745 73.2521H6.03213V68.6537H6.03166Z" fill="#231F20"/>
<path d="M44.7315 67.7012H42.4648V74.2032H44.8901C46.6727 74.2032 47.9185 72.8587 47.9185 70.9361C47.9185 68.8806 46.7567 67.7012 44.7315 67.7012ZM43.5256 68.6537H44.638C46.6048 68.6537 46.8169 70.2436 46.8169 70.9261C46.8169 72.0841 46.1876 73.2521 44.7814 73.2521H43.5261V68.6537H43.5256Z" fill="#231F20"/>
<path d="M12.4236 67.7012H11.3439V74.2023H12.4236V67.7012Z" fill="#231F20"/>
<path d="M13.479 68.6769H15.2948V74.1993H16.3755V68.6769H18.1918V67.6982H13.479V68.6769Z" fill="#231F20"/>
<path d="M20.3533 67.7012H19.2726V74.2023H20.3533V67.7012Z" fill="#231F20"/>
<path d="M24.5653 67.5674C22.7101 67.5674 21.3641 68.994 21.3641 70.9465C21.3641 72.8991 22.6797 74.3257 24.5653 74.3257C26.4509 74.3257 27.7675 72.8991 27.7675 70.9465C27.7675 68.994 26.4519 67.5674 24.5653 67.5674ZM24.5653 68.546C26.1073 68.546 26.6555 69.8436 26.6555 70.9465C26.6555 71.91 26.0988 73.348 24.5653 73.348C23.0319 73.348 22.4752 71.91 22.4752 70.9465C22.4752 69.8436 23.0233 68.546 24.5653 68.546Z" fill="#231F20"/>
<path d="M32.8414 72.433L29.8253 67.7221L29.8134 67.7012H28.6976V74.2023H29.7342V69.4382L32.7868 74.2023H33.8774V67.7012H32.8414V72.433Z" fill="#231F20"/>
<path d="M58.1307 67.7012H55.9893V74.2032H57.0699V71.7913H58.1212C59.1914 71.7913 60.3333 71.2545 60.3333 69.75C60.3333 68.2455 59.1961 67.7012 58.1307 67.7012ZM57.0699 68.6537H58.0106C58.7723 68.6537 59.227 69.0633 59.227 69.75C59.227 70.4368 58.7714 70.8392 57.9783 70.8392H57.0704V68.6537H57.0699Z" fill="#231F20"/>
<path d="M63.3503 67.7012H62.2839L59.9189 74.2023H61.0789L61.6071 72.6195H63.9948L64.5216 74.2023H65.6991L63.3617 67.7296L63.3503 67.7012ZM63.6816 71.6893H61.9199L62.8012 69.0751L63.6816 71.6893Z" fill="#231F20"/>
<path d="M70.9014 69.5716C70.9014 68.6675 70.3219 67.7012 68.6987 67.7012H66.4714V74.2032H67.5512V71.5611H68.4847L69.9085 74.2032H71.2099L69.5953 71.424C70.3803 71.1852 70.9014 70.4482 70.9014 69.5716ZM67.5512 68.6537H68.5364C69.3727 68.6537 69.7946 68.9878 69.7946 69.6485C69.7946 70.274 69.3537 70.6328 68.5791 70.6328H67.5507V68.6537H67.5512Z" fill="#231F20"/>
<path d="M71.9688 74.2023H73.0504V71.3841H75.6759V70.404H73.0504V68.6798H75.7437V67.7012H71.9688V74.2023Z" fill="#231F20"/>
<path d="M80.7665 71.6507C80.7665 72.7238 80.2288 73.3427 79.2877 73.3427C78.3465 73.3427 77.8155 72.7812 77.8155 71.7177V67.6987H76.7452V71.7775C76.7452 73.3712 77.6954 74.3208 79.2877 74.3208C80.5202 74.3208 81.8387 73.6208 81.8387 71.6503V67.6982H80.7665V71.6503V71.6507Z" fill="#231F20"/>
<path d="M86.1575 72.4999L84.1855 67.7012H82.9596V74.2023H83.9947V69.6874L85.8414 74.2023H86.4702L88.3264 69.6319V74.2023H89.3606V67.7012H88.1337L86.1575 72.4999Z" fill="#231F20"/>
<path d="M34.8395 72.2354C34.8395 72.7546 35.0886 74.3416 37.2562 74.3416C38.9728 74.3416 39.5831 73.2292 39.5831 72.2899C39.5831 71.6046 39.2481 71.0764 38.6149 70.7631C38.362 70.636 38.0516 70.5619 37.6928 70.4547C37.4816 70.3944 36.7531 70.149 36.6444 70.0902C36.3141 69.9392 36.1413 69.6834 36.1413 69.3522C36.1413 68.9483 36.3819 68.4518 37.221 68.4518C37.8712 68.4518 38.2391 68.9867 38.2552 69.4456H39.3311C39.211 68.2008 38.493 67.543 37.184 67.543C35.7004 67.543 35.0369 68.5444 35.0369 69.5173C35.0369 70.1148 35.2614 70.5301 35.7398 70.8253C36.0397 71.0152 36.2775 71.0859 36.7654 71.234C37.2514 71.3839 38.4526 71.57 38.4526 72.3853C38.4526 72.8495 38.0858 73.3564 37.2832 73.3564C36.4807 73.3564 36.017 72.9316 35.9543 72.2354H34.8409H34.8395Z" fill="#231F20"/>
<path d="M90.177 72.2354C90.177 72.7546 90.4271 74.3416 92.5937 74.3416C94.3113 74.3416 94.9206 73.2292 94.9206 72.2899C94.9206 71.6046 94.5856 71.0764 93.9525 70.7631C93.6995 70.636 93.3901 70.5619 93.0303 70.4547C92.8201 70.3944 92.0906 70.149 91.9838 70.0902C91.6516 69.9392 91.4788 69.6834 91.4788 69.3522C91.4788 68.9483 91.7204 68.4518 92.5595 68.4518C93.2088 68.4518 93.5771 68.9867 93.5937 69.4456H94.6696C94.5505 68.2008 93.8305 67.543 92.5215 67.543C91.0379 67.543 90.3744 68.5444 90.3744 69.5173C90.3744 70.1148 90.598 70.5301 91.0773 70.8253C91.3782 71.0152 91.6169 71.0859 92.102 71.234C92.5889 71.3839 93.7911 71.57 93.7911 72.3853C93.7911 72.8495 93.4233 73.3564 92.6207 73.3564C91.8182 73.3564 91.3554 72.9316 91.2909 72.2354H90.1784H90.177Z" fill="#231F20"/>
<path d="M67.6051 25.1289L72.0673 38.9038L76.8442 25.1289H80.5713V42.5568H78.0516V28.4606L73.1698 42.4524L70.9639 42.4528L66.2929 28.4606V42.5568H63.7732V25.1289H67.6051Z" fill="#231F20"/>
<path d="M45.8202 10.5371H43.4054V56.9413H45.8202V10.5371Z" fill="#231F20"/>
<path d="M38.1563 12.9512V15.4708H30.387V20.195H37.8411V22.7152H30.387V27.8594H38.1563V30.379H27.6576V12.9512H38.1563Z" fill="#231F20"/>
<path d="M27.6576 37.3135H34.0329C36.6447 37.3135 39.0063 39.4041 39.0063 42.6622C39.0063 45.9204 36.3931 48.0172 34.0329 48.0172H30.387V54.5264H27.6576V37.314V37.3135ZM30.387 45.7073H33.34C37.2531 45.7073 37.2806 39.6181 33.34 39.6181H30.387V45.7073Z" fill="#231F20"/>
<path d="M14.3489 30.375H25.0521V34.6203C25.0521 36.8448 23.801 40.0407 19.7033 40.0407C15.6056 40.0407 14.3484 36.6303 14.3484 34.6203V30.375H14.3489ZM16.6588 32.8899V34.7276C16.6588 36.3075 17.7356 37.6796 19.7033 37.6796C21.671 37.6796 22.7479 36.3189 22.7479 34.7276V32.8899H16.6588Z" fill="#231F20"/>
<path d="M61.5686 25.1289V27.6486H53.9042V32.3732H61.2013V34.8929H53.9042V42.4519H51.1748V25.1289H61.5686Z" fill="#231F20"/>
</g>
<defs>
<clipPath id="clip0_5037_5045">
<rect width="94.9204" height="94.9204" fill="white"/>
</clipPath>
</defs>
</svg>
