<svg width="51" height="53" viewBox="0 0 51 53" fill="none" xmlns="http://www.w3.org/2000/svg">
<path d="M10.0525 7.29613V9.65097C9.2051 10.4037 7.18032 10.8516 5.67284 10.8516C4.16729 10.8516 0 9.90962 0 5.48368C0 1.05775 3.96655 0.10423 5.56668 0.10423C7.16874 0.10423 8.87503 0.39762 9.86329 1.05775V3.12884C9.86329 3.38749 9.51007 3.36433 9.51007 3.12884C9.48691 2.77562 8.54497 0.658196 6.19013 0.704521C3.64807 0.756636 1.93019 2.75439 1.93019 5.3891C1.93019 8.02382 3.59981 10.286 6.12065 10.2146C6.93905 10.1914 7.79219 9.93278 8.20526 9.5892L8.21491 7.29613C8.21491 6.63794 7.81536 6.40245 7.41581 6.40245C7.15523 6.40245 7.15523 6.02607 7.41581 6.02607H10.8516C11.1102 6.02607 11.1102 6.42562 10.8516 6.40245C10.4539 6.40245 10.0525 6.63794 10.0525 7.29613ZM33.2167 3.13077C33.2167 3.38942 32.9581 3.36626 32.9581 3.13077C32.933 2.77755 31.993 0.588709 29.6381 0.636964C27.0961 0.687149 25.3763 2.75632 25.3763 5.39103C25.3763 8.02575 27.0247 10.3574 29.5436 10.2879C32.0625 10.2165 33.263 7.72271 33.3576 7.39264C33.4522 7.06258 33.6163 7.11084 33.6163 7.36948V9.29968C32.5817 10.0525 30.6264 10.8535 29.1208 10.8535C27.6153 10.8535 23.448 9.91155 23.448 5.48561C23.448 1.05775 27.403 0 29.0031 0C30.6052 0 32.2285 0.39955 33.2186 1.05775L33.2167 3.13077ZM50.0731 0.258646C50.4495 0.258646 50.4495 0.611872 50.0731 0.611872C49.6716 0.611872 49.2721 0.847355 49.2721 1.50555V9.34407C49.2721 10.0023 49.6716 10.2378 50.0731 10.2378C50.4495 10.2378 50.4495 10.7087 50.0731 10.7087H46.6123C46.2359 10.7087 46.2359 10.2378 46.6123 10.2378C47.0137 10.2378 47.4133 10.0023 47.4133 9.34407V1.50555C47.4133 0.845425 47.0137 0.611872 46.6123 0.611872C46.2359 0.611872 46.2359 0.258646 46.6123 0.258646H50.0731ZM22.5524 0.258646C22.9288 0.258646 22.9288 0.611872 22.5524 0.611872C22.1528 0.611872 21.7533 0.847355 21.7533 1.50555L21.707 6.64952C21.707 9.11245 19.7092 10.923 17.2444 10.923C14.7795 10.923 12.8551 9.11245 12.8551 6.64952V1.50555C12.8551 0.845425 12.4536 0.611872 12.0541 0.611872C11.6777 0.611872 11.6777 0.258646 12.0541 0.258646H15.5381C15.9145 0.258646 15.9145 0.611872 15.5381 0.611872C15.1366 0.611872 14.737 0.847355 14.737 1.50555L14.7332 7.24981C14.7332 8.98698 16.1538 10.396 17.891 10.396C19.6281 10.396 21.0372 8.63376 21.0372 6.89851L20.9523 1.50555C20.9523 0.845425 20.5527 0.611872 20.1512 0.611872C19.7768 0.611872 19.7768 0.258646 20.1512 0.258646H22.5524ZM25.7739 23.3206C27.8686 22.2861 30.174 21.7497 32.5103 21.7533C34.7975 21.7537 37.0551 22.271 39.1143 23.2664C41.1736 24.2618 42.9813 25.7097 44.4024 27.5019C45.8236 29.294 46.8214 31.3842 47.3213 33.6161C47.8212 35.848 47.8104 38.1641 47.2895 40.3912C46.7687 42.6183 45.7513 44.699 44.3135 46.4778C42.8756 48.2565 41.0544 49.6874 38.9859 50.6635C36.9174 51.6395 34.6551 52.1356 32.3679 52.1146C30.0808 52.0936 27.828 51.5561 25.7777 50.5421C23.7279 51.5545 21.4758 52.0907 19.1896 52.1108C16.9035 52.1309 14.6423 51.6342 12.575 50.658C10.5076 49.6818 8.6875 48.2512 7.25049 46.473C5.81349 44.6948 4.79673 42.615 4.27612 40.3888C3.75551 38.1626 3.7445 35.8476 4.24391 33.6166C4.74332 31.3856 5.74025 29.2962 7.16028 27.5044C8.5803 25.7126 10.3867 24.2648 12.4447 23.2689C14.5027 22.2731 16.759 21.755 19.0452 21.7533C21.4657 21.7533 23.7433 22.3169 25.7739 23.3206ZM28.8352 25.3145C31.1867 27.2798 32.8796 29.9184 33.6858 32.8751H30.5395C29.656 30.3786 27.983 28.238 25.7739 26.7776C23.569 28.239 21.8991 30.3777 21.016 32.8712L17.8717 32.8731C18.6879 29.9129 20.3858 27.2711 22.7396 25.2991C21.5426 24.9288 20.2963 24.7426 19.0433 24.747C17.2883 24.7487 15.5543 25.1296 13.9601 25.8635C12.3659 26.5975 10.9491 27.6672 9.80666 28.9994C8.66419 30.3317 7.82304 31.895 7.34077 33.5825C6.8585 35.2699 6.74649 37.0417 7.01241 38.7764C7.27834 40.5112 7.91592 42.168 8.88151 43.6336C9.84711 45.0991 11.1179 46.3387 12.607 47.2675C14.0961 48.1964 15.7683 48.7926 17.5091 49.0153C19.2499 49.238 21.0183 49.082 22.6933 48.5579C21.1605 47.263 19.901 45.6758 18.9883 43.8889C18.0756 42.102 17.5281 40.1511 17.3775 38.1503H24.6003V41.1788L21.0874 41.1768C21.9891 43.5941 23.633 45.6637 25.7835 47.089C27.9341 45.6662 29.5756 43.5954 30.47 41.1768L26.9571 41.1788V38.1503H34.1799C34.0205 40.1518 33.4639 42.1014 32.5426 43.8854C31.6212 45.6694 30.3537 47.2519 28.8139 48.5405C30.6392 49.1214 32.5758 49.2637 34.4664 48.9559C36.357 48.6482 38.1484 47.8989 39.6952 46.769C41.2419 45.6392 42.5005 44.1605 43.3687 42.453C44.2369 40.7456 44.6903 38.8575 44.6921 36.942C44.6938 35.0265 44.2439 33.1376 43.3788 31.4286C42.5137 29.7196 41.2578 28.2386 39.7131 27.1059C38.1684 25.9732 36.3784 25.2207 34.4884 24.9094C32.5983 24.5982 30.6615 24.7369 28.8352 25.3145ZM44.7284 3.13077C44.7284 3.38942 44.4697 3.36626 44.4697 3.13077C44.4466 2.77755 43.5047 0.588709 41.1498 0.636964C38.6077 0.687149 36.8879 2.75632 36.8879 5.39103C36.8879 8.02575 38.5363 10.3574 41.0552 10.2879C43.5741 10.2184 44.7747 7.72271 44.8693 7.39264C44.9639 7.06258 45.1299 7.11084 45.1299 7.36948V9.29968C44.0934 10.0525 42.14 10.8535 40.6325 10.8535C39.127 10.8535 34.9597 9.91155 34.9597 5.48561C34.9597 1.05775 38.9146 0 40.5167 0C42.1168 0 43.7421 0.39955 44.7303 1.05775L44.7284 3.13077Z" fill="#231F20"/>
</svg>
