<svg width="44" height="53" viewBox="0 0 44 53" fill="none" xmlns="http://www.w3.org/2000/svg">
<path fill-rule="evenodd" clip-rule="evenodd" d="M42.0423 47.2327H42.6103V52.0338L39.1394 48.4004V51.8555H38.5555V47.0055L42.0428 50.6552L42.0423 47.2327ZM25.725 47.2327V50.1683C25.725 50.6878 25.5784 51.1096 25.2865 51.4337C24.9787 51.7907 24.5569 51.9532 24.0219 51.9532C23.5186 51.9532 23.0976 51.7903 22.7882 51.4337C22.4804 51.1096 22.3346 50.6878 22.3346 50.1687V47.2294H22.9185V49.9708C22.9185 50.9276 23.2756 51.4145 24.0219 51.4145C24.7832 51.4145 25.157 50.9268 25.157 49.97V47.2298H25.725V47.2327ZM27.5091 47.2327H30.2826V47.7681H29.1792V51.8559H28.6284V47.7681H27.5087L27.5091 47.2327ZM26.5035 47.2327H27.0873V51.8555H26.501V47.2327H26.5035ZM21.3937 47.2327H22.0268L20.0155 52.1152L18.0042 47.2327H18.6361L20.0151 50.6552L21.3913 47.2327H21.3937ZM37.4843 49.5522C37.4843 50.0713 37.3064 50.509 36.9334 50.8824C36.5926 51.2391 36.1545 51.4178 35.6517 51.4178C35.1489 51.4178 34.7112 51.2386 34.3378 50.8824C33.9645 50.5094 33.7866 50.0713 33.7866 49.5522C33.7866 49.0331 33.9486 48.5954 34.3053 48.2384C34.6623 47.8654 35.1163 47.6871 35.6517 47.6871C36.1871 47.6871 36.6248 47.8654 36.9656 48.2384C37.3076 48.5954 37.4867 49.0331 37.4867 49.5522H37.4843ZM37.3552 47.8491C36.8683 47.3789 36.3007 47.1354 35.6517 47.1354C34.9868 47.1354 34.4189 47.3756 33.9323 47.8479C33.4641 48.3161 33.2198 48.8861 33.2198 49.5498C33.2198 50.2297 33.4641 50.7997 33.9364 51.268C34.4075 51.7215 34.9746 51.9491 35.6562 51.9491C36.3215 51.9491 36.9053 51.7211 37.3597 51.2676C37.83 50.7973 38.0734 50.2293 38.0734 49.5482C38.0734 48.8833 37.8292 48.3153 37.3601 47.8451L37.3552 47.8491ZM33.0883 47.2327V47.7681H32.002V51.8559H31.4182V47.7681H30.3148V47.2327H33.0883ZM6.25994 48.2384C6.60072 48.5954 6.76277 49.0331 6.76277 49.5522C6.76277 50.0713 6.58444 50.509 6.22736 50.8824C5.8707 51.2391 5.43261 51.4178 4.92978 51.4178C4.42695 51.4178 3.98926 51.2386 3.6159 50.8824C3.27797 50.5094 3.08254 50.0713 3.08254 49.5522C3.08254 49.0331 3.26168 48.5954 3.60369 48.2384C3.96117 47.8654 4.39885 47.6871 4.93426 47.6871C5.47007 47.6871 5.92363 47.8654 6.26482 48.2384H6.25994ZM6.63289 47.8491C6.14838 47.3789 5.58244 47.1354 4.931 47.1354C4.26734 47.1354 3.68105 47.3756 3.22911 47.8479C2.7446 48.3161 2.50031 48.8861 2.50031 49.5498C2.50031 50.2297 2.7446 50.7997 3.23074 51.268C3.68471 51.7215 4.25269 51.9491 4.93385 51.9491C5.61501 51.9491 6.18299 51.7211 6.63696 51.2676C7.12391 50.7973 7.35069 50.2293 7.35069 49.5482C7.35069 48.8833 7.12269 48.3153 6.63614 47.8451L6.63289 47.8491ZM8.40399 49.9744C8.40399 50.9312 8.77857 51.4178 9.52365 51.4178C10.2525 51.4178 10.6433 50.9308 10.6433 49.974V47.2339H11.2113V50.1695C11.2113 50.6906 11.0647 51.11 10.7569 51.4357C10.4491 51.794 10.0281 51.9569 9.52447 51.9569C9.00576 51.9569 8.60024 51.794 8.29202 51.4377C7.9663 51.1137 7.82095 50.6918 7.82095 50.1727V47.2372H8.4048V49.9781L8.40399 49.9744ZM1.03864 47.2327V51.3368H2.45145V51.8555H0.472294V47.2327H1.03823H1.03864ZM14.9388 49.1308C15.7193 49.4386 16.091 49.893 16.091 50.5094C16.091 50.9308 15.9444 51.2716 15.6541 51.5477C15.3785 51.8233 15.0377 51.9532 14.6322 51.9532C14.2592 51.9532 13.9347 51.8392 13.6591 51.5798C13.3993 51.3368 13.2373 51.0286 13.1888 50.6556L13.7727 50.5253C13.7727 50.7851 13.8541 50.996 14.0333 51.1743C14.2112 51.3331 14.4058 51.4145 14.6656 51.4145C14.9082 51.4145 15.1028 51.3168 15.2816 51.1377C15.4281 50.9748 15.5075 50.7643 15.5075 50.505C15.5075 50.1479 15.2478 49.856 14.7124 49.6296L14.3899 49.5156C13.7405 49.2074 13.4005 48.8177 13.4005 48.3308C13.4005 47.9745 13.5459 47.6671 13.8057 47.4554C14.0825 47.2282 14.3903 47.1309 14.7625 47.1309C15.2987 47.1309 15.6879 47.374 15.9473 47.8442L15.4933 48.1032C15.3141 47.8263 15.0711 47.681 14.7466 47.681C14.5524 47.681 14.3577 47.7298 14.2116 47.8438C14.0487 47.9741 13.9685 48.1358 13.9685 48.3304C13.9685 48.6056 14.1782 48.8165 14.6322 48.979L14.9404 49.1255L14.9388 49.1308ZM11.9869 47.2327H12.572V51.8555H11.9865L11.9869 47.2327ZM34.7649 5.4436L23.5764 31.8493L20.4902 25.0768L26.1904 9.5603C26.6199 8.3592 28.1202 7.80548 30.6487 7.80548L31.5497 5.44808H18.2607L17.4032 7.80548C19.2896 7.80548 20.0611 8.36327 19.7606 9.56355L16.9318 17.4501L11.3595 5.4436C10.3306 4.15782 10.8449 3.51493 12.8598 3.51493V0.728799H0V3.51493C2.40015 3.51493 3.9005 4.15823 4.5438 5.44401L13.9734 25.5084L9.55989 37.295C9.47439 38.8804 6.98792 39.6524 2.1864 39.6524L1.2866 42.0098H37.979L43.0806 31.1649H40.4219C37.9358 36.7795 35.0638 39.6524 31.8489 39.6524H15.0027L17.4891 33.0077L19.6328 37.295H24.4331L37.979 5.4436C38.6215 3.51493 40.2932 2.48606 42.9084 2.48606V0H31.8489V2.48606C35.1924 2.48606 36.1354 3.51493 34.7641 5.44401L34.7649 5.4436Z" fill="#231F20"/>
</svg>
