<svg width="79" height="53" viewBox="0 0 79 53" fill="none" xmlns="http://www.w3.org/2000/svg">
<path d="M5.63035 52.1112C5.5969 52.1074 5.48349 52.0956 5.37834 52.085C4.4185 51.9887 3.39387 51.5961 2.58843 51.0163C1.38083 50.1469 0.52985 48.8809 0.174898 47.4258C-0.0137277 46.6527 -0.0512165 45.7864 0.0694184 44.9895C0.392878 42.8528 1.80482 41.0226 3.76346 40.2011C4.25227 39.9961 4.73738 39.8665 5.30882 39.7882C5.62559 39.7448 6.39704 39.7445 6.71661 39.7878C7.39431 39.8795 7.96872 40.0504 8.55889 40.3359C9.20828 40.6501 9.65769 40.9736 10.2017 41.5185C10.6772 41.9949 10.9709 42.3914 11.3113 43.0168L11.3838 43.1499L11.1271 43.3397C10.7735 43.6013 9.94411 44.1931 9.67399 44.3765L9.45083 44.5281L9.35905 44.3286C9.24556 44.082 9.16476 43.9358 9.03392 43.7404C8.51113 42.9596 7.67746 42.402 6.76875 42.2252C6.28791 42.1316 5.69595 42.142 5.22192 42.2524C4.72416 42.3683 4.18362 42.6282 3.77069 42.9503C3.60424 43.0802 3.2979 43.384 3.16312 43.5529C2.43585 44.4642 2.16797 45.6252 2.41739 46.7849C2.50375 47.1864 2.72728 47.7109 2.96047 48.0593C3.57763 48.9814 4.52363 49.5721 5.59514 49.7046C5.78457 49.728 6.24086 49.728 6.43029 49.7046C7.37922 49.5873 8.25603 49.0943 8.85517 48.3411C9.03161 48.1193 9.15457 47.9273 9.29481 47.6546C9.35627 47.5351 9.41168 47.4373 9.41795 47.4373C9.42422 47.4373 9.86111 47.7456 10.3888 48.1225L11.3482 48.8076L11.251 48.9915C11.0493 49.3731 10.7022 49.8528 10.3789 50.1967C9.8281 50.7828 9.29163 51.181 8.59363 51.522C7.99077 51.8166 7.35197 52.0044 6.67314 52.0868C6.52094 52.1053 5.73856 52.1236 5.63035 52.1112ZM13.8337 45.8732V39.8684H16.1627V44.1786H22.2457V39.8684H24.5746V51.878H22.2457V46.5944H16.1627V51.878H13.8337V45.8732ZM26.9275 50.8134C27.1871 50.2279 28.3848 47.5258 29.589 44.8086L31.7786 39.8684L33.4123 39.8685L35.0461 39.8687L37.6928 45.7995C39.1486 49.0614 40.3546 51.7635 40.3729 51.8041L40.4061 51.878H37.6175L37.0791 50.6875L36.5407 49.4971L33.4244 49.5013L30.3082 49.5056L29.7758 50.6918L29.2435 51.878H26.4555L26.9275 50.8134ZM35.5557 47.0742C35.5459 47.0318 33.4301 42.3025 33.421 42.3026C33.4146 42.3027 31.4052 46.9923 31.3731 47.0822C31.3695 47.0922 32.173 47.0984 33.4643 47.0984C35.2481 47.0984 35.5605 47.0948 35.5557 47.0742ZM42.2849 45.8732V39.8684L43.9229 39.8687L45.561 39.8691L48.1246 43.4696L50.6881 47.0702L50.6925 43.4693L50.6969 39.8684H53.0431V51.8783L52.1017 51.8738L51.1603 51.8693L47.9087 47.3555C46.1204 44.8729 44.6514 42.8414 44.6442 42.841C44.637 42.8406 44.6312 44.8738 44.6312 47.3591V51.878H42.2849V45.8732ZM57.2838 45.8732V39.8684H65.6784V42.2842H59.6301V44.6826H65.2265V47.0984H59.6301V49.4969H66.5474V51.878H57.2838V45.8732ZM69.8322 45.8732V39.8684H72.1785V49.4969H78.7134V51.878H69.8322V45.8732ZM29.6241 36.814C27.1173 36.698 24.3257 35.9369 22.0753 34.7557C20.3476 33.8489 18.9783 32.8341 17.5438 31.3974C16.4203 30.2722 15.5914 29.2357 14.8897 28.0786L14.5826 27.5721L15.0183 27.341C15.8674 26.8906 19.7381 24.9086 19.7685 24.9086C19.7855 24.9086 19.9454 25.1263 20.1238 25.3923C22.141 28.3988 25.2967 30.3546 28.9896 30.8869C29.6352 30.98 31.5765 30.9651 32.2795 30.8618C33.0618 30.7468 34 30.5334 34.596 30.3351C34.6348 30.3222 34.5607 30.2019 34.3902 30.0009C33.0702 28.4449 31.8669 26.3093 31.1899 24.3211C29.9654 20.7247 29.8782 16.8643 30.9396 13.2371C31.5988 10.9847 32.7332 8.7984 34.1698 7.01177C34.3838 6.74559 34.5589 6.51074 34.5589 6.4899C34.5589 6.41901 33.4375 6.1205 32.7025 5.99575C31.5669 5.80302 29.7892 5.77913 28.7629 5.94279C27.0361 6.2182 25.2834 6.86493 23.9138 7.73205C22.3875 8.69838 21.1148 9.9402 20.0991 11.454L19.6507 12.1225L19.0798 11.8228C18.7659 11.658 17.5996 11.0535 16.488 10.4797C15.3765 9.90579 14.4637 9.43319 14.4594 9.42947C14.4418 9.41388 15.1376 8.30711 15.4241 7.89527C16.2937 6.64483 17.838 4.98879 18.979 4.08311C21.9624 1.71491 25.2791 0.381164 29.0131 0.0480757C29.7058 -0.0137278 31.4233 -0.0142665 32.0915 0.047085C34.4621 0.264718 36.4942 0.839528 38.5937 1.88621L39.597 2.38644L39.9331 2.19517C40.4759 1.88631 41.4403 1.44067 42.1727 1.16022C44.2276 0.373413 46.2972 -0.00110985 48.5837 2.47022e-06C50.1805 0.000784572 51.5126 0.157674 52.9587 0.515268C56.2256 1.32313 59.0117 2.87249 61.4121 5.21634C62.7135 6.48703 63.7334 7.78443 64.5568 9.21679L64.6816 9.43389L62.6506 10.4817C61.5335 11.058 60.365 11.663 60.0538 11.8261L59.4881 12.1228L59.0604 11.4777C56.9504 8.29478 53.499 6.22261 49.7212 5.87061C48.6028 5.7664 46.9421 5.86236 45.9326 6.08953C45.413 6.20645 44.5696 6.44742 44.5698 6.47888C44.57 6.49532 44.708 6.67797 44.8765 6.88477C47.0414 9.54112 48.3931 12.7791 48.8299 16.3549C48.9342 17.2084 48.9481 19.3874 48.8546 20.2323C48.4601 23.8003 47.111 27.0931 44.9575 29.7439C44.4693 30.3449 44.4901 30.3033 44.6467 30.3638C44.7206 30.3923 45.0666 30.488 45.4156 30.5765C47.1892 31.0258 49.0983 31.0893 50.8909 30.7586C54.1513 30.1569 57.0877 28.2287 58.9763 25.4491C59.1519 25.1906 59.3106 24.9618 59.3288 24.9406C59.347 24.9194 59.7823 25.1128 60.2962 25.3704C61.3142 25.8807 64.5028 27.5308 64.537 27.565C64.594 27.6219 63.5778 29.1304 62.9545 29.914C62.3645 30.6558 60.818 32.2005 60.0791 32.7861C57.4089 34.9022 54.4123 36.196 51.1116 36.658C47.3219 37.1884 43.3083 36.478 40.0427 34.699L39.5812 34.4476L39.0088 34.7504C36.1725 36.251 32.9192 36.9664 29.6241 36.814ZM40.212 26.3891C41.7926 24.4326 42.7787 22.0594 43.0218 19.6274C43.1033 18.8111 43.0549 17.1484 42.9278 16.4052C42.5783 14.36 41.8303 12.607 40.6236 11.0051C40.3964 10.7035 40.0655 10.3002 39.8883 10.109L39.5662 9.76136L39.2673 10.0855C38.8732 10.5128 38.2166 11.3844 37.8856 11.9196C36.2051 14.6369 35.6564 17.9753 36.3681 21.1527C36.8159 23.1522 37.8456 25.1664 39.2331 26.7574L39.5527 27.1238L39.6925 26.9914C39.7694 26.9186 40.0032 26.6476 40.212 26.3891Z" fill="#231F20"/>
</svg>
