<svg width="183" height="183" viewBox="0 0 183 183" fill="none" xmlns="http://www.w3.org/2000/svg">
<path d="M80.3471 0.633778C94.6005 -1.05111 109.269 0.627583 122.736 5.62031C141.282 12.4156 157.431 25.4735 168.029 42.1304C178.572 58.589 183.596 78.5103 182.023 97.9981C180.759 116.619 173.4 134.744 161.519 149.115C148.585 164.898 130.206 176.098 110.235 180.31C92.5502 184.057 73.7438 182.515 56.9878 175.683C37.5125 167.871 20.9424 153.073 11.0003 134.595C3.11476 120.149 -0.694821 103.517 0.104263 87.0896C0.816624 68.6798 7.4199 50.5796 18.5947 35.9483C33.2941 16.4854 56.0958 3.37792 80.3471 0.633778ZM88.468 1.92222C80.6692 2.27531 72.889 3.4027 65.4247 5.71942C44.1282 12.0563 25.5201 26.7681 14.2772 45.9152C5.66068 60.4473 1.33076 77.4944 1.96879 94.3743C2.58204 111.669 8.36146 128.735 18.4398 142.809C29.9863 159.063 47.0829 171.334 66.2733 176.829C82.7196 181.685 100.572 181.574 116.969 176.556C136.202 170.808 153.256 158.233 164.629 141.712C175.444 126.133 181.019 107.017 180.35 88.0746C179.83 73.8769 175.915 59.8031 168.909 47.439C159.134 30.0636 143.4 16.0889 124.916 8.58125C113.419 3.82392 100.894 1.60631 88.468 1.92222Z" fill="#1B5DA8"/>
<path d="M75.75 8.58828C79.287 8.14847 82.8364 7.77061 86.3673 7.28125C86.4416 7.8945 86.5283 8.50775 86.6089 9.1272C85.1408 9.31922 83.6789 9.51744 82.217 9.72806C82.6382 13.4819 83.3134 17.2171 83.4992 20.9896C83.0471 21.1258 82.1551 21.4108 81.7091 21.5532C81.1577 17.7127 80.7861 13.8474 80.2596 10.0006C78.8286 10.1307 77.3915 10.2608 75.9668 10.4033C75.9111 9.95106 75.8058 9.04047 75.75 8.58828Z" fill="#1B5DA8"/>
<path d="M93.082 20.7854C93.1564 16.3006 93.3732 11.8282 93.4847 7.34961C93.9678 7.362 94.928 7.39297 95.4049 7.40536C95.374 11.8716 95.1448 16.3316 95.0085 20.7977C94.3643 20.7916 93.7263 20.7854 93.082 20.7854Z" fill="#1B5DA8"/>
<path d="M103.923 8.20508C107.113 8.85549 110.303 9.49352 113.481 10.2121C113.37 10.8129 113.258 11.4076 113.147 12.0085C110.564 11.4572 107.98 10.8811 105.36 10.5404C105.193 11.7793 105.013 13.012 104.846 14.2509C107.082 14.6659 109.312 15.1429 111.536 15.6012C111.48 16.0534 111.356 16.9578 111.295 17.41C108.978 16.9888 106.68 16.4932 104.363 16.0596C103.936 17.9242 103.564 19.8011 103.174 21.6718C102.517 21.5603 101.86 21.4488 101.21 21.3373C102.083 16.9516 103.025 12.5846 103.923 8.20508Z" fill="#1B5DA8"/>
<path d="M58.8384 13.6614C61.1365 12.8995 63.3665 11.8154 65.7885 11.4933C68.13 11.165 70.5211 13.172 70.4715 15.5631C70.645 17.1489 69.3999 18.3072 68.5946 19.5151C70.1618 20.593 71.7166 21.6894 73.1847 22.9035C72.4228 23.1017 71.6547 23.3061 70.8928 23.4982C69.4247 22.3832 67.9194 21.3115 66.4328 20.2213C65.485 20.5558 64.5311 20.8903 63.5771 21.2248C64.0603 22.6805 64.5497 24.1424 65.0576 25.5919C64.5992 25.7777 63.6824 26.1494 63.224 26.3352C61.756 22.1168 60.2383 17.9046 58.8384 13.6614ZM61.3038 14.733C61.8427 16.356 62.4064 17.9727 63.0072 19.5709C64.6674 18.8399 66.5938 18.4807 67.9442 17.1922C69.1645 15.8976 68.192 13.4879 66.4328 13.395C64.6364 13.3021 62.9825 14.2313 61.3038 14.733Z" fill="#1B5DA8"/>
<path d="M115.549 25.009C117.153 20.902 118.739 16.7889 120.288 12.6572C120.752 12.7873 121.688 13.0413 122.152 13.1714C120.703 17.4393 118.999 21.6144 117.345 25.8018C116.899 25.6036 116.001 25.2072 115.549 25.009Z" fill="#1B5DA8"/>
<path d="M129.976 16.7344C132.789 18.3573 135.551 20.0546 138.339 21.7085C138.147 22.1235 137.769 22.9474 137.577 23.3624C135.266 22.0678 133.005 20.6864 130.738 19.336C130.106 20.4201 129.475 21.5041 128.855 22.6005C130.85 23.7898 132.838 24.9916 134.851 26.1685C134.622 26.5835 134.176 27.4136 133.953 27.8286C131.928 26.5959 129.908 25.3632 127.839 24.2173C127.158 25.357 126.489 26.4968 125.838 27.649C128.124 29.0489 130.447 30.3931 132.72 31.8178C132.374 32.0904 131.674 32.6293 131.327 32.8957C128.415 31.6506 125.851 29.7241 123.094 28.1817C125.423 24.3907 127.653 20.5316 129.976 16.7344Z" fill="#1B5DA8"/>
<path d="M42.8511 22.4826C45.6634 20.7543 48.4199 18.927 51.3003 17.3164C51.5543 17.8677 51.802 18.419 52.0498 18.9703C49.8694 20.3021 47.7013 21.6463 45.5333 23.0029C46.1899 24.0684 46.8465 25.1338 47.5093 26.193C49.5349 24.9851 51.5171 23.7153 53.5179 22.464C53.7409 22.8852 54.1931 23.7215 54.4223 24.1365C52.4215 25.332 50.4517 26.5771 48.4942 27.8408C49.2252 28.9558 49.9561 30.077 50.6932 31.1982C52.8117 29.9035 54.8249 28.3983 57.0797 27.339C57.4266 27.6302 58.1142 28.2062 58.4549 28.4912C55.6178 30.3123 52.756 32.084 49.8818 33.8432C47.565 30.0398 45.1244 26.3107 42.8511 22.4826Z" fill="#1B5DA8"/>
<path d="M87.6431 22.6563C102.206 21.8944 116.986 25.8898 129.103 34.0293C143.808 43.736 154.531 59.3336 158.173 76.5913C161.419 91.5323 159.567 107.582 152.759 121.29C146.218 134.757 135.099 145.938 121.675 152.566C108.004 159.467 91.9606 161.424 77.001 158.265C60.8893 154.963 46.1589 145.511 36.3159 132.354C27.4269 120.59 22.4899 105.891 22.589 91.1421C22.4713 74.6339 28.7092 58.2124 39.6547 45.8607C51.6596 32.0842 69.3757 23.4863 87.6431 22.6563ZM84.0441 28.4915C67.059 30.3312 51.0277 39.4928 40.8131 53.1887C32.5931 63.998 28.0278 77.5515 28.1269 91.1359C28.0216 104.733 32.5807 118.299 40.8069 129.114C50.4517 142.017 65.244 150.956 81.1761 153.415C94.1844 155.484 107.849 153.446 119.594 147.437C133.655 140.388 144.855 127.857 150.275 113.089C155.497 99.0895 155.497 83.2132 150.275 69.2137C144.849 54.4648 133.674 41.9334 119.619 34.8841C108.729 29.2967 96.1914 27.1658 84.0441 28.4915Z" fill="#1B5DA8"/>
<path d="M136.035 36.5254C139.132 33.3415 142.229 30.1637 145.333 26.9922C147.55 29.2903 150.709 31.3221 151.1 34.7662C151.837 38.836 147.804 42.7818 143.759 42.0447C140.383 41.6668 138.376 38.6192 136.035 36.5254ZM138.773 36.6679C140.383 38.1732 141.994 40.2979 144.447 40.174C147.389 40.2731 149.898 37.1139 149.086 34.2645C148.609 32.2946 146.875 31.0557 145.574 29.6372C143.288 31.9601 141.003 34.2892 138.773 36.6679Z" fill="#1B5DA8"/>
<path d="M30.9956 34.1286C31.5159 30.8456 34.5636 28.758 37.7104 28.4111C37.7352 29.0554 37.7661 29.6996 37.7909 30.35C35.883 30.7217 33.653 31.4588 33.1079 33.5835C31.4664 37.3745 35.8459 41.8221 39.6554 40.1558C41.6934 39.4992 42.5544 37.4055 42.9261 35.479C43.4155 35.5038 44.3942 35.5595 44.8836 35.5843C44.3756 38.4895 42.6783 41.4566 39.5873 42.1256C34.8795 43.7052 29.7381 38.9417 30.9956 34.1286Z" fill="#1B5DA8"/>
<path d="M88.1514 29.1604C101.878 28.4728 115.785 32.5054 126.978 40.4776C138.872 48.8278 147.63 61.5078 151.229 75.5877C154.965 89.9217 153.379 105.6 146.689 118.831C140.705 130.96 130.596 140.995 118.43 146.892C105.304 153.402 89.8239 154.932 75.6572 151.253C61.5525 147.666 48.8477 138.901 40.479 126.995C31.8935 114.941 27.8547 99.7275 29.4157 85.0095C30.5864 72.3109 35.9261 60.0769 44.2886 50.4693C55.197 37.7831 71.4326 29.8913 88.1514 29.1604ZM84.4409 44.8199C67.6974 47.0623 52.8183 59.1972 47.1628 75.1046C43.2789 85.6847 43.4028 97.6833 47.5283 108.171C51.2263 117.617 58.0402 125.843 66.7434 131.084C75.936 136.807 87.1727 139.05 97.8643 137.483C107.8 136.101 117.166 131.319 124.265 124.258C131.283 117.196 136.059 107.886 137.453 98.0116C139.07 87.2705 136.821 75.9718 131.079 66.7421C127.17 60.2937 121.663 54.8426 115.184 51.002C106.072 45.4394 94.9901 43.2961 84.4409 44.8199Z" fill="#1B5DA8"/>
<path d="M23.7545 46.3868C24.597 45.3895 25.4332 44.3922 26.2571 43.3887C26.573 44.6833 26.8703 45.9779 27.1553 47.2788C28.3012 47.7681 29.4472 48.2575 30.5994 48.7531C29.5401 49.4778 28.3632 50.0663 27.4216 50.9397C27.1305 52.1786 27.0871 53.4546 26.9385 54.7183C26.0093 53.8387 25.0739 52.9653 24.1386 52.0919C22.8749 52.3582 21.6112 52.6308 20.3538 52.9219C20.7874 51.8069 21.3077 50.7229 21.6174 49.5645C21.4316 48.2513 20.4529 47.1983 19.8706 46.0337C21.1652 46.1452 22.4599 46.2629 23.7545 46.3868Z" fill="#1B5DA8"/>
<path d="M155.151 47.2416C155.43 45.9532 155.733 44.6709 156.043 43.3887C156.873 44.3922 157.703 45.3957 158.545 46.3868C159.84 46.2629 161.128 46.1452 162.423 46.0337C161.822 47.1921 160.924 48.2575 160.651 49.5521C160.974 50.6857 161.506 51.7388 161.971 52.8166C160.682 52.5874 159.4 52.3582 158.118 52.1414C157.183 53.0024 156.247 53.8697 155.312 54.7431C155.2 53.4299 155.107 52.1166 155.021 50.8034C153.887 50.1592 152.76 49.5088 151.632 48.8584C152.797 48.3071 153.968 47.7681 155.151 47.2416Z" fill="#1B5DA8"/>
<path d="M73.7866 52.9843C77.1626 49.819 81.189 47.3783 85.6366 46.0527C83.2393 48.3385 81.1952 50.9587 79.566 53.8453C77.6272 53.6038 75.7069 53.3126 73.7866 52.9843Z" fill="#1B5DA8"/>
<path d="M80.8613 53.999C82.8931 50.0656 86.0213 46.1755 90.6238 45.333C90.6733 48.3497 90.6547 51.3726 90.6486 54.3955C87.3779 54.3893 84.1134 54.253 80.8613 53.999Z" fill="#1B5DA8"/>
<path d="M91.6755 45.3291C96.2903 46.1654 99.3813 50.0802 101.438 53.9951C98.1796 54.2429 94.9151 54.3978 91.6507 54.3978C91.6445 51.3749 91.6259 48.352 91.6755 45.3291Z" fill="#1B5DA8"/>
<path d="M96.6753 46.0527C101.117 47.3845 105.137 49.819 108.513 52.9843C106.586 53.3188 104.654 53.6038 102.715 53.833C101.111 50.9463 99.054 48.3447 96.6753 46.0527Z" fill="#1B5DA8"/>
<path d="M67.8896 51.9793C71.7736 49.3095 76.2893 47.7609 80.8237 46.584C77.8317 48.3246 74.9575 50.2883 72.4921 52.7351C70.9497 52.5245 69.4135 52.2829 67.8896 51.9793Z" fill="#1B5DA8"/>
<path d="M101.445 46.5723C105.979 47.774 110.544 49.2792 114.416 52.011C112.886 52.2959 111.344 52.5251 109.801 52.7295C107.323 50.2827 104.449 48.3129 101.445 46.5723Z" fill="#1B5DA8"/>
<path d="M54.6152 63.7197C57.8363 59.4146 61.838 55.7041 66.3227 52.7432C68.0386 53.0777 69.7421 53.4431 71.4517 53.8024C68.1377 57.5872 65.4617 61.8986 63.4423 66.501C60.4256 65.8196 57.5018 64.8099 54.6152 63.7197Z" fill="#1B5DA8"/>
<path d="M110.849 53.8024C112.552 53.4431 114.262 53.0777 115.971 52.7432C120.481 55.6669 124.371 59.4517 127.71 63.6454C124.842 64.8285 121.887 65.8258 118.852 66.4948C116.839 61.8924 114.163 57.581 110.849 53.8024Z" fill="#1B5DA8"/>
<path d="M64.5195 66.9469C66.4274 62.2143 69.314 57.9464 72.6404 54.0996C74.8023 54.2916 76.958 54.6014 79.1075 54.8987C76.9951 59.3401 75.5023 64.0479 74.4926 68.8486C71.1228 68.4769 67.8212 67.6964 64.5195 66.9469Z" fill="#1B5DA8"/>
<path d="M103.191 54.8987C105.341 54.6014 107.497 54.2854 109.658 54.0996C112.979 57.9464 115.878 62.2081 117.779 66.9407C114.484 67.7026 111.176 68.4583 107.812 68.8672C106.79 64.0603 105.31 59.3401 103.191 54.8987Z" fill="#1B5DA8"/>
<path d="M75.5957 69.083C76.593 64.2079 78.1044 59.4196 80.3406 54.9658C83.7662 55.387 87.2103 55.4923 90.6544 55.5295C90.9207 60.7267 90.0721 66.0415 91.1499 71.1581C92.2216 66.0415 91.3791 60.7267 91.6455 55.5295C95.102 55.4923 98.5585 55.3808 101.996 54.9658C104.164 59.4444 105.719 64.2079 106.698 69.083C102.48 69.7891 98.193 69.8635 93.9436 70.39C95.7276 70.359 97.6107 70.0183 99.2275 70.9908C105.614 70.6563 111.932 69.5475 118.114 67.9184C118.783 69.467 119.384 71.1023 120.704 72.2421C120.375 70.6563 119.898 69.1139 119.372 67.5839C122.438 66.7538 125.442 65.7194 128.422 64.623C130.726 67.9865 132.69 71.5917 134.053 75.4385C131.395 76.9375 128.019 77.3154 125.938 79.6879C128.979 79.1613 131.711 77.6499 134.53 76.4667C137.608 85.9566 137.608 96.3447 134.53 105.841C131.507 104.571 128.571 102.991 125.337 102.322C127.468 104.949 131.24 105.184 134.046 106.869C132.715 110.728 130.72 114.321 128.422 117.685C125.442 116.588 122.438 115.554 119.378 114.724C119.644 113.763 119.905 112.797 120.115 111.825C119.211 112.463 118.591 113.373 118.059 114.327C113.89 113.466 109.708 112.017 105.397 112.463C103.644 112.642 102.052 111.775 100.38 111.441C98.0134 111.044 95.5356 110.982 93.2498 111.8C97.716 112.618 102.294 112.345 106.754 113.243C105.633 118.087 104.214 122.894 101.959 127.342C98.5337 126.92 95.0896 126.815 91.6455 126.778C91.503 121.791 91.9738 116.762 91.3543 111.8C91.0508 112.512 90.6234 113.212 90.6729 114.017C90.5986 118.273 90.6853 122.522 90.6544 126.778C87.2103 126.815 83.76 126.927 80.3406 127.342C78.0797 122.888 76.6487 118.075 75.5461 113.225C79.5849 112.717 83.6299 112.246 87.712 112.196C86.9873 111.831 86.2811 111.41 85.5068 111.187C83.7661 110.939 82.3662 112.308 80.6689 112.364C78.154 112.543 75.6205 112.134 73.1179 112.487C70.126 112.933 67.1836 113.627 64.2475 114.327C63.7085 113.373 63.0953 112.456 62.1785 111.831C62.3891 112.803 62.6555 113.763 62.9218 114.724C59.8556 115.554 56.8575 116.588 53.878 117.685C51.5736 114.321 49.6038 110.722 48.2534 106.863C51.3011 105.395 54.547 104.36 57.5203 102.731C53.9895 102.205 50.979 104.782 47.7702 105.841C44.6978 96.3447 44.6916 85.9566 47.7764 76.4667C50.5515 77.6499 53.2585 79.0746 56.2257 79.725C54.2806 77.2658 50.8922 76.9189 48.272 75.4694C49.5542 71.5855 51.586 67.9989 53.878 64.623C56.8575 65.7194 59.8556 66.7538 62.9157 67.5839C62.6059 68.6308 62.3148 69.6838 62.0794 70.7555C63.0272 70.0183 63.6714 69.021 64.2165 67.968C70.6401 69.2812 77.2062 71.5545 83.8095 70.0741C81.0716 69.7396 78.3274 69.467 75.5957 69.083ZM59.4715 74.212C59.4715 75.7358 59.4715 77.2596 59.4715 78.7835C60.1839 78.9445 60.8901 79.0994 61.6024 79.2604C61.652 82.0108 61.6458 84.7611 61.6024 87.5052C60.8839 87.784 60.1715 88.0565 59.453 88.3353C59.4653 89.7786 59.4715 91.2219 59.4777 92.6652C63.3616 92.7272 67.2394 92.69 71.1171 92.6962C71.1109 91.1228 71.0985 89.5494 71.0799 87.976C70.603 87.9141 69.6614 87.784 69.1906 87.722C69.0543 84.8912 69.0791 82.0541 69.1535 79.2171C69.7977 79.0808 70.4419 78.9507 71.0861 78.8206C71.1047 77.272 71.1109 75.7296 71.1109 74.1872C67.227 74.1748 63.3493 74.15 59.4715 74.212ZM79.3805 75.6677C77.5903 77.0428 77.3239 79.5454 77.8566 81.6019C78.3522 83.0824 79.7274 83.9992 80.7804 85.0646L81.1893 84.4638C81.2574 84.8416 81.3937 85.5912 81.4618 85.969C80.2291 85.8885 78.9964 85.8451 77.7575 85.808C77.7328 88.0999 77.739 90.398 77.739 92.69C78.9964 92.6962 80.2601 92.7024 81.5176 92.721C81.691 92.5042 82.0317 92.0829 82.2051 91.8723C85.5811 93.3466 89.6818 93.613 92.9339 91.6865C95.1391 90.3857 95.6843 87.3813 94.8108 85.1142C94.1976 83.5718 92.7109 82.6736 91.4844 81.6701L91.2243 82.3886C91.1437 81.9922 90.9703 81.1993 90.8898 80.8028C92.1225 80.8834 93.3613 80.9391 94.594 80.9887C94.594 78.7029 94.594 76.411 94.5878 74.119C93.0083 74.1624 91.3481 74.0509 89.911 74.85C86.5165 73.7783 82.329 73.2208 79.3805 75.6677ZM108.104 74.1996C105.626 74.8872 103.334 76.4977 102.226 78.864C100.082 83.4293 101.464 89.9458 106.382 92.0891C110.929 93.9784 116.919 93.805 120.642 90.2803C124.6 86.1487 123.993 78.1392 118.814 75.2464C115.593 73.4191 111.629 73.289 108.104 74.1996ZM76.9585 96.896C75.0939 99.3552 73.248 101.833 71.4144 104.317C71.4392 104.682 71.495 105.413 71.5197 105.779C73.4028 105.779 75.286 105.773 77.1691 105.76C77.1753 106.627 77.1815 107.489 77.1877 108.356C77.6213 108.362 78.4947 108.381 78.9345 108.387C78.9407 107.507 78.9593 106.634 78.9716 105.754C79.3495 105.76 80.1114 105.766 80.4893 105.766L80.5265 104.305C80.13 104.317 79.3433 104.336 78.9531 104.348C78.9593 101.901 78.9593 99.4605 78.9531 97.0137C78.2903 96.9765 77.6213 96.9332 76.9585 96.896ZM89.4526 96.9022C83.9024 98.2774 84.5219 108.498 90.5119 108.659C95.2383 108.604 96.632 102.31 94.4392 98.9092C93.4604 97.1872 91.3419 96.4438 89.4526 96.9022ZM103.192 97.1748C98.6762 99.4667 99.3638 107.879 104.672 108.641C109.306 109.099 111.288 103.053 109.386 99.5472C108.42 97.1934 105.484 96.1279 103.192 97.1748ZM117.47 99.0145C117.687 99.3366 118.114 99.9747 118.331 100.297C118.926 99.8632 119.527 99.4295 120.121 99.0021C120.208 102.112 120.177 105.221 120.177 108.331C120.611 108.35 121.478 108.387 121.912 108.405C121.856 104.466 122.004 100.52 121.812 96.5801C120.289 97.2429 118.858 98.0977 117.47 99.0145ZM58.753 99.3366C59.7627 100.111 60.8343 99.6525 61.8564 99.2499C61.7387 102.291 61.7883 105.333 61.7883 108.374C62.2219 108.374 63.0891 108.374 63.5289 108.374C63.5289 104.441 63.5908 100.501 63.4793 96.5677C61.7821 97.2677 60.2025 98.2092 58.753 99.3366Z" fill="#1B5DA8"/>
<path d="M15.2994 63.9619C16.4453 64.3707 16.6683 65.9379 17.3621 66.8423C18.6568 67.0591 19.9514 67.245 21.2522 67.4246C20.3974 68.3042 19.462 69.1157 18.7559 70.1254C18.7187 71.42 19.0222 72.6899 19.2143 73.9659C18.0373 73.4766 16.9099 72.7394 15.6215 72.6094C14.4445 73.0306 13.3729 73.6872 12.2703 74.2571C12.4871 72.9934 12.6977 71.7297 12.9083 70.4661C11.9296 69.5245 10.9509 68.5892 9.99072 67.6352C11.2482 67.4494 12.5057 67.2635 13.7631 67.0839C14.2587 66.037 14.7295 64.9716 15.2994 63.9619Z" fill="#1B5DA8"/>
<path d="M166.69 63.7305C167.465 64.7587 167.997 65.9357 168.561 67.0817C169.812 67.2613 171.057 67.4471 172.309 67.633C171.348 68.5807 170.376 69.5161 169.403 70.4453C169.602 71.7275 169.806 73.0159 170.029 74.2982C168.84 73.654 167.663 73.0097 166.492 72.3469C165.358 72.9168 164.219 73.4805 163.091 74.0566C163.271 72.7496 163.574 71.4549 163.543 70.1293C162.837 69.1134 161.89 68.302 161.035 67.4162C162.342 67.2427 163.655 67.0569 164.962 66.8401C165.507 65.787 166.065 64.7402 166.69 63.7305Z" fill="#1B5DA8"/>
<path d="M85.1534 79.751C85.0729 79.0943 85.0977 77.7068 86.1383 77.9608C88.2011 77.4838 89.6382 79.2988 90.8833 80.6058C90.524 80.9031 90.1647 81.1881 89.7992 81.473C88.2506 80.9093 86.6277 80.5191 85.1534 79.751Z" fill="#1B5DA8"/>
<path d="M110.019 80.06C110.087 78.8397 111.388 78.3627 112.199 77.6875C113.036 78.3627 114.349 78.8459 114.436 80.0848C114.727 82.4448 114.758 84.8793 114.355 87.227C114.064 89.364 110.576 89.4198 110.118 87.3446C109.653 84.9536 109.709 82.4696 110.019 80.06Z" fill="#1B5DA8"/>
<path d="M81.5229 86.2058C81.8698 85.9146 82.2291 85.6297 82.5822 85.3447C84.4219 85.9828 86.2679 86.5836 88.0271 87.4137C86.4599 90.5481 82.8671 88.3304 81.5229 86.2058Z" fill="#1B5DA8"/>
<path d="M168.742 88.3422C169.708 87.4068 170.687 86.4776 171.678 85.5732C171.821 86.8369 171.969 88.1006 172.124 89.3642C173.307 89.9651 174.497 90.5598 175.692 91.1544C174.515 91.7367 173.338 92.3252 172.174 92.9199C171.976 94.1835 171.777 95.441 171.554 96.7047C170.619 95.7941 169.696 94.8773 168.767 93.9667C167.503 94.2021 166.24 94.4313 164.97 94.6543C165.564 93.4835 166.165 92.3252 166.748 91.1544C166.159 89.9837 165.564 88.8191 164.97 87.6546C166.227 87.8714 167.485 88.1006 168.742 88.3422Z" fill="#1B5DA8"/>
<path d="M10.6162 85.5732C11.6135 86.4776 12.5923 87.4068 13.5648 88.3422C14.8099 88.1006 16.0488 87.8652 17.2938 87.6484C16.7363 88.8005 16.0611 89.9155 15.6833 91.1544C16.0735 92.3871 16.7549 93.4959 17.3124 94.6605C16.0611 94.4375 14.8099 94.2083 13.5648 93.9667C12.5923 94.8959 11.6135 95.825 10.6224 96.7356C10.48 95.4658 10.3313 94.2021 10.1764 92.9384C8.9809 92.3376 7.78537 91.7429 6.58984 91.1544C7.78537 90.566 8.9809 89.9713 10.1702 89.3766C10.3189 88.1068 10.4676 86.8369 10.6162 85.5732Z" fill="#1B5DA8"/>
<path d="M88.9503 98.8972C90.691 97.3548 93.2617 99.0706 93.4847 101.115C94.3147 103.475 93.0325 107.557 89.96 106.987C86.7947 105.885 86.6398 100.886 88.9503 98.8972Z" fill="#1B5DA8"/>
<path d="M103.76 98.7303C105.303 97.6153 107.427 98.786 107.929 100.465C108.697 102.645 108.356 105.755 106.108 106.919C101.635 107.954 100.613 100.774 103.76 98.7303Z" fill="#1B5DA8"/>
<path d="M73.2168 104.317C74.53 102.552 75.8247 100.774 77.1503 99.0273C77.175 100.793 77.175 102.564 77.175 104.336C75.8556 104.33 74.5362 104.324 73.2168 104.317Z" fill="#1B5DA8"/>
<path d="M13.4344 111.874C13.9671 110.66 14.091 109.315 14.3759 108.033C15.237 108.981 16.0918 109.935 16.9342 110.907C18.2598 110.815 19.5793 110.715 20.9049 110.616C20.2173 111.725 19.5359 112.84 18.8607 113.955C19.3996 115.151 19.9323 116.352 20.4527 117.554C19.1952 117.257 17.9439 116.953 16.6927 116.65C15.683 117.535 14.6609 118.421 13.6388 119.289C13.5583 117.988 13.4901 116.687 13.4158 115.386C12.2698 114.717 11.1238 114.06 9.97168 113.404C11.1362 112.908 12.3256 112.481 13.4344 111.874Z" fill="#1B5DA8"/>
<path d="M165.327 110.897C166.151 110.097 166.752 108.877 167.923 108.549C168.263 109.639 168.449 110.773 168.858 111.844C169.967 112.482 171.181 112.91 172.358 113.424C171.193 114.068 170.029 114.718 168.876 115.381C168.802 116.682 168.728 117.983 168.653 119.284C167.625 118.417 166.609 117.537 165.6 116.651C164.348 116.955 163.097 117.258 161.846 117.556C162.366 116.354 162.899 115.152 163.438 113.957C162.756 112.842 162.081 111.727 161.394 110.624C162.701 110.717 164.014 110.816 165.327 110.897Z" fill="#1B5DA8"/>
<path d="M64.5132 115.412C67.8024 114.581 71.1227 113.844 74.4924 113.454C75.5021 118.261 76.9888 122.969 79.1073 127.404C76.9578 127.708 74.8145 128.017 72.6527 128.215C69.3077 124.387 66.4768 120.107 64.5132 115.412Z" fill="#1B5DA8"/>
<path d="M103.191 127.404C105.31 122.969 106.797 118.249 107.812 113.448C111.176 113.851 114.49 114.6 117.786 115.381C115.847 120.12 112.966 124.406 109.615 128.253C107.472 128.005 105.328 127.702 103.191 127.404Z" fill="#1B5DA8"/>
<path d="M54.5845 118.664C57.4401 117.481 60.4011 116.57 63.3682 115.703C65.4495 120.324 68.0884 124.71 71.4643 128.501C69.7547 128.86 68.045 129.226 66.3291 129.566C61.8258 126.636 57.9171 122.864 54.5845 118.664Z" fill="#1B5DA8"/>
<path d="M110.823 128.507C114.212 124.722 116.844 120.324 118.932 115.703C121.88 116.564 124.804 117.512 127.685 118.571C124.482 122.895 120.462 126.599 115.971 129.566C114.249 129.226 112.539 128.86 110.823 128.507Z" fill="#1B5DA8"/>
<path d="M25.1606 128.19C25.7739 129.318 26.2756 130.513 27.0438 131.548C28.2455 131.932 29.503 132.112 30.7356 132.378C29.7631 133.257 28.7968 134.149 27.8366 135.041C28.0349 136.293 28.2145 137.55 28.388 138.808C27.2358 138.219 26.1332 137.513 24.8943 137.123C23.6678 137.476 22.5528 138.108 21.4006 138.634C21.6484 137.414 21.9581 136.2 22.113 134.961C21.3449 133.852 20.3538 132.923 19.4556 131.926C20.7316 131.796 22.0139 131.678 23.2961 131.573C23.9218 130.445 24.535 129.318 25.1606 128.19Z" fill="#1B5DA8"/>
<path d="M80.8613 128.315C84.1196 128.067 87.3841 127.912 90.6486 127.912C90.6547 130.916 90.6733 133.927 90.63 136.937C86.0027 136.176 82.9179 132.217 80.8613 128.315Z" fill="#1B5DA8"/>
<path d="M91.6507 127.912C94.9151 127.918 98.1796 128.055 101.438 128.309C99.3813 132.23 96.2903 136.132 91.6755 136.981C91.6259 133.958 91.6445 130.935 91.6507 127.912Z" fill="#1B5DA8"/>
<path d="M157.021 128.172C157.703 129.293 158.372 130.433 159.041 131.573C160.311 131.684 161.574 131.796 162.844 131.926C161.946 132.923 160.955 133.846 160.187 134.955C160.335 136.194 160.645 137.408 160.899 138.634C159.741 138.102 158.626 137.476 157.399 137.117C156.179 137.488 155.107 138.213 153.98 138.795C153.887 137.278 155.014 135.234 153.497 134.131C152.877 133.518 152.221 132.942 151.57 132.366C152.822 132.099 154.091 131.92 155.312 131.548C156.036 130.507 156.476 129.305 157.021 128.172Z" fill="#1B5DA8"/>
<path d="M73.7866 129.319C75.7255 128.979 77.6829 128.694 79.6466 128.508C81.1952 131.413 83.2517 134.002 85.6614 136.238C81.189 134.95 77.1626 132.491 73.7866 129.319Z" fill="#1B5DA8"/>
<path d="M96.625 136.257C99.0532 133.996 101.097 131.364 102.733 128.471C104.653 128.706 106.573 128.991 108.487 129.313C105.136 132.522 101.073 134.925 96.625 136.257Z" fill="#1B5DA8"/>
<path d="M67.8833 130.298C69.4133 130.013 70.9557 129.784 72.4982 129.579C74.9697 132.026 77.844 133.99 80.8421 135.73C76.3077 134.535 71.7548 133.023 67.8833 130.298Z" fill="#1B5DA8"/>
<path d="M101.445 135.736C104.462 133.99 107.361 132.014 109.832 129.542C111.387 129.784 112.929 130.087 114.447 130.502C110.396 132.868 105.998 134.621 101.445 135.736Z" fill="#1B5DA8"/>
<path d="M139.77 144.247C140.365 143.72 140.965 143.2 141.56 142.68C142.05 145.876 142.068 149.147 142.762 152.306C143.635 153.836 144.88 155.106 145.94 156.512C145.556 156.815 144.787 157.422 144.403 157.732C143.251 156.345 142.087 154.982 140.922 153.607C137.819 152.709 134.721 151.767 131.674 150.689C132.386 150.274 133.018 149.63 133.848 149.469C136.177 149.921 138.37 150.863 140.625 151.575C140.383 149.128 140.111 146.681 139.77 144.247Z" fill="#1B5DA8"/>
<path d="M35.7903 155.068C33.8948 150.813 37.5371 145.461 42.2077 145.758C45.8501 145.541 48.6685 148.638 49.2694 152.027C48.7986 152.058 47.8694 152.12 47.4049 152.151C46.7978 149.995 45.3297 147.641 42.8024 147.684C38.9742 147.139 36.0195 151.674 37.7973 155.031C38.6335 157.069 40.9255 157.465 42.8334 157.825C42.8829 158.283 42.9882 159.194 43.0378 159.652C40.0087 159.609 36.769 158.141 35.7903 155.068Z" fill="#1B5DA8"/>
<path d="M126.594 153.464C127.263 153.371 127.938 153.321 128.619 153.303C130.664 157.088 132.472 160.996 134.424 164.837C133.829 165.128 133.241 165.425 132.652 165.723C128.892 163.939 125.219 161.963 121.421 160.241C122.698 163.22 124.407 165.995 125.652 168.987C125.138 169.396 124.612 169.792 124.079 170.164C122.091 166.138 120.046 162.13 118.07 158.097C118.479 157.862 119.297 157.391 119.706 157.156C123.521 159.008 127.337 160.848 131.128 162.755C129.629 159.652 127.994 156.611 126.594 153.464Z" fill="#1B5DA8"/>
<path d="M54.8249 154.672C59.0185 153.706 63.2741 157.484 62.9892 161.734C63.0139 166.361 57.6124 169.762 53.4311 167.841C49.4729 166.367 47.9119 160.891 50.3773 157.503C51.3993 156.01 53.0718 155.025 54.8249 154.672ZM54.1187 156.945C50.5507 158.407 50.1295 164.044 53.586 165.872C57.0363 167.996 61.806 164.428 60.9574 160.532C60.5733 157.429 56.9062 155.372 54.1187 156.945Z" fill="#1B5DA8"/>
<path d="M67.418 173.378C68.3471 168.98 69.2577 164.576 70.0754 160.159C70.763 160.345 71.4506 160.543 72.1319 160.741C73.0177 163.851 73.9469 166.954 74.9194 170.039C76.9946 167.531 79.0883 165.04 81.1634 162.532C81.6528 162.612 82.6253 162.779 83.1147 162.86C82.297 167.202 81.3617 171.526 80.5502 175.868C80.0732 175.825 79.1255 175.732 78.6485 175.689C79.0635 172.579 79.7697 169.519 80.3891 166.447C78.2521 168.875 76.2203 171.384 74.1142 173.83C73.1726 170.752 72.293 167.661 71.2895 164.607C70.6701 167.555 70.0506 170.51 69.4497 173.459C68.9418 173.44 67.9259 173.397 67.418 173.378Z" fill="#1B5DA8"/>
<path d="M106.425 161.455C107.131 161.251 107.831 161.046 108.537 160.842C111.436 164.726 114.248 168.672 117.191 172.525C116.676 172.692 115.648 173.02 115.134 173.187C114.527 172.37 113.92 171.558 113.319 170.741C111.077 171.224 108.853 171.763 106.623 172.283C106.4 173.224 106.226 174.185 105.892 175.095C105.384 175.3 104.374 175.715 103.873 175.919C104.684 171.087 105.576 166.274 106.425 161.455ZM108.097 163.772C107.651 165.958 107.267 168.157 106.908 170.369C108.642 169.966 110.377 169.551 112.124 169.204C110.829 167.358 109.516 165.525 108.097 163.772Z" fill="#1B5DA8"/>
<path d="M88.7407 163.178C91.4539 163.259 94.3281 162.354 96.9298 163.445C99.3394 164.43 100.349 167.837 98.5775 169.85C96.7501 172.098 93.5414 171.559 90.9831 171.888C91.0203 173.405 91.0513 174.917 91.076 176.441C90.5929 176.434 89.6265 176.428 89.1372 176.428C89.0195 172.012 88.8956 167.595 88.7407 163.178ZM90.8097 164.801C90.8282 166.523 90.8716 168.252 90.915 169.974C93.4237 169.955 96.6324 170.197 97.7846 167.397C97.1156 166.498 96.7254 165.105 95.4431 164.944C93.9193 164.628 92.3521 164.807 90.8097 164.801Z" fill="#1B5DA8"/>
</svg>
