<svg width="179" height="179" viewBox="0 0 179 179" fill="none" xmlns="http://www.w3.org/2000/svg">
<path d="M80.2682 0.295063C84.9972 -0.478481 89.774 0.653924 94.5269 0C114.631 1.1643 134.321 9.33037 149.217 22.9352C166.49 38.3901 177.256 60.8388 178.508 83.9734C178.062 89.2765 179.138 94.6355 177.998 99.8908C175.566 120.697 165.438 140.458 150.031 154.637C136.761 166.99 119.631 175.18 101.64 177.548C98.7535 177.899 95.8986 178.888 92.9479 178.489C88.211 177.859 83.4022 178.824 78.6972 177.788C57.4925 175.315 37.3644 164.869 23.1296 148.975C10.8087 135.442 2.91378 118.017 0.728719 99.8589C-0.355838 95.4011 0.808465 90.8475 0.146567 86.3578C-0.395711 82.8729 0.712769 79.4677 1.10353 76.0386C4.04619 55.1688 14.8758 35.591 30.7933 21.8187C44.5336 9.73708 62.0939 2.24089 80.2682 0.295063ZM77.5169 4.76886C56.8944 7.57595 37.5159 18.3577 24.1743 34.331C10.5296 50.376 3.25669 71.6684 4.27745 92.7057C4.88353 110.075 11.1277 127.172 21.7181 140.937C33.2096 156.001 49.8527 167.062 68.2264 171.711C85.9063 176.224 105.046 174.941 121.904 167.923C143.763 158.975 161.49 140.506 169.465 118.264C176.196 99.8589 176.275 79.1008 169.68 60.6474C163.101 41.9149 149.656 25.7343 132.542 15.6942C116.138 5.93316 96.393 2.13721 77.5169 4.76886Z" fill="#1B5DA8"/>
<path d="M73.4258 11.9545C77.756 11.3643 82.0943 10.83 86.4405 10.3516C86.4963 11.4202 86.5441 12.4808 86.592 13.5414C85.0768 13.685 83.5616 13.8285 82.0384 13.9561C82.6046 18.5495 83.2107 23.135 83.7291 27.7364C82.501 27.9198 81.2729 28.1032 80.0527 28.2786C79.4227 23.7012 78.8645 19.1157 78.3462 14.5303C76.815 14.6738 75.2759 14.8333 73.7448 15.0008C73.665 14.2432 73.5055 12.7121 73.4258 11.9545Z" fill="#1B5DA8"/>
<path d="M91.2332 10.4629C92.4693 10.5107 93.7133 10.5506 94.9574 10.5985C94.6543 16.2445 94.5746 21.8906 94.1838 27.5367C92.9398 27.4888 91.6957 27.441 90.4517 27.3931C90.5234 21.7391 91.0817 16.109 91.2332 10.4629Z" fill="#1B5DA8"/>
<path d="M101.154 11.2363C104.527 12.0019 107.901 12.7356 111.29 13.4214C111.075 14.4262 110.843 15.431 110.628 16.4438C108.499 15.9813 106.369 15.5267 104.24 15.104C103.945 16.3959 103.65 17.6878 103.379 18.9877C105.365 19.3944 107.35 19.833 109.336 20.2397C109.161 21.2525 108.985 22.2573 108.81 23.2621C106.808 22.8156 104.79 22.3849 102.797 21.9064C102.231 24.1234 101.848 26.3802 101.314 28.6052C100.069 28.3819 98.8334 28.1586 97.5894 27.9433C98.7935 22.377 100.03 16.8186 101.154 11.2363Z" fill="#1B5DA8"/>
<path d="M56.5034 17.6083C60.0522 16.2048 64.2628 13.1744 68.0268 15.495C70.2757 17.2814 70.0285 20.3676 68.4734 22.5128C71.121 23.8844 72.5724 26.5639 74.279 28.8765C73.0748 29.3391 71.8626 29.7936 70.6585 30.2562C69.3187 28.5735 68.298 26.5559 66.5754 25.2162C65.5228 24.945 64.4861 25.4634 63.4573 25.6069C64.2628 27.776 65.0921 29.9372 65.9375 32.0903C64.7971 32.4811 63.6647 32.9038 62.5004 33.2148C60.2116 28.1349 58.5449 22.7919 56.5034 17.6083ZM60.8576 18.5174C61.4238 20.1762 62.0299 21.811 62.6678 23.4378C63.6966 22.8557 64.7811 22.3453 65.6982 21.5877C66.8785 20.4952 66.1289 18.5812 64.9486 17.8476C63.5451 17.5924 62.1894 18.1905 60.8576 18.5174Z" fill="#1B5DA8"/>
<path d="M116.959 15.3516C118.116 15.854 119.28 16.3564 120.436 16.8588C118.347 22.0902 116.194 27.3056 114.2 32.5769C112.988 32.0984 111.784 31.604 110.58 31.1016C112.836 25.91 114.814 20.5989 116.959 15.3516Z" fill="#1B5DA8"/>
<path d="M117.342 33.9081C120.285 29.0755 123.283 24.2747 126.178 19.4102C129.161 21.2284 132.135 23.0546 135.126 24.8728C134.584 25.758 134.041 26.6432 133.499 27.5284C131.625 26.3402 129.727 25.1758 127.837 24.0195C127.175 25.0403 126.537 26.085 125.931 27.1456C127.693 28.2142 129.528 29.1791 131.17 30.4312C130.74 31.3323 130.221 32.1856 129.727 33.0469C127.925 31.9304 126.122 30.8139 124.312 29.7055C123.594 30.8937 122.901 32.0899 122.247 33.318C124.24 34.5222 126.234 35.7184 128.212 36.9465C127.646 37.8077 127.079 38.669 126.513 39.5382C123.475 37.6323 120.405 35.7742 117.342 33.9081Z" fill="#1B5DA8"/>
<path d="M41.5591 26.7073C44.4778 24.7216 47.4045 22.7438 50.3711 20.8379C50.8735 21.7151 51.3759 22.5923 51.8863 23.4695C50.0681 24.7056 48.2179 25.8859 46.4157 27.1459C47.0855 28.1507 47.7554 29.1475 48.4173 30.1523C50.1877 29.0119 51.9102 27.7998 53.6726 26.6435C54.2229 27.4967 54.7811 28.35 55.3393 29.2113C53.6008 30.3836 51.8384 31.5319 50.1079 32.7202C50.8895 33.8605 51.671 35.0009 52.4525 36.1493C54.3744 34.8255 56.3122 33.5336 58.2421 32.2098C58.8163 33.0631 59.3984 33.9004 59.9886 34.7457C56.9901 36.7873 53.9836 38.7969 50.9612 40.7985C47.875 36.0695 44.7011 31.3964 41.5591 26.7073Z" fill="#1B5DA8"/>
<path d="M128.826 41.094C132.869 37.1864 136.848 33.215 140.907 29.3154C143.595 31.7876 146.753 34.172 147.997 37.7447C150.006 43.8533 142.805 50.2011 136.936 48.0001C133.523 46.6923 131.146 43.7655 128.826 41.094ZM133.427 41.9393C135.054 43.3748 136.832 45.3525 139.257 44.8421C141.697 44.2999 143.794 42.3461 144.608 40.0015C145.317 37.4975 143.228 35.5915 141.753 33.9088C138.977 36.5804 136.202 39.2599 133.427 41.9393Z" fill="#1B5DA8"/>
<path d="M36.6067 30.6387C37.2367 31.476 37.8667 32.3134 38.4967 33.1507C36.5189 34.7217 34.0548 36.5399 34.1824 39.363C34.6449 42.7363 38.2893 45.8065 41.7424 44.6901C43.7281 43.9325 44.8605 42.0026 46.0886 40.3997C46.9339 40.926 47.7712 41.4523 48.6165 41.9866C46.7824 45.0728 44.1906 48.2228 40.4026 48.7651C34.5811 49.3473 29.0227 42.9037 31.0722 37.2258C31.9574 34.3708 34.3179 32.3851 36.6067 30.6387Z" fill="#1B5DA8"/>
<path d="M81.4088 31.9386C95.8429 29.7934 111.027 33.5973 122.901 42.0505C133.611 49.5866 141.602 60.8946 145.142 73.5026C148.603 85.5683 147.965 98.7584 143.38 110.441C135.118 132.348 112.478 147.859 89.0166 147.268C73.7052 147.348 58.5454 140.833 47.9151 129.844C39.7171 121.518 34.1588 110.641 32.2369 99.1173C29.7328 84.7948 32.9068 69.5711 40.9612 57.4655C49.9327 43.6614 65.0846 34.0758 81.4088 31.9386ZM81.4726 33.5495C64.9889 35.7983 49.8609 45.8703 41.3121 60.1211C33.7042 72.5855 31.2799 88.0963 34.7728 102.283C37.8351 115.298 45.8098 127.013 56.6633 134.788C66.225 141.702 78.0275 145.442 89.8221 145.315C100.971 145.259 112.071 141.742 121.234 135.386C131.625 128.225 139.536 117.499 143.141 105.385C146.602 94.0374 146.307 81.5969 142.319 70.4244C137.806 57.5214 128.332 46.4685 116.346 39.9053C105.811 34.0997 93.3788 31.819 81.4726 33.5495Z" fill="#1B5DA8"/>
<path d="M82.1818 35.8777C96.313 33.7803 111.186 37.8714 122.446 46.6276C132.079 54.0281 139.057 64.8098 141.856 76.6283C144.751 88.5026 143.435 101.366 138.14 112.387C132.821 123.671 123.419 132.969 112.071 138.169C100.97 143.36 88.0592 144.525 76.1928 141.478C63.1064 138.209 51.3996 129.78 44.1506 118.408C38.5842 109.883 35.7054 99.7309 35.522 89.5712C35.5379 77.035 39.8921 64.5068 47.9704 54.8813C56.4635 44.5701 68.9199 37.5763 82.1818 35.8777ZM53.9993 63.502C53.9754 64.5387 53.9515 65.5674 53.9275 66.6041C55.028 66.8194 56.1285 67.0427 57.229 67.282C57.4603 74.1801 57.3965 81.0861 57.2689 87.9842C56.1604 88.2793 55.052 88.5664 53.9435 88.8455C53.9515 89.8344 53.9674 90.8232 53.9913 91.8201C58.8718 91.8041 63.7523 91.828 68.6328 91.7961C68.6488 90.879 68.6727 89.962 68.6887 89.0449C67.5882 88.6541 66.4637 88.3112 65.4111 87.7849C64.9725 81.4769 65.2675 75.1211 65.2516 68.7972C64.8768 66.8354 67.3888 67.0746 68.585 66.4845C68.6169 65.5036 68.6568 64.5227 68.6966 63.5498C63.7922 63.494 58.8958 63.5498 53.9993 63.502ZM75.9855 63.9007C70.3075 66.317 70.2597 75.4401 75.4352 78.4066C79.5661 80.9187 84.654 80.3525 89.0081 82.1707C91.576 82.9283 90.9221 86.812 88.7131 87.6094C83.5854 89.3559 75.8818 87.8487 74.9887 81.5168C73.8642 81.5646 72.7318 81.6045 71.6074 81.6523C71.5994 85.0336 71.6074 88.4069 71.5914 91.7882C72.6202 91.7961 73.6489 91.8121 74.6776 91.828C75.6266 91.3496 76.4959 89.7546 77.6841 90.5202C82.6204 92.777 88.8726 93.3831 93.5378 90.1853C97.9159 87.0034 98.1232 79.2759 93.4421 76.2694C89.0799 73.3587 83.4099 74.204 78.8404 71.8913C77.5565 71.373 77.6363 70.0173 77.8516 68.8769C79.5821 66.3091 83.1149 66.8912 85.7625 67.1783C89.0161 67.577 91.2809 70.3124 91.895 73.4065C93.0114 73.247 94.1359 73.0875 95.2603 72.936C95.2284 69.7302 95.2443 66.5324 95.2364 63.3265C94.3432 63.3505 93.458 63.3664 92.5728 63.3903C91.6956 63.813 90.9779 65.3681 89.8614 64.754C85.5312 62.9039 80.4433 61.7635 75.9855 63.9007ZM107.645 63.7891C103.985 65.0331 101.162 68.2389 100.3 71.995C99.0642 76.9712 99.0164 82.6492 101.744 87.1549C104.096 90.9428 108.777 92.2507 112.972 92.3783C117.837 92.5697 123.291 91.1103 126.082 86.8199C129.216 81.5646 129.201 74.6825 126.808 69.1481C123.411 62.2579 114.136 61.7555 107.645 63.7891ZM59.8846 101.166C55.6022 102.442 56.0089 108.064 56.6788 111.541C57.2051 115.114 62.2052 116.414 64.4621 113.703C66.3441 111.175 66.0012 107.698 65.5227 104.771C65.0602 102.243 62.4046 100.401 59.8846 101.166ZM70.9614 101.134C68.6009 101.581 67.4526 104.085 67.4446 106.278C67.3968 108.583 67.1336 111.143 68.4016 113.192C70.0523 115.991 74.9966 115.776 76.129 112.634C77.2056 109.899 77.2136 106.725 76.2487 103.958C75.5549 101.812 73.1306 100.528 70.9614 101.134ZM106.959 101.206C105.38 101.629 104.312 103.056 103.977 104.603C103.283 107.363 103.291 110.457 104.583 113.049C106.05 115.943 111.026 115.84 112.302 112.817C113.49 109.994 113.435 106.653 112.446 103.782C111.704 101.597 109.08 100.504 106.959 101.206ZM114.591 104.835C115.077 105.401 115.572 105.975 116.058 106.549C116.888 105.887 117.709 105.226 118.53 104.564C118.506 108.041 118.506 111.518 118.53 114.994C119.519 114.971 120.516 114.955 121.513 114.931C121.473 110.273 121.569 105.616 121.441 100.959C118.634 101.103 116.624 103.144 114.591 104.835ZM47.6036 110.042C49.358 110.76 51.0247 109.699 52.532 108.926C51.9658 109.954 51.6308 111.167 50.7696 112.004C49.4458 113.057 47.6355 112.642 46.0804 112.849C46.0884 113.415 46.1203 114.532 46.1283 115.098C48.3054 115.018 50.8174 115.361 52.5559 113.742C55.1078 111.502 55.1158 107.642 54.5336 104.564C53.9355 101.94 50.8334 100.401 48.3453 101.31C44.4775 102.179 43.9751 108.535 47.6036 110.042ZM78.5454 104.731C78.8085 105.154 79.3349 105.999 79.598 106.43C80.5709 105.951 81.4641 105.337 82.3652 104.747C82.1419 108.152 82.2137 111.573 82.2376 114.987C82.9793 114.979 84.4626 114.979 85.1962 114.971C85.2042 110.313 85.2361 105.656 85.1723 100.999C82.445 101.047 80.4035 102.969 78.5454 104.731ZM92.9157 102.937C93.2905 103.559 93.6733 104.181 94.08 104.787C95.6351 104.021 97.3018 103.591 99.0323 103.527C99.7979 108.694 93.0035 110.138 92.5888 114.915C95.9302 114.994 99.2795 114.979 102.613 114.899C102.517 114.285 102.326 113.057 102.23 112.443C100.332 112.339 98.4342 112.403 96.5362 112.427C98.6575 110.122 101.903 108.168 102.055 104.707C101.76 100.193 95.356 100.114 92.9157 102.937ZM125.022 101.278C124.942 103.726 124.759 106.167 124.663 108.615C126.274 108.647 127.893 108.567 129.504 108.758C130.604 109.484 130.421 110.88 130.676 112.004C128.547 112.953 126.266 112.626 124.113 111.988C124.216 112.905 124.328 113.83 124.44 114.747C126.688 114.931 129.177 115.577 131.274 114.444C133.722 113.16 134.296 109.492 132.502 107.442C131.17 105.911 128.937 106.326 127.143 105.999C127.422 105.289 127.725 104.588 128.052 103.894C129.543 103.75 131.043 103.814 132.55 103.814C132.574 103.176 132.638 101.884 132.67 101.246C130.118 101.286 127.574 101.238 125.022 101.278ZM88.1628 104.436C88.1549 105.154 88.1469 106.589 88.1469 107.307C90.2123 108.16 91.7993 106.717 91.576 104.548C90.4356 104.508 89.2952 104.468 88.1628 104.436ZM88.2745 112.179C88.2665 113.16 88.2825 114.149 88.3064 115.13C89.2713 115.058 90.2283 114.939 91.1852 114.779C91.3846 113.766 91.1214 112.77 90.93 111.781C90.2681 111.884 88.9364 112.084 88.2745 112.179Z" fill="#1B5DA8"/>
<path d="M111.513 67.3386C113.722 66.7245 116.449 66.6049 118.315 68.1759C120.229 70.2733 120.5 73.2638 120.724 75.9592C120.851 78.8301 120.756 81.8046 119.751 84.524C118.371 88.2881 113.028 89.1095 110.014 86.9324C107.462 84.3007 107.43 80.2655 107.286 76.8284C107.262 73.3515 107.773 68.79 111.513 67.3386Z" fill="#1B5DA8"/>
<path d="M48.4414 104.022C49.4143 103.456 50.5706 103.703 51.6313 103.711C51.7908 105.282 52.3251 108.073 49.8928 107.953C47.8034 108.097 47.8911 105.37 48.4414 104.022Z" fill="#1B5DA8"/>
<path d="M59.638 111.621C59.1675 108.734 58.5694 105.082 61.0655 102.921C63.5775 105.09 63.0193 108.782 62.493 111.685C62.0464 113.113 59.9969 113.105 59.638 111.621Z" fill="#1B5DA8"/>
<path d="M70.8743 104.061C72.8201 102.06 74.1598 105.425 73.9206 107.108C73.8728 109.022 74.415 112.985 71.5043 112.722C69.5664 110.393 70.2124 106.797 70.8743 104.061Z" fill="#1B5DA8"/>
<path d="M107.453 103.942L108.004 103.352C110.643 103.575 109.989 106.805 110.173 108.695C109.957 109.971 110.245 112.108 108.785 112.634C106.927 113.272 106.68 110.792 106.52 109.54C106.52 107.682 106.162 105.473 107.453 103.942Z" fill="#1B5DA8"/>
<path d="M137.032 129.795C138.005 128.727 138.97 127.666 139.935 126.605C140.932 129.516 141.753 132.483 142.678 135.425C143.428 138.544 146.49 140.154 148.555 142.34C147.662 143.281 146.769 144.222 145.868 145.155C143.523 143.161 141.657 140.154 138.388 139.66C135.549 138.902 132.71 138.169 129.887 137.363C130.86 136.279 131.856 135.218 132.869 134.181C135.341 135.138 137.814 136.071 140.294 137.004C139.233 134.588 138.125 132.196 137.032 129.795Z" fill="#1B5DA8"/>
<path d="M30.355 140.514C29.1907 134.565 35.8496 128.935 41.5515 130.777C44.7653 131.631 46.8865 134.414 48.5532 137.109C47.6361 137.604 46.7191 138.098 45.8099 138.592C44.6775 137.013 43.6329 135.139 41.7349 134.382C37.8034 132.851 33.0425 137.165 34.1669 141.216C34.8288 143.218 36.6869 144.438 38.1782 145.786C37.5721 146.591 36.958 147.404 36.352 148.218C33.7283 146.264 30.9531 143.919 30.355 140.514Z" fill="#1B5DA8"/>
<path d="M125.62 140.147C126.609 139.588 127.606 139.022 128.603 138.456C131.546 143.257 134.552 148.026 137.551 152.795C136.434 153.52 135.31 154.254 134.193 154.98C129.999 152.595 125.724 150.354 121.705 147.675C124.049 151.224 126.338 154.812 128.579 158.425C127.606 159.047 126.633 159.661 125.66 160.275C122.646 155.434 119.568 150.633 116.625 145.745C117.941 145.011 119.241 144.27 120.564 143.552C124.48 145.737 128.451 147.818 132.176 150.322C129.887 146.997 127.622 143.656 125.62 140.147Z" fill="#1B5DA8"/>
<path d="M50.834 140.721C55.6985 139.852 61.0575 144.318 60.2919 149.406C59.6858 154.589 54.2551 159.805 48.8562 157.588C44.829 156.368 42.1495 151.87 43.577 147.779C44.5579 144.406 47.3091 141.415 50.834 140.721ZM51.751 144.031C49.1991 145.067 47.4686 147.635 46.9742 150.291C46.4 152.755 48.8961 155.411 51.4002 154.773C54.3667 153.8 56.3604 150.753 56.5997 147.715C56.7272 145.267 54.1036 143.13 51.751 144.031Z" fill="#1B5DA8"/>
<path d="M66.6552 147.906C68.2741 148.305 69.9009 148.704 71.5198 149.134C71.7192 153.257 71.8627 157.38 71.7271 161.511C73.7607 157.875 75.7942 154.238 78.0112 150.705C79.63 151.088 81.2489 151.487 82.8678 151.87C81.8151 157.444 80.7624 163.01 79.7576 168.593C78.5455 168.321 77.3413 168.002 76.1451 167.668C77.1419 163.162 77.9713 158.624 79.1117 154.142C76.7352 158.194 74.3189 162.213 71.9584 166.264C71.0014 166.12 70.0445 165.969 69.0955 165.817C68.7446 161.312 68.8164 156.79 68.7845 152.276C67.2693 156.407 66.2326 160.698 64.9566 164.9C63.8242 164.685 62.6998 164.47 61.5674 164.262C63.1464 158.776 64.9247 153.353 66.6552 147.906Z" fill="#1B5DA8"/>
<path d="M104.232 150.132C105.74 149.39 107.398 149.023 108.993 148.497C112.311 153.473 115.612 158.465 118.85 163.489C117.502 163.808 116.163 164.135 114.831 164.478C114.049 163.17 113.244 161.895 112.414 160.627C110.819 161.113 109.225 161.591 107.638 162.118C107.677 163.641 107.685 165.172 107.654 166.703C106.425 166.998 105.205 167.325 103.993 167.676C104.177 161.831 104.009 155.977 104.232 150.132ZM107.382 151.815C107.343 154.279 107.382 156.751 107.358 159.223C108.626 158.872 109.894 158.513 111.154 158.13C109.831 156.065 108.531 153.984 107.382 151.815Z" fill="#1B5DA8"/>
<path d="M87.4533 152.029C90.2763 151.567 93.219 151.256 96.042 151.87C99.7662 152.882 100.667 158.273 97.9161 160.753C96.1776 162.436 93.6177 162.412 91.3689 162.659C91.4566 164.701 91.5523 166.734 91.64 168.776C90.4518 168.768 89.2636 168.728 88.0833 168.672C87.7244 163.154 86.919 157.5 87.4533 152.029ZM90.9542 154.23C91.002 156.128 91.1057 158.018 91.2413 159.916C93.219 159.797 96.0739 159.23 95.8427 156.615C95.5875 154.111 92.7884 154.318 90.9542 154.23Z" fill="#1B5DA8"/>
</svg>
