<svg width="143" height="53" viewBox="0 0 143 53" fill="none" xmlns="http://www.w3.org/2000/svg">
<path d="M59.0891 3.51006C62.0785 1.38149 65.6967 0.143619 69.3648 0.0198324C74.8399 -0.239125 80.3534 2.05165 84.0599 6.08398C85.5439 7.67329 86.7463 9.52156 87.6185 11.5121C84.9264 11.5007 82.2245 11.5562 79.5381 11.4851C78.0683 9.6923 76.1048 8.29223 73.8952 7.57512C70.9314 6.57344 67.5749 6.80963 64.7762 8.20828C62.4811 9.34086 60.5574 11.2119 59.3765 13.4842C58.1557 15.792 57.7431 18.504 58.1742 21.075C58.5157 23.1253 59.4078 25.0803 60.7239 26.6881C62.4256 28.7954 64.8544 30.3007 67.4981 30.8841C69.823 31.392 72.3001 31.2128 74.5141 30.332C76.489 29.5623 78.2434 28.249 79.568 26.5956C82.2515 26.6013 84.935 26.5971 87.6199 26.5985C85.6364 31.2412 81.7293 35.0189 77.0183 36.8358C71.8064 38.8933 65.6896 38.4735 60.8136 35.7104C56.4696 33.2972 53.1444 29.1255 51.7856 24.3433C50.6232 20.3152 50.8338 15.9044 52.3932 12.0115C53.7449 8.61094 56.1054 5.62582 59.0891 3.51006Z" fill="black"/>
<path d="M104.289 0.49592C105.548 0.124559 106.902 0.118867 108.187 0.36075C108.8 0.514417 109.554 0.693695 109.85 1.32259C114.993 13.5277 120.118 25.74 125.263 37.9437C122.518 37.9479 119.773 37.9437 117.03 37.9451C113.511 29.4649 110.01 20.9791 106.487 12.5004C102.98 20.9848 99.4665 29.4678 95.9507 37.9493C93.2103 37.938 90.4713 37.9522 87.731 37.9422C92.8404 25.767 97.9683 13.6003 103.085 1.4293C103.26 0.904275 103.796 0.646742 104.289 0.49592Z" fill="black"/>
<path d="M13.9836 0.632697C21.916 0.631274 29.8483 0.632697 37.7807 0.632697C38.5404 0.635542 39.3031 0.601394 40.0586 0.712375C42.7222 1.02967 45.2335 2.41409 46.9437 4.47721C48.3609 6.16755 49.2431 8.3075 49.401 10.5101C49.6116 13.0441 48.8788 15.6508 47.3606 17.694C45.4298 20.359 42.2228 22.0351 38.9289 22.0806C34.1339 22.0849 29.3375 22.0806 24.5411 22.082C23.0599 22.0849 21.721 23.3939 21.704 24.8793C21.6997 29.2346 21.7054 33.5914 21.7026 37.9481C19.3791 37.9467 17.0556 37.9467 14.7306 37.9481C14.7292 34.3056 14.7306 30.6632 14.7306 27.0221C14.742 25.5893 14.6481 24.1352 14.9967 22.7308C15.7024 19.612 18.0373 16.9299 21.0239 15.7902C22.1849 15.3321 23.4327 15.1186 24.6777 15.1101C29.4243 15.1087 34.1723 15.1115 38.9189 15.1087C40.8383 15.0461 42.4988 13.2988 42.4789 11.3808C42.4874 10.1003 41.7988 8.8368 40.7046 8.16806C40.0145 7.70564 39.1693 7.56193 38.3526 7.56904C30.2296 7.57047 22.1066 7.56904 13.9836 7.56904C13.9836 5.25693 13.9836 2.94481 13.9836 0.632697Z" fill="black"/>
<path d="M25.8899 42.3087C26.7763 41.4194 28.4467 41.539 29.1396 42.6104C28.9533 42.7427 28.7683 42.875 28.5833 43.0088C28.1863 42.451 27.4152 42.1878 26.7877 42.5122C25.8813 42.9177 25.7006 44.2751 26.4277 44.9339C27.0282 45.5485 28.1166 45.392 28.5819 44.6877C28.7711 44.8243 28.9589 44.9623 29.1482 45.1018C28.4752 46.0693 27.0068 46.2685 26.0834 45.5514C25.0717 44.8115 24.9864 43.1681 25.8899 42.3087Z" fill="black"/>
<path d="M31.1702 41.7834C32.068 41.5472 33.128 41.9143 33.5961 42.7395C34.087 43.5918 33.9504 44.8169 33.1764 45.4628C32.3312 46.2041 30.9155 46.1458 30.1372 45.3348C29.3859 44.5551 29.3674 43.192 30.1087 42.4009C30.3862 42.0879 30.7647 41.8787 31.1702 41.7834ZM31.1631 42.482C30.4033 42.7851 30.0575 43.7668 30.4161 44.4925C30.7234 45.2409 31.708 45.5326 32.4052 45.1555C33.1835 44.787 33.3855 43.6871 32.9188 42.9999C32.5574 42.4336 31.7749 42.2344 31.1631 42.482Z" fill="black"/>
<path d="M44.9874 42.4788C45.8155 41.4245 47.641 41.4714 48.3851 42.6012C48.2016 42.7349 48.0195 42.8715 47.8359 43.0052C47.4389 42.4816 46.7247 42.1971 46.0986 42.4831C45.1567 42.8502 44.9205 44.2303 45.6504 44.9133C46.2494 45.5521 47.3607 45.3985 47.8345 44.6842C48.0195 44.8222 48.2058 44.9617 48.3922 45.1025C47.7534 46.0231 46.3932 46.2536 45.4655 45.6432C44.4111 45.0043 44.1977 43.4093 44.9874 42.4788Z" fill="black"/>
<path d="M55.6358 41.7706C56.6347 41.5273 57.7985 42.0438 58.1585 43.0355C58.6138 44.1225 58.0319 45.5411 56.8709 45.8698C55.7354 46.2881 54.3112 45.608 54.0508 44.4C53.7349 43.2745 54.4677 41.9812 55.6358 41.7706ZM55.623 42.4735C54.5872 42.8121 54.3809 44.363 55.236 45.0047C55.9972 45.6592 57.3333 45.2409 57.5439 44.2463C57.9109 43.1508 56.6958 41.9968 55.623 42.4735Z" fill="black"/>
<path d="M88.6359 42.1593C89.5551 41.428 91.0462 41.6187 91.7121 42.6018C91.5257 42.7384 91.3393 42.8736 91.1529 43.0102C90.7574 42.4681 90.0104 42.1921 89.3843 42.498C88.4894 42.8821 88.2603 44.1869 88.9376 44.8741C89.5166 45.55 90.6734 45.4248 91.1501 44.6891C91.3365 44.8229 91.5229 44.9595 91.7107 45.0961C91.0306 46.0963 89.501 46.2785 88.589 45.503C87.5617 44.6963 87.583 42.9334 88.6359 42.1593Z" fill="black"/>
<path d="M93.7637 41.7778C94.9902 41.4292 96.4287 42.3597 96.4401 43.6744C96.5781 44.743 95.7571 45.8073 94.6914 45.9481C93.6158 46.1715 92.4078 45.4758 92.1901 44.3716C91.887 43.2647 92.6155 41.9855 93.7637 41.7778ZM93.7552 42.4764C92.7393 42.8364 92.5358 44.3474 93.3739 45.0005C94.2105 45.7489 95.7529 45.1087 95.7287 43.9576C95.8809 42.9161 94.7085 42.0553 93.7552 42.4764Z" fill="black"/>
<path d="M104.445 41.7888C105.737 41.3889 107.247 42.4262 107.184 43.812C107.279 45.0812 106.036 46.1612 104.794 45.9719C103.708 45.9136 102.803 44.9019 102.87 43.8163C102.844 42.8801 103.534 41.9979 104.445 41.7888ZM104.673 42.4205C103.597 42.6396 103.207 44.1592 104.001 44.8962C104.722 45.7044 106.241 45.2875 106.434 44.2147C106.739 43.1931 105.71 42.1146 104.673 42.4205Z" fill="black"/>
<path d="M0 41.8304C0.728494 41.8461 1.46979 41.7579 2.1926 41.8817C3.13309 42.1065 3.45323 43.4382 2.76885 44.0984C2.23955 44.679 1.37873 44.4968 0.680118 44.5267C0.680118 44.9763 0.680118 45.4274 0.680118 45.8784C0.455309 45.8784 0.229077 45.8784 0.00426835 45.8784C0.00142267 44.5296 0.00995988 43.1793 0 41.8304ZM0.680118 42.465C0.680118 42.9374 0.680118 43.4112 0.680118 43.8864C1.16388 43.858 1.69176 43.9818 2.13853 43.747C2.60095 43.4539 2.4857 42.6571 1.9621 42.502C1.54094 42.4195 1.10697 42.4778 0.680118 42.465Z" fill="black"/>
<path d="M3.84448 41.8229C4.53456 41.8357 5.22748 41.7887 5.91472 41.8442C6.57918 41.9338 7.08714 42.5812 7.01599 43.2486C7.03307 43.839 6.5493 44.283 6.03281 44.4736C6.45824 44.936 6.87229 45.4098 7.29487 45.8751C6.99465 45.8751 6.69443 45.8765 6.39421 45.8765C5.99866 45.4326 5.6458 44.9488 5.21752 44.5362C4.99841 44.5163 4.77644 44.522 4.5559 44.522C4.55733 44.973 4.55733 45.4241 4.55733 45.8765C4.31971 45.8765 4.08352 45.8765 3.84591 45.8765C3.84448 44.5248 3.84733 43.1731 3.84448 41.8229ZM4.55733 42.4631C4.55733 42.9355 4.55733 43.4093 4.55733 43.8831C4.99983 43.8661 5.45798 43.94 5.89053 43.8248C6.39279 43.6384 6.47389 42.8516 6.0072 42.5812C5.56185 42.3536 5.03682 42.5016 4.55733 42.4631Z" fill="black"/>
<path d="M7.901 41.8232C8.13862 41.8232 8.37481 41.8232 8.61242 41.8232C8.61242 43.1991 8.61242 44.5736 8.61242 45.9495C8.37481 45.9481 8.13862 45.9481 7.901 45.9495C7.901 44.5736 7.901 43.1991 7.901 41.8232Z" fill="black"/>
<path d="M9.13452 41.8222C9.3949 41.8208 9.65528 41.8222 9.91566 41.8222C10.3212 42.8879 10.7466 43.9465 11.1407 45.0165C11.569 43.9621 11.9674 42.8936 12.3743 41.8307C12.6262 41.8236 12.8794 41.8208 13.1313 41.8193C12.5892 43.1739 12.0357 44.5227 11.4922 45.8773C11.2503 45.8773 11.0098 45.8773 10.7679 45.8801C10.2287 44.5256 9.66951 43.1781 9.13452 41.8222Z" fill="black"/>
<path d="M14.4888 41.8212C14.725 41.8197 14.9597 41.8155 15.1945 41.8283C15.7807 43.1615 16.2972 44.5288 16.8493 45.8777C16.5889 45.8763 16.3285 45.8763 16.0681 45.8734C15.9642 45.5903 15.859 45.3057 15.7522 45.024C15.1418 45.024 14.5315 45.0226 13.9225 45.0268C13.8129 45.31 13.7034 45.5931 13.5938 45.8777C13.3462 45.8777 13.0986 45.8777 12.8511 45.8777C13.3946 44.5246 13.9424 43.1729 14.4888 41.8212ZM14.8317 42.6407C14.6126 43.2227 14.3877 43.8032 14.1629 44.3837C14.6126 44.3837 15.0622 44.3837 15.5118 44.3837C15.2827 43.8032 15.0693 43.217 14.8317 42.6407Z" fill="black"/>
<path d="M16.5078 41.8243C17.5991 41.8229 18.6904 41.8229 19.7832 41.8243C19.7818 42.0363 19.7818 42.2497 19.7818 42.4632C19.3549 42.4632 18.9281 42.4632 18.5012 42.4632C18.5012 43.6014 18.5026 44.7397 18.5012 45.878C18.275 45.878 18.0502 45.878 17.8254 45.878C17.8239 44.7397 17.8282 43.6 17.8225 42.4617C17.3843 42.4632 16.9475 42.4632 16.5092 42.4632C16.5092 42.2497 16.5078 42.0363 16.5078 41.8243Z" fill="black"/>
<path d="M20.3865 41.8219C21.3355 41.8219 22.2845 41.8205 23.2336 41.8219C23.2322 42.0353 23.2322 42.2488 23.2322 42.4622C22.5079 42.4622 21.7851 42.4622 21.0623 42.4622C21.0623 42.8051 21.0623 43.1494 21.0623 43.4938C21.7496 43.4938 22.4382 43.4938 23.1254 43.4938C23.1254 43.7058 23.1254 43.9206 23.1254 44.134C22.4382 44.134 21.7496 44.134 21.0623 44.134C21.0623 44.5011 21.0623 44.8682 21.0623 45.2353C21.7851 45.2382 22.5094 45.2353 23.2336 45.2367C23.2322 45.4502 23.2322 45.6636 23.2322 45.877C22.2831 45.877 21.3341 45.8784 20.3865 45.877C20.3865 44.5253 20.3865 43.1736 20.3865 41.8219Z" fill="black"/>
<path d="M34.6846 41.8219C34.9108 41.8219 35.1356 41.8205 35.3618 41.8219C35.3618 42.9602 35.3618 44.0985 35.3618 45.2367C35.9907 45.2367 36.6182 45.2367 37.2471 45.2367C37.2471 45.4502 37.2471 45.6636 37.2471 45.877C36.3934 45.877 35.5383 45.8784 34.6846 45.877C34.686 44.5253 34.686 43.1736 34.6846 41.8219Z" fill="black"/>
<path d="M37.8503 41.8233C38.0766 41.8219 38.3014 41.8205 38.5276 41.8219C38.5276 42.9602 38.5276 44.0984 38.5276 45.2367C39.1551 45.2367 39.784 45.2367 40.4129 45.2367C40.4129 45.4501 40.4129 45.6635 40.4129 45.877C39.5592 45.877 38.7055 45.877 37.8518 45.877C37.8503 44.5253 37.8518 43.1736 37.8503 41.8233Z" fill="black"/>
<path d="M41.0177 41.8219C41.9667 41.8219 42.9158 41.8205 43.8648 41.8219C43.8634 42.0353 43.8634 42.2488 43.8634 42.4622C43.1392 42.4622 42.4164 42.4622 41.6935 42.4636C41.6935 42.8065 41.6935 43.1494 41.6935 43.4938C42.3808 43.4938 43.068 43.4938 43.7567 43.4938C43.7552 43.7058 43.7552 43.9206 43.7567 44.134C43.068 44.134 42.3808 44.134 41.6935 44.134C41.6935 44.5011 41.6935 44.8682 41.6935 45.2353C42.4164 45.2367 43.1406 45.2353 43.8648 45.2367C43.8634 45.4502 43.8634 45.6636 43.8634 45.877C42.9143 45.877 41.9653 45.8784 41.0177 45.877C41.0177 44.5253 41.0177 43.1736 41.0177 41.8219Z" fill="black"/>
<path d="M48.6641 41.8249C49.7554 41.822 50.8467 41.8235 51.9394 41.8249C51.938 42.0369 51.938 42.2503 51.938 42.4637C51.4984 42.4637 51.0601 42.4637 50.6219 42.4652C50.6219 43.602 50.6219 44.7403 50.6219 45.8786C50.3957 45.8786 50.1709 45.8786 49.946 45.8786C49.9446 44.7403 49.946 43.602 49.946 42.4637C49.5178 42.4637 49.0923 42.4637 48.6655 42.4637C48.6641 42.2503 48.6641 42.0369 48.6641 41.8249Z" fill="black"/>
<path d="M52.4359 41.8232C52.7205 41.8232 53.005 41.8232 53.2896 41.8232C53.2896 43.1991 53.2896 44.5736 53.2896 45.9495C53.0036 45.9495 52.7205 45.9495 52.4359 45.9495C52.4359 44.5736 52.4359 43.1991 52.4359 41.8232Z" fill="black"/>
<path d="M59.0878 41.8213C59.3183 41.8213 59.5502 41.8241 59.7821 41.827C60.5106 42.8173 61.2434 43.8047 61.969 44.7979C61.969 43.8062 61.969 42.8144 61.969 41.8227C62.1938 41.8213 62.4186 41.8227 62.6463 41.8227C62.6434 43.1744 62.6463 44.5261 62.6449 45.8792C62.4115 45.8778 62.1782 45.8778 61.9477 45.8778C61.2235 44.8861 60.4836 43.9072 59.7665 42.9098C59.7608 43.9001 59.765 44.8889 59.7636 45.8778C59.5374 45.8778 59.3126 45.8778 59.0878 45.8778C59.0878 44.5261 59.0878 43.173 59.0878 41.8213Z" fill="black"/>
<path d="M66.061 41.8213C66.3001 41.8213 66.5405 41.8227 66.7824 41.8241C67.3288 43.1758 67.8723 44.5275 68.4229 45.8778C68.1611 45.8764 67.9008 45.8778 67.6404 45.8778C67.5351 45.5932 67.4284 45.3087 67.3245 45.0241C66.7113 45.0241 66.0994 45.0241 65.4876 45.0241C65.3823 45.303 65.277 45.5833 65.1774 45.865C64.9227 45.8735 64.6666 45.8778 64.4148 45.8849C64.964 44.5304 65.5047 43.173 66.061 41.8213ZM65.7323 44.3838C66.1805 44.3838 66.6287 44.3852 67.0783 44.3796C66.8564 43.8047 66.6344 43.2299 66.4082 42.6565C66.1663 43.2256 65.9529 43.8062 65.7323 44.3838Z" fill="black"/>
<path d="M68.9408 41.8232C69.6551 41.8445 70.3764 41.7734 71.0879 41.863C71.8932 42.0224 72.3499 43.0098 71.9885 43.7383C71.8363 44.1168 71.4649 44.3203 71.112 44.4725C71.5403 44.9307 71.9529 45.4045 72.3627 45.8797C72.0682 45.8783 71.7751 45.8783 71.482 45.8797C71.095 45.4287 70.7108 44.9776 70.3238 44.528C70.0876 44.5266 69.8514 44.5252 69.6166 44.5266C69.6166 44.9762 69.6166 45.4273 69.6166 45.8783C69.3904 45.8783 69.1656 45.8783 68.9422 45.8797C68.9394 44.5266 68.9408 43.1749 68.9408 41.8232ZM69.6166 42.4649C69.6166 42.9373 69.6166 43.4111 69.6166 43.8849C70.0904 43.8579 70.5913 43.9674 71.0437 43.7938C71.5674 43.5406 71.4919 42.6499 70.9228 42.5033C70.4931 42.4236 70.0506 42.4749 69.6166 42.4649Z" fill="black"/>
<path d="M74.1739 41.8193C74.413 41.8208 74.6534 41.8208 74.8939 41.8222C75.446 43.171 75.9881 44.5242 76.5344 45.8759C76.2755 45.8759 76.0179 45.8773 75.7618 45.8787C75.6509 45.5956 75.5427 45.311 75.4403 45.0264C74.8284 45.0221 74.2166 45.0236 73.6062 45.0236C73.4938 45.3081 73.3857 45.5941 73.279 45.8801C73.0286 45.8773 72.7796 45.8759 72.532 45.8744C73.0812 44.5227 73.6262 43.171 74.1739 41.8193ZM73.8495 44.3833C74.2963 44.3833 74.7445 44.3833 75.1927 44.3819C74.9722 43.8042 74.7488 43.2265 74.5268 42.6489C74.2878 43.2223 74.0672 43.8028 73.8495 44.3833Z" fill="black"/>
<path d="M77.051 41.8224C77.7226 41.8295 78.3956 41.8082 79.0686 41.8281C79.5225 41.8437 79.9892 42.1283 80.1016 42.5907C80.2467 43.009 80.0717 43.4644 79.7473 43.7447C80.5327 44.1843 80.4601 45.5147 79.5751 45.7878C78.7542 45.9814 77.8891 45.8305 77.051 45.8775C77.051 44.5258 77.051 43.1741 77.051 41.8224ZM77.7269 42.4285C77.7269 42.7828 77.7269 43.1371 77.7269 43.4928C78.1907 43.4729 78.6688 43.5497 79.127 43.4487C79.5638 43.3064 79.551 42.6149 79.1227 42.4712C78.6645 42.3801 78.1907 42.4413 77.7269 42.4285ZM77.7269 44.1004C77.7269 44.4902 77.7269 44.8801 77.7269 45.2714C78.2064 45.2586 78.6916 45.314 79.1682 45.2344C79.7089 45.1319 79.726 44.2426 79.1867 44.1231C78.7015 44.0691 78.2135 44.1089 77.7269 44.1004Z" fill="black"/>
<path d="M81.035 41.8219C81.2712 41.8219 81.5074 41.8205 81.7465 41.8219C81.7465 43.1978 81.7465 44.5723 81.7465 45.9482C81.5088 45.9467 81.2712 45.9467 81.035 45.9482C81.035 44.5723 81.035 43.1978 81.035 41.8219Z" fill="black"/>
<path d="M82.2316 45.8789C82.768 44.5229 83.3243 43.1769 83.865 41.8224C84.1055 41.8209 84.3473 41.8209 84.5906 41.8224C85.1356 43.1741 85.6877 44.5229 86.2283 45.876C85.9694 45.876 85.7133 45.8775 85.4586 45.8789C85.3476 45.5929 85.2366 45.3069 85.1256 45.0223C84.5152 45.0252 83.9063 45.0237 83.2973 45.0237C83.192 45.3069 83.0853 45.59 82.9828 45.8746C82.731 45.876 82.4806 45.876 82.2316 45.8789ZM84.2193 42.6547C83.9802 43.2253 83.7654 43.8058 83.5434 44.3835C83.9902 44.3835 84.4384 44.3835 84.8866 44.3835C84.6689 43.8044 84.4469 43.2281 84.2193 42.6547Z" fill="black"/>
<path d="M99.6742 41.8232C100.563 41.8232 101.453 41.8232 102.342 41.8232C102.341 42.0367 102.341 42.2501 102.342 42.4635C101.678 42.4635 101.015 42.4635 100.35 42.4635C100.349 42.8064 100.35 43.1508 100.351 43.4951C100.979 43.4951 101.606 43.4951 102.235 43.4951C102.234 43.7071 102.234 43.9219 102.235 44.1354C101.606 44.1354 100.978 44.1354 100.35 44.1354C100.35 44.7159 100.35 45.2978 100.35 45.8783C100.124 45.8783 99.8976 45.8783 99.6742 45.8783C99.6742 44.5266 99.6742 43.1749 99.6742 41.8232Z" fill="black"/>
<path d="M107.961 41.8232C108.704 41.8531 109.459 41.7535 110.195 41.8829C110.974 42.0907 111.356 43.0425 111.01 43.7554C110.852 44.1182 110.489 44.3231 110.145 44.4754C110.572 44.9335 110.98 45.4087 111.401 45.8726C111.104 45.8754 110.812 45.8797 110.519 45.8811C110.124 45.4301 109.737 44.9733 109.34 44.5251C109.116 44.5251 108.894 44.5266 108.674 44.528C108.674 44.9776 108.672 45.4272 108.674 45.8783C108.436 45.8783 108.198 45.8783 107.962 45.8797C107.959 44.528 107.962 43.1749 107.961 41.8232ZM108.674 42.4649C108.672 42.9373 108.672 43.4111 108.674 43.8863C109.132 43.8593 109.616 43.9603 110.057 43.8038C110.592 43.5562 110.529 42.6683 109.96 42.5033C109.537 42.4179 109.101 42.4777 108.674 42.4649Z" fill="black"/>
<path d="M113.333 41.8232C113.617 41.8232 113.901 41.8232 114.187 41.8232C114.187 43.1991 114.187 44.5736 114.187 45.9495C113.901 45.9495 113.617 45.9495 113.333 45.9495C113.333 44.5736 113.333 43.1991 113.333 41.8232Z" fill="black"/>
<path d="M115.041 41.8224C115.273 41.8209 115.507 41.8209 115.744 41.8224C116.466 42.8127 117.201 43.7958 117.926 44.7847C117.916 43.7973 117.923 42.8098 117.922 41.8224C118.145 41.8224 118.37 41.8224 118.598 41.8224C118.598 43.1741 118.598 44.5258 118.598 45.876C118.367 45.8774 118.14 45.8774 117.913 45.8803C117.181 44.8886 116.451 43.8954 115.718 42.9037C115.715 43.8954 115.718 44.8857 115.717 45.8775C115.49 45.8775 115.264 45.8775 115.042 45.8789C115.039 44.5258 115.041 43.1741 115.041 41.8224Z" fill="black"/>
<path d="M119.558 41.8236C120.462 41.872 121.451 41.6515 122.273 42.1381C123.475 42.8267 123.493 44.8315 122.303 45.5429C121.479 46.0552 120.473 45.8318 119.558 45.8787C119.558 44.527 119.558 43.1753 119.558 41.8236ZM120.234 42.4639C120.234 43.3888 120.234 44.3136 120.234 45.2385C120.795 45.2285 121.417 45.3196 121.912 44.9909C122.623 44.5128 122.656 43.3404 122.02 42.7883C121.52 42.3729 120.833 42.4725 120.234 42.4639Z" fill="black"/>
<path d="M123.934 41.8227C124.157 41.8227 124.382 41.8227 124.61 41.8227C124.615 42.6394 124.598 43.4561 124.615 44.2714C124.612 44.8406 125.129 45.3727 125.712 45.3144C126.304 45.3556 126.755 44.8007 126.762 44.2415C126.804 43.4376 126.769 42.6323 126.777 41.827C127.001 41.8241 127.226 41.8213 127.455 41.8213C127.425 42.7618 127.521 43.7122 127.398 44.6471C127.246 45.6018 126.18 46.1752 125.278 45.939C124.528 45.8252 123.958 45.128 123.938 44.3796C123.922 43.5273 123.939 42.675 123.934 41.8227Z" fill="black"/>
<path d="M128.374 42.9679C128.312 42.4215 128.771 41.9605 129.271 41.8339C130.039 41.5963 130.914 41.8253 131.468 42.4101C131.317 42.5638 131.167 42.7175 131.019 42.8711C130.578 42.504 129.982 42.238 129.409 42.4528C129.104 42.5254 128.892 42.9821 129.19 43.1898C129.767 43.5427 130.524 43.4417 131.081 43.8515C131.667 44.2513 131.644 45.2473 131.039 45.62C130.109 46.2376 128.823 45.9487 128.049 45.2074C128.212 45.0367 128.38 44.8702 128.552 44.708C129.059 45.1832 129.831 45.502 130.504 45.1932C130.807 45.0765 130.958 44.6198 130.655 44.4163C130.179 44.1104 129.574 44.146 129.066 43.9126C128.677 43.7718 128.347 43.399 128.374 42.9679Z" fill="black"/>
<path d="M131.83 41.8232C132.92 41.8232 134.012 41.8232 135.103 41.8232C135.1 42.0367 135.101 42.2501 135.101 42.4649C134.675 42.4635 134.248 42.4635 133.822 42.4635C133.822 43.6018 133.822 44.7401 133.822 45.8783C133.596 45.8783 133.37 45.8783 133.148 45.8798C133.144 44.7415 133.146 43.6032 133.146 42.4649C132.707 42.4635 132.269 42.4635 131.83 42.4635C131.829 42.2501 131.829 42.0367 131.83 41.8232Z" fill="black"/>
<path d="M135.706 41.8234C136.365 41.8348 137.024 41.7978 137.683 41.8405C138.364 41.8989 138.93 42.5633 138.842 43.252C138.868 43.8467 138.368 44.265 137.873 44.4856C138.294 44.9452 138.708 45.4104 139.12 45.88C138.819 45.8785 138.525 45.8785 138.229 45.8785C137.839 45.4303 137.455 44.9765 137.068 44.5268C136.837 44.5254 136.61 44.5254 136.384 44.5268C136.382 44.9779 136.382 45.4275 136.384 45.8785C136.156 45.8785 135.931 45.8771 135.706 45.8785C135.708 44.5268 135.708 43.1751 135.706 41.8234ZM136.384 42.4651C136.382 42.9375 136.382 43.4113 136.384 43.8851C136.874 43.8453 137.432 44.0075 137.875 43.7329C138.333 43.4241 138.192 42.6273 137.658 42.4979C137.236 42.4296 136.808 42.4723 136.384 42.4651Z" fill="black"/>
<path d="M139.064 41.8213C139.334 41.8213 139.606 41.8241 139.881 41.8284C140.252 42.4303 140.659 43.0108 141.035 43.6098C141.423 43.0151 141.812 42.4175 142.201 41.8227C142.466 41.8227 142.731 41.8213 143 41.8227C142.453 42.6408 141.91 43.459 141.363 44.2757C141.362 44.8093 141.363 45.3442 141.362 45.8792C141.136 45.8778 140.911 45.8778 140.688 45.8778C140.686 45.3442 140.686 44.8107 140.688 44.2785C140.16 43.4504 139.602 42.6423 139.064 41.8213Z" fill="black"/>
<path d="M96.8285 44.9521C97.1116 44.9521 97.3962 44.9521 97.6822 44.9521C97.6807 45.2837 97.6807 45.6152 97.6822 45.9481C97.3962 45.9481 97.1116 45.9481 96.8285 45.9481C96.827 45.6152 96.827 45.2837 96.8285 44.9521Z" fill="black"/>
<path d="M12.383 48.7237C12.6078 48.7223 12.834 48.7223 13.0588 48.7237C13.0588 49.8734 13.0588 51.0245 13.0588 52.1741C13.6877 52.1741 14.3152 52.1741 14.9441 52.1741C14.9441 52.3861 14.9441 52.5995 14.9441 52.8144C14.0904 52.8144 13.2367 52.8144 12.383 52.8144C12.3815 51.4513 12.383 50.0868 12.383 48.7237Z" fill="black"/>
<path d="M15.5488 48.7233C15.7736 48.7233 15.9984 48.7219 16.2247 48.7233C16.2261 49.8729 16.2247 51.024 16.2261 52.1737C16.8536 52.1723 17.4825 52.1737 18.1099 52.1737C18.1099 52.3857 18.1099 52.5991 18.1099 52.814C17.2562 52.814 16.4025 52.814 15.5488 52.814C15.5488 51.4509 15.5488 50.0864 15.5488 48.7233Z" fill="black"/>
<path d="M28.6601 49.2102C29.5451 48.3337 31.1686 48.4945 31.8814 49.5161C31.6922 49.6555 31.5044 49.7964 31.318 49.9387C30.9153 49.3752 30.1342 49.0921 29.501 49.4449C28.4936 49.9017 28.4453 51.5109 29.4028 52.0487C30.0417 52.4571 30.8997 52.2067 31.3208 51.6062C31.5072 51.7457 31.6922 51.8851 31.8786 52.0274C31.1686 53.049 29.565 53.1955 28.6672 52.3475C27.7865 51.5493 27.7708 50.0055 28.6601 49.2102Z" fill="black"/>
<path d="M33.7255 48.751C34.9577 48.2957 36.5086 49.1309 36.601 50.4897C36.8017 51.6593 35.8626 52.8559 34.6674 52.8858C33.6045 53.0309 32.5004 52.2726 32.3396 51.1969C32.1091 50.1838 32.7167 49.0513 33.7255 48.751ZM33.8464 49.4269C32.7708 49.8651 32.7395 51.5853 33.7838 52.0805C34.693 52.614 35.9679 51.84 35.901 50.7871C35.9864 49.7499 34.7713 48.946 33.8464 49.4269Z" fill="black"/>
<path d="M48.4519 48.6514C48.7365 48.6514 49.0196 48.6514 49.3056 48.6514C49.3056 50.0742 49.3056 51.497 49.3056 52.9199C49.0196 52.9185 48.7365 52.9185 48.4519 52.9199C48.4519 51.497 48.4519 50.0742 48.4519 48.6514Z" fill="black"/>
<path d="M51.736 48.6713C52.9554 48.4038 54.3113 49.3529 54.29 50.6405C54.4365 51.8443 53.3481 52.9768 52.1429 52.8901C51.1455 52.9484 50.1822 52.1943 50.0243 51.2026C49.7554 50.0714 50.5707 48.8222 51.736 48.6713ZM51.6179 49.3899C50.4782 49.7698 50.3829 51.5625 51.46 52.0748C52.3649 52.6169 53.6582 51.8457 53.58 50.7871C53.6782 49.7868 52.5285 48.9872 51.6179 49.3899Z" fill="black"/>
<path d="M60.0324 48.976C60.852 48.4467 62.0287 48.6218 62.6931 49.3303C62.538 49.4854 62.3844 49.6405 62.2293 49.797C61.8081 49.4484 61.2433 49.1582 60.6884 49.3559C60.3326 49.41 60.0836 49.9336 60.455 50.1442C61.054 50.4601 61.8096 50.3804 62.3573 50.8158C62.9165 51.264 62.8212 52.2699 62.1781 52.5986C61.249 53.1307 60.0111 52.8647 59.274 52.1219C59.432 51.9555 59.5942 51.7918 59.7564 51.6282C60.1078 51.9142 60.5005 52.186 60.9687 52.2215C61.3571 52.2813 61.8778 52.1974 62.0358 51.7819C62.1012 51.5215 61.8921 51.3123 61.6715 51.2241C61.1138 50.9965 60.4522 51.0292 59.9599 50.6479C59.4234 50.2481 59.4718 49.3346 60.0324 48.976Z" fill="black"/>
<path d="M65.1347 49.1305C65.6242 48.3792 67.0257 48.5898 67.1552 49.5203C67.2903 50.0525 66.8806 50.4694 66.4807 50.7426C66.7155 50.9418 66.9403 51.1495 67.1666 51.3586C67.4156 51.0727 67.6603 50.7838 67.9007 50.4921C68.0629 50.6273 68.2223 50.7653 68.3817 50.9076C68.1327 51.1993 67.8837 51.491 67.6276 51.777C67.8609 51.9875 68.0942 52.1995 68.3205 52.4201C68.164 52.5766 68.0117 52.736 67.8595 52.8967C67.6446 52.7018 67.4355 52.504 67.2249 52.3077C66.7966 52.6904 66.2403 53.0063 65.6455 52.8683C65.0437 52.8014 64.5315 52.2565 64.5599 51.6418C64.5101 51.1452 64.8615 50.7525 65.2229 50.4665C64.9398 50.0824 64.8487 49.5388 65.1347 49.1305ZM66.0596 50.2503C66.2161 50.1378 66.3598 50.0098 66.5049 49.8846C66.5391 49.5644 66.3185 49.1817 65.9514 49.3083C65.452 49.4079 65.6057 50.219 66.0596 50.2503ZM65.4022 52.0345C65.7722 52.4813 66.4068 52.2308 66.7525 51.8865C66.4139 51.5564 66.0639 51.2377 65.7167 50.9161C65.3396 51.1296 65.0679 51.6646 65.4022 52.0345Z" fill="black"/>
<path d="M82.5645 48.7233C83.5121 48.7219 84.4611 48.7233 85.4101 48.7233C85.4087 48.9353 85.4087 49.1487 85.4116 49.3636C84.6873 49.3636 83.9631 49.3621 83.2403 49.365C83.2389 49.7065 83.2403 50.0508 83.2417 50.3951C83.9275 50.3937 84.6148 50.3951 85.302 50.3937C85.302 50.6185 85.302 50.8447 85.3034 51.071C84.6133 51.0724 83.9247 51.0639 83.2346 51.0795C83.2403 51.4438 83.2403 51.808 83.2417 52.1737C83.9645 52.1737 84.6873 52.1737 85.4101 52.1737C85.4087 52.3857 85.4087 52.5991 85.4101 52.814C84.4611 52.814 83.5135 52.814 82.5645 52.814C82.5645 51.4509 82.5645 50.0864 82.5645 48.7233Z" fill="black"/>
<path d="M89.7855 48.7233C90.8754 48.7233 91.9667 48.7219 93.058 48.7233C93.0566 48.9353 93.0566 49.1487 93.058 49.3636C92.6184 49.3636 92.1801 49.3636 91.7419 49.3636C91.7419 50.5132 91.7419 51.6643 91.7419 52.814C91.5157 52.8125 91.2909 52.814 91.066 52.814C91.0646 51.6643 91.066 50.5132 91.066 49.3636C90.6378 49.3636 90.2109 49.3636 89.7855 49.3636C89.7841 49.1487 89.7841 48.9353 89.7855 48.7233Z" fill="black"/>
<path d="M93.5559 48.6514C93.8391 48.6514 94.1236 48.6514 94.4096 48.6514C94.4096 50.0742 94.4096 51.497 94.4096 52.9199C94.1236 52.9185 93.8391 52.9185 93.5559 52.9199C93.5559 51.497 93.5559 50.0742 93.5559 48.6514Z" fill="black"/>
<path d="M95.8113 48.9138C96.6251 48.4671 97.7292 48.6435 98.3653 49.3265C98.2159 49.483 98.0707 49.6423 97.9256 49.8017C97.476 49.4204 96.8414 49.1273 96.2623 49.3933C95.9322 49.4958 95.8298 50.0094 96.1769 50.1588C96.7503 50.4448 97.449 50.3979 97.9868 50.7721C98.5943 51.1776 98.526 52.2148 97.9 52.5734C96.9666 53.1383 95.6932 52.8736 94.9504 52.1081C95.1155 51.9473 95.2848 51.7908 95.4541 51.6329C95.9763 52.1053 96.7703 52.4439 97.4475 52.0967C97.7421 51.9843 97.8331 51.5205 97.5614 51.3369C96.9524 50.9627 96.1357 51.0837 95.5836 50.5942C95.06 50.1475 95.2122 49.2226 95.8113 48.9138Z" fill="black"/>
<path d="M99.105 48.6514C99.3881 48.6514 99.6727 48.6514 99.9587 48.6514C99.9587 50.0742 99.9587 51.497 99.9587 52.9199C99.6727 52.9185 99.3881 52.9185 99.105 52.9199C99.105 51.497 99.105 50.0742 99.105 48.6514Z" fill="black"/>
<path d="M103.694 48.7235C103.917 48.7221 104.142 48.7221 104.368 48.7221C104.371 50.0866 104.37 51.4511 104.37 52.8156C104.145 52.8128 103.921 52.8128 103.699 52.8114C102.971 51.7997 102.211 50.8123 101.49 49.7964C101.561 50.7995 101.507 51.8083 101.524 52.8142C101.296 52.8128 101.071 52.8128 100.848 52.8142C100.849 51.4497 100.842 50.0852 100.851 48.7207C101.07 48.7207 101.289 48.7221 101.511 48.7235C102.237 49.7138 102.968 50.6999 103.694 51.6902C103.694 50.7013 103.692 49.7124 103.694 48.7235Z" fill="black"/>
<path d="M105.946 49.101C106.86 48.3555 108.365 48.5319 109.047 49.5108C108.856 49.6474 108.668 49.7868 108.48 49.9277C108.058 49.3002 107.134 49.0754 106.51 49.5364C105.556 50.1326 105.717 51.7959 106.793 52.1616C107.609 52.5045 108.533 51.914 108.695 51.0774C108.248 51.0688 107.802 51.0717 107.358 51.0717C107.356 50.8568 107.356 50.6434 107.359 50.43C108.038 50.4314 108.716 50.43 109.395 50.4328C109.422 51.0788 109.301 51.7774 108.827 52.254C108.025 53.1419 106.448 53.1063 105.683 52.1886C104.9 51.3207 105.014 49.8167 105.946 49.101Z" fill="black"/>
<path d="M112.027 48.9226C112.855 48.4658 113.979 48.6351 114.624 49.338C114.467 49.4903 114.321 49.6482 114.159 49.7891C113.823 49.55 113.469 49.2939 113.038 49.2939C112.709 49.2896 112.255 49.4035 112.197 49.7834C112.141 49.9769 112.332 50.1334 112.493 50.1974C113.072 50.4436 113.767 50.4052 114.278 50.8149C114.82 51.2347 114.761 52.1709 114.187 52.5394C113.264 53.1498 111.939 52.8923 111.199 52.1012C111.364 51.9418 111.531 51.7839 111.696 51.6245C112.181 52.0741 112.89 52.3957 113.55 52.1595C113.807 52.1083 113.897 51.8351 114.034 51.6459C113.608 50.896 112.591 51.1593 111.962 50.7054C111.326 50.3212 111.383 49.2683 112.027 48.9226Z" fill="black"/>
<path d="M115.005 48.7233C116.084 48.7219 117.162 48.7233 118.242 48.7233C118.241 48.9367 118.241 49.1487 118.242 49.3636C117.814 49.3636 117.387 49.3636 116.962 49.3636C116.962 50.5132 116.963 51.6643 116.962 52.814C116.734 52.814 116.509 52.8125 116.286 52.814C116.286 51.6643 116.284 50.5132 116.286 49.3636C115.859 49.3636 115.431 49.3636 115.005 49.3636C115.004 49.1487 115.004 48.9367 115.005 48.7233Z" fill="black"/>
<path d="M125.321 48.7235C125.544 48.7221 125.769 48.7221 125.995 48.7221C125.997 50.0866 125.995 51.4497 125.997 52.8128C125.766 52.8128 125.539 52.8142 125.311 52.8171C124.584 51.8211 123.845 50.8336 123.117 49.8376C123.111 50.8308 123.121 51.8239 123.111 52.8171C122.886 52.8142 122.662 52.8128 122.44 52.8128C122.44 51.4483 122.438 50.0852 122.44 48.7207C122.666 48.7221 122.893 48.725 123.124 48.7292C123.85 49.7309 124.592 50.7212 125.324 51.72C125.317 50.7212 125.321 49.7224 125.321 48.7235Z" fill="black"/>
<path d="M131.816 48.9109C132.646 48.4655 133.75 48.6548 134.399 49.3363C134.241 49.4928 134.085 49.6507 133.932 49.8073C133.469 49.3946 132.759 49.0987 132.179 49.4459C131.91 49.5867 131.873 50.042 132.18 50.163C132.776 50.4589 133.522 50.3864 134.057 50.826C134.608 51.2728 134.511 52.2432 133.889 52.5832C132.961 53.1339 131.671 52.8863 130.961 52.0895C131.135 51.933 131.312 51.7793 131.49 51.6271C131.994 52.1436 132.858 52.4637 133.518 52.0525C133.824 51.906 133.79 51.3795 133.464 51.2728C132.889 50.9939 132.192 51.0466 131.662 50.6638C131.086 50.2412 131.179 49.2324 131.816 48.9109Z" fill="black"/>
<path d="M9.48741 48.7227C9.72503 48.7227 9.96264 48.7227 10.2003 48.7241C10.7452 50.09 11.3072 51.4488 11.8479 52.8162C11.5904 52.8133 11.3328 52.8147 11.0753 52.8147C10.9657 52.5302 10.8576 52.2456 10.7495 51.961C10.1362 51.961 9.52298 51.9625 8.90974 51.9596C8.80018 52.2428 8.69347 52.5259 8.58818 52.8119C8.33918 52.8133 8.09018 52.8133 7.84119 52.8133C8.38044 51.446 8.94816 50.09 9.48741 48.7227ZM9.83032 49.5692C9.59839 50.1512 9.37074 50.7346 9.1502 51.3208C9.60266 51.3208 10.0551 51.3208 10.5076 51.3193C10.2842 50.736 10.0637 50.1498 9.83032 49.5692Z" fill="black"/>
<path d="M20.1018 48.7248C21.0153 48.7546 22.0184 48.5796 22.8379 49.0876C24.0075 49.7976 23.9975 51.7796 22.8137 52.4711C21.997 52.9648 21.0053 52.7813 20.1018 52.8154C20.1018 51.4509 20.1018 50.0878 20.1018 48.7248ZM20.7777 49.3622C20.7777 50.2998 20.7777 51.2389 20.7777 52.178C21.2842 52.1652 21.8249 52.2235 22.293 51.9902C23.1495 51.5904 23.2221 50.2543 22.5107 49.6838C22.0141 49.3152 21.361 49.3707 20.7777 49.3622Z" fill="black"/>
<path d="M24.4772 48.7233C25.4376 48.7233 26.398 48.7219 27.3598 48.7233C27.3584 48.9367 27.3584 49.1487 27.3584 49.3636C26.6356 49.3636 25.9114 49.3621 25.1872 49.365C25.1886 49.7079 25.1886 50.0508 25.19 50.3951C25.8772 50.3937 26.5631 50.3951 27.2503 50.3937C27.2503 50.6185 27.2517 50.8447 27.2517 51.071C26.5645 51.071 25.8758 51.0696 25.1886 51.0724C25.1886 51.4381 25.1886 51.8052 25.1886 52.1737C25.9114 52.1737 26.6356 52.1737 27.3584 52.1737C27.3584 52.3857 27.3584 52.5991 27.3584 52.814C26.398 52.814 25.4376 52.814 24.4772 52.814C24.4772 51.4509 24.4772 50.0864 24.4772 48.7233Z" fill="black"/>
<path d="M37.4249 52.8139C37.4235 51.4508 37.4249 50.0863 37.4249 48.7232C38.3754 48.8114 39.6019 48.423 40.3034 49.2738C40.8839 50.0009 40.4684 51.1577 39.5791 51.3967C40.0088 51.8592 40.4215 52.3358 40.8369 52.811C40.541 52.8125 40.2436 52.8125 39.9476 52.8096C39.5706 52.3586 39.1793 51.9189 38.8065 51.465C38.5703 51.4622 38.3356 51.4608 38.1008 51.4622C38.1008 51.9118 38.1008 52.3628 38.1008 52.8139C37.8746 52.8125 37.6498 52.8139 37.4249 52.8139ZM38.1008 49.3649C38.1008 49.8501 38.0994 50.3367 38.1036 50.8233C38.5718 50.7977 39.0712 50.8973 39.5151 50.7081C40.0159 50.4562 39.9619 49.6111 39.4269 49.4375C38.9972 49.3108 38.5419 49.3763 38.1008 49.3649Z" fill="black"/>
<path d="M42.6396 48.7207C42.8773 48.7221 43.1149 48.7221 43.3525 48.7235C43.8974 50.0895 44.4594 51.4483 45.0001 52.8156C44.7412 52.8128 44.4851 52.8142 44.229 52.8142C44.1208 52.5282 44.0113 52.2437 43.9017 51.9605C43.2885 51.9605 42.6752 51.9619 42.062 51.9591C41.9524 52.2422 41.8457 52.5254 41.7404 52.8114C41.4914 52.8128 41.2424 52.8128 40.9934 52.8128C41.5327 51.4454 42.1004 50.0881 42.6396 48.7207ZM42.3081 51.3217C42.7577 51.3188 43.2088 51.3202 43.6598 51.3202C43.4364 50.734 43.213 50.1507 42.9868 49.5673C42.752 50.1492 42.523 50.7326 42.3081 51.3217Z" fill="black"/>
<path d="M44.6443 48.7233C45.7356 48.7219 46.8269 48.7233 47.9182 48.7233C47.9182 48.9353 47.9182 49.1487 47.9182 49.3636C47.4914 49.3636 47.0645 49.3636 46.6377 49.3636C46.6377 50.5132 46.6377 51.6643 46.6377 52.814C46.4115 52.8125 46.1866 52.814 45.9618 52.814C45.9604 51.6643 45.9618 50.5132 45.9618 49.3636C45.5222 49.3636 45.0839 49.3636 44.6457 49.3636C44.6443 49.1487 44.6443 48.9367 44.6443 48.7233Z" fill="black"/>
<path d="M55.1036 48.7227C55.3242 48.7227 55.5461 48.7241 55.7681 48.7269C56.4881 49.7215 57.2265 50.7047 57.9507 51.6978C57.9479 50.7061 57.9493 49.7158 57.9493 48.7241C58.1741 48.7227 58.3989 48.7227 58.6252 48.7241C58.6252 50.0872 58.6252 51.4502 58.6252 52.8147C58.4018 52.8147 58.1798 52.8147 57.9579 52.8162C57.2194 51.8159 56.4838 50.8157 55.7439 49.8182C55.7439 50.8171 55.7439 51.8159 55.7439 52.8147C55.5291 52.8133 55.3156 52.8133 55.1036 52.8147C55.1036 51.4502 55.1036 50.0872 55.1036 48.7227Z" fill="black"/>
<path d="M71.3254 48.7241C71.5602 48.7227 71.7964 48.7227 72.0326 48.7227C72.5818 50.0857 73.141 51.4474 73.6831 52.8133C73.4227 52.8133 73.1652 52.8147 72.909 52.8162C72.7995 52.5316 72.6928 52.247 72.5889 51.9639C71.9714 51.9596 71.3553 51.961 70.7392 51.9625C70.6339 52.247 70.5272 52.5316 70.4205 52.8162C70.1715 52.8147 69.9225 52.8133 69.6749 52.8133C70.217 51.4474 70.7791 50.0886 71.3254 48.7241ZM70.9868 51.3222C71.4378 51.3193 71.8889 51.3208 72.3413 51.3193C72.1236 50.7331 71.8931 50.154 71.6726 49.5692C71.4307 50.1483 71.2088 50.7346 70.9868 51.3222Z" fill="black"/>
<path d="M74.2054 48.7247C75.1089 48.7574 76.0978 48.5795 76.916 49.0661C78.0969 49.7491 78.1282 51.7112 76.9757 52.4383C76.1562 52.9775 75.1289 52.7769 74.2054 52.8153C74.2054 51.4508 74.2054 50.0877 74.2054 48.7247ZM74.8813 49.3607C74.8813 50.2997 74.8813 51.2388 74.8827 52.1779C75.3907 52.1679 75.9299 52.2163 76.4037 51.9929C77.2646 51.5959 77.34 50.2329 76.61 49.6751C76.1106 49.3137 75.4632 49.3735 74.8813 49.3607Z" fill="black"/>
<path d="M77.9958 48.7241C78.2577 48.7227 78.5195 48.7227 78.7827 48.7241C79.1939 49.7983 79.6222 50.8669 80.0205 51.9482C80.4389 50.874 80.8572 49.7997 81.267 48.7227C81.5145 48.7227 81.765 48.7241 82.0154 48.7269C81.4676 50.0886 80.9112 51.4474 80.3677 52.8119C80.1344 52.8133 79.901 52.8162 79.6705 52.8219C79.0857 51.4673 78.5636 50.0857 77.9958 48.7241Z" fill="black"/>
<path d="M86.2639 48.7242C87.0194 48.7584 87.7963 48.6332 88.5362 48.8295C89.3358 49.087 89.6631 50.1513 89.1907 50.8329C89.0214 51.1203 88.7041 51.2555 88.4181 51.3963C88.8435 51.863 89.2675 52.3311 89.6787 52.8106C89.3244 52.7622 88.8393 52.9728 88.6102 52.5986C88.2772 52.223 87.9614 51.8331 87.6284 51.4603C87.3979 51.4618 87.1688 51.4632 86.9398 51.4646C86.9398 51.9142 86.9398 52.3638 86.9398 52.8149C86.7135 52.8149 86.4873 52.8135 86.2639 52.8149C86.2639 51.4518 86.2639 50.0873 86.2639 48.7242ZM86.9398 49.3645C86.9398 49.8497 86.9398 50.3363 86.9398 50.8229C87.3808 50.8101 87.8347 50.8713 88.2673 50.7518C88.8136 50.564 88.8535 49.706 88.3299 49.4684C87.8916 49.2905 87.3993 49.3873 86.9398 49.3645Z" fill="black"/>
<path d="M117.915 52.8147C118.459 51.4474 119.018 50.0872 119.567 48.7227C119.802 48.7227 120.039 48.7241 120.278 48.7255C120.822 50.09 121.377 51.4502 121.927 52.8119C121.666 52.8133 121.408 52.8147 121.151 52.8162C121.042 52.5288 120.934 52.2442 120.828 51.9596C120.214 51.961 119.603 51.9625 118.991 51.9596C118.877 52.2442 118.764 52.5302 118.653 52.8162C118.406 52.8147 118.16 52.8133 117.915 52.8147ZM119.228 51.3179C119.678 51.3208 120.129 51.3193 120.58 51.325C120.365 50.7374 120.138 50.1555 119.91 49.5735C119.674 50.1526 119.447 50.7346 119.228 51.3179Z" fill="black"/>
<path d="M126.957 48.7249C127.874 48.7548 128.877 48.5798 129.702 49.0849C130.866 49.7991 130.859 51.7655 129.685 52.467C128.865 52.9692 127.866 52.7786 126.957 52.8156C126.957 51.4511 126.957 50.088 126.957 48.7249ZM127.633 49.3623C127.633 50.3 127.633 51.2391 127.633 52.1781C128.155 52.1682 128.712 52.2194 129.193 51.9747C129.985 51.5706 130.066 50.3384 129.452 49.7465C128.954 49.3097 128.248 49.3709 127.633 49.3623Z" fill="black"/>
</svg>
